/* XPM */
static char *down_idle1676416494[] = {
/* columns rows colors chars-per-pixel */
"64 64 235 2 ",
"   c None",
".  c #030303",
"X  c #0C0907",
"o  c #060A0C",
"O  c #0B0C0C",
"+  c #04050A",
"@  c #150C07",
"#  c #0D110E",
"$  c #18130A",
"%  c #080E15",
"&  c #0D1213",
"*  c #0B1919",
"=  c #121B1A",
"-  c #151918",
";  c #25180B",
":  c #301C15",
">  c #19241D",
",  c #0E201E",
"<  c #27200C",
"1  c #39280D",
"2  c #2A251A",
"3  c #272419",
"4  c #362816",
"5  c #35321E",
"6  c #081528",
"7  c #171C25",
"8  c #081D39",
"9  c #1E2421",
"0  c #1A2829",
"q  c #19302B",
"w  c #1B3637",
"e  c #122937",
"r  c #222B24",
"t  c #2B2B2A",
"y  c #25342B",
"u  c #2A352C",
"i  c #2B3A2D",
"p  c #273428",
"a  c #353626",
"s  c #242A37",
"d  c #2B3C31",
"f  c #243A3B",
"g  c #263636",
"h  c #343736",
"j  c #462D17",
"k  c #493618",
"l  c #543718",
"z  c #42290B",
"x  c #4B2D23",
"c  c #483A27",
"v  c #553528",
"b  c #483E37",
"n  c #57382C",
"m  c #663A2A",
"M  c #2E4234",
"N  c #28453C",
"B  c #314336",
"V  c #324539",
"C  c #364A3D",
"Z  c #4D431B",
"A  c #534419",
"S  c #614F1F",
"D  c #4B4425",
"F  c #554B28",
"G  c #59532D",
"H  c #4A4B36",
"J  c #514C3A",
"K  c #78482C",
"L  c #695829",
"P  c #785534",
"I  c #6B4E30",
"U  c #746735",
"Y  c #091F43",
"T  c #16384A",
"R  c #273946",
"E  c #343A47",
"W  c #32394F",
"Q  c #1F435B",
"!  c #1B444C",
"~  c #294648",
"^  c #354C43",
"/  c #3C5245",
"(  c #3B5449",
")  c #2C4A54",
"_  c #2D4C5B",
"`  c #264554",
"'  c #354959",
"]  c #2E5458",
"[  c #365A55",
"{  c #2B5142",
"}  c #254B63",
"|  c #345363",
" . c #39596C",
".. c #375967",
"X. c #355268",
"o. c #38626C",
"O. c #3C6774",
"+. c #2F6069",
"@. c #2B5C5F",
"#. c #425A4D",
"$. c #445848",
"%. c #555746",
"&. c #434B5D",
"*. c #445D51",
"=. c #4B5C51",
"-. c #474E48",
";. c #6E5547",
":. c #4B6559",
">. c #536B5D",
",. c #516757",
"<. c #5D705D",
"1. c #736E4E",
"2. c #454D64",
"3. c #49536B",
"4. c #535C76",
"5. c #505B70",
"6. c #546E61",
"7. c #55656C",
"8. c #5B7464",
"9. c #587466",
"0. c #426878",
"q. c #5C637B",
"w. c #47717B",
"e. c #4D6D62",
"r. c #647D6B",
"t. c #617864",
"y. c #6C6F78",
"u. c #865D37",
"i. c #8B7838",
"p. c #936F3C",
"a. c #966645",
"s. c #967657",
"d. c #927A48",
"f. c #A3744A",
"g. c #69826E",
"h. c #6C8571",
"j. c #6A8672",
"k. c #738D78",
"l. c #77927C",
"z. c #98863B",
"x. c #A7913E",
"c. c #978844",
"v. c #968B4E",
"b. c #A38C43",
"n. c #A99A47",
"m. c #BA8556",
"M. c #B1944B",
"N. c #B4AA59",
"B. c #B9A34B",
"V. c #928C70",
"C. c #AD8A67",
"Z. c #98A273",
"A. c #CDB74F",
"S. c #C79062",
"D. c #CB9A70",
"F. c #D9A87C",
"G. c #CAAF72",
"H. c #E1AD7C",
"J. c #D8C24D",
"K. c #D4C463",
"L. c #367F91",
"P. c #5C6684",
"I. c #4C7D8B",
"U. c #477684",
"Y. c #537D8B",
"T. c #636C89",
"R. c #6B7692",
"E. c #6F7791",
"W. c #328091",
"Q. c #4B818C",
"!. c #4E8592",
"~. c #498996",
"^. c #528693",
"/. c #528995",
"(. c #558D99",
"). c #5B8C98",
"_. c #5A939D",
"`. c #55929B",
"'. c #53838E",
"]. c #62959C",
"[. c #749391",
"{. c #5E98A2",
"}. c #639AA5",
"|. c #659EA8",
" X c #7A8DA2",
".X c #6AA3AC",
"XX c #6BA7A9",
"oX c #6DA9B2",
"OX c #6AA7B1",
"+X c #73ADB5",
"@X c #75AEB7",
"#X c #77B5BA",
"$X c #6FB1B2",
"%X c #5FA0AB",
"&X c #7BC4BF",
"*X c #7DB8C0",
"=X c #7BC4C4",
"-X c #899B90",
";X c #8EA990",
":X c #A2B68D",
">X c #848BA5",
",X c #838CAB",
"<X c #969CB6",
"1X c #9096AF",
"2X c #8EB5B7",
"3X c #B1B5B0",
"4X c #DAAB82",
"5X c #D8B18A",
"6X c #E5B88D",
"7X c #E5BC94",
"8X c #E5BE99",
"9X c #D8B9A2",
"0X c #BCC7B3",
"qX c #D1D0BC",
"wX c #E7CAA5",
"eX c #F5D5AC",
"rX c #FBDDB6",
"tX c #EFD1AA",
"yX c #FEE1B9",
"uX c #81BEC3",
"iX c #AAB1CA",
"pX c #82C5C5",
"aX c #84CCC9",
"sX c #82C9C6",
"dX c #88D4CD",
"fX c #9CD9CD",
"gX c #8ADAD1",
"hX c #97D4CB",
"jX c #B3D1D0",
"kX c #A1E0D1",
"lX c #C5CEC6",
"zX c #CAE5CC",
"xX c #D6E3C8",
"cX c #C4CCE4",
"vX c #CAD2EA",
/* pixels */
"                                                 .                                                                              ",
"                                              0.Y.).XXXX.X}.).].).].].XXXX].w.|                                                 ",
"                                    ..0.w.w.U.].+XpXdXdXpX#X+X+X@X@X#XpXgXaXXX^.w.[                                             ",
"                                ~ w.Y./..X+X@XpXdXdXpX+X{.{._.{._._.{.}.$X=XdXaX&X/.O.'                                         ",
"                                ~ ..0.I.|.#XuXaXaXsX*X+X{./.!.!.!.!.!.!.).XX#X=XaX+X^.O.'                                       ",
"                                  g ~ ..U.}.@X#X2X#X@X+XoX(.!././.(.^./.^.^.!.|.+X@XoX).0._                                     ",
"                                    g R  .U.{.#X*X@X{.{._.(././././././.(.!.!.(.`._.#X&X`...                                    ",
"                                      ) O.`.$XsX#X{.(.Q./.|.}.^.^./././.^./.(.!.!.!.$X=X&XQ.~                                   ",
"                                    ' O.^.2XkXgX#X(.^.).{.OX|.~././.!.(.^./././.!.~.{.sXkX$X|                                   ",
"                                  g o.^.XXjXxXkX=XoX(.|.+X{.(.~././.!./././.(.^.!.~.OXfXxX3XO.w                                 ",
"                                  q ..{.=XfXzXxXkX#X^._.uX3X;XL.W.`.}.(.].}.I.^.$X3XjXzXzX2XO.q                                 ",
"                                  g O.|.dXgXfXxXzX=XU.Y.pXxXqX[.[.#X#X}..X.X0.Q.uXqXrXxXfX$Xo.0                                 ",
"                                  ' '.#XgXaXpXfXhX+Xw.^.uXfXzXqXqXzXdX#X.X^.] 0._.[.2XaXhX$X..-                                 ",
"                                  X.].uXpX#X.X=X@XY._ U.OX=XfXzXzXkXpX+X(.O.T _ O.~.~.OXsX$X] & 3                               ",
"                                  _ ).@X#X|._.oX).~ h ..^.oXpXgXgXpXXX'.O.} h ~ o.Q.~._.+X}.] # 7                               ",
"                                  g 0.}.#X.X/.).0.h n b ] ^.oX=XgX$X0. ._ h n b ] Q.`.`._.I.R %                                 ",
"                                  , ` I.@X}.U.^.o.h I m n ..^.oX+X/.} W E m m v ~ I.I.Q./.O.g                                   ",
"                                  & s 0..X). .U.+.r x m v 5 ..I./.U._ f v m m 4 ~ U.o.0.Q.o.                                    ",
"                                    0 ] /.w.~  .W % @ ; : v n | Q.O.g n x ; $ @ w U.] _ O.~                                     ",
"                                    r ~ O.] T _ 4.%.- . : p.K t } ! v a.K + . b 7.O.T ` X.R                                     ",
"                                    q w ] ' g ` E.-Xb . v m.m.;.=.%.a.S.s.; @ y.[.` R ' | R                                     ",
"                                      * w b v s 1X0Xa.: P F.5X4XF.G.4X5Xf.l v 3X-Xs v b w e                                     ",
"                                      & = x K u.3XlX1.; P 4X6X6X6X6X6X6Xs.j b lX3Xu.m x = *                                     ",
"                                        - : K m.9X9XV.P V.5X7X6X8X6X8X8X:Xs.s.9X6Xm.u.: # >                                     ",
"                                  V V h M * l m.F.8XwXwXwXeXeXeXeXeXeXeXtXwXwX8XF.m.k * i M B h                                 ",
"                                C / ( #.#.w 3 K m.F.wXrXyXrXrXrXrXrXrXrXrXrXtX4Xm.P 3 g #.#.#.^ C                               ",
"                              B / ,.9.6.>.^ & @ P m.D.7XeXeXeXeXeXeXeXeXeX8XD.m.K X - ^ ,.6.6.>.$.C                             ",
"                              / :.r.h.r.6.C - * 2 5 c f.F.7X8X8X8X7X7X6XH.s.x j 4 & - ^ :.9.h.r.6.#.V                           ",
"                            B =.r.h.h.k.k.>.3 > = * X k u.d.s.s.s.s.s.s.u.l + % , > r >.k.k.h.h.r.6.C                           ",
"                            B :.h.l.k.l.;Xj.B > y M r * X X X X X X X X O - r M y > M j.;X;Xk.k.k.<.B                           ",
"                            B B ,.-X;X;Xl.g.( p p V B d 0 - o . . . O * q d B C y y ( g.k.Z.;X-Xt./ B                           ",
"                            u y ^ r.j.g.<.*.( M y u M / $.^ d > > > i ^ / / M y y M ( :.:.9.j.t.=.d u                           ",
"                            r y M M M M B B M M y p N *.6.e.:.N N N [ e.e.*.B p y M M M B M M M M i >                           ",
"                            7 9 9 M M M B i 9 9 p B :.9.g.g.9.[ [ [ g.k.g.9.*.B p r r u M M M M p > #                           ",
"                              2 2 a i y i > # X d :.9.l.[.l.Z.N.N.N.Z.[.l.k.g.*.d o # > i g i p 2 3 -                           ",
"                              4 1 1 4 p 3 # . # N :.9.Z.:X:XA.J.J.J.G.:X:Xl.g.:.V # . $ 3 3 4 1 1 4                             ",
"                            # ; 1 k l k 1 @ # y C C { v.A.G.x.i.U z.N.K.K.g.C C C p # @ < j l l j < $                           ",
"                            O @ 1 k l l 1 $ # a H G G L i.z.G M Z a z.x.z.L S G H i # $ 1 z l l z ; #                           ",
"                            u a c D l l 4 $ + 3 F L L D g { / $.C $.C N q Z L L D 3 X $ 4 1 4 D k a i                           ",
"                          ^ *.8.8.H 5 1 2 # . . 3 a 5 i ~ :.8.r.g.g.>.[ N M a 5 3 X X # > 3 a H <.t.=.C                         ",
"                          ^ :.r.h.$.i p 3 % $ Z 4 + + 0 C :.8.h.j.g.>.$.B = + o 5 k $ # > p i $.r.h.:./                         ",
"                        u B =.t.e.C d d 9 o ; S A < $ > 0 M [ e.9.[ { q > > ; < A F ; o = p i { >.9.=.h                         ",
"                        - 3 n %.{ N w r # # > < A L L a = 0 N { { N w > r v L L A < > # o - d N { / n r                         ",
"                        X 4 a.s.C.d.G # X > y w H H L i.i.i.n.n.n.n.c.i.i.U G G H f y > O X I s.V.C.a.4                         ",
"                          5 f.F.F.S.P X * M $.>.*.i G b.M.n.A.J.J.J.B.n.n.i.a C :.,./ d 9 # K S.F.H.f.j                         ",
"                            j a.S.a.j o q / ,.r.<.%.L G Z 5 Z Z Z Z k a F L G ,.9.g.>./ M , x a.S.f.v                           ",
"                              I u.x : y / >.r.g.8.1.i.B % 6 8 Y Y Y 8 * 6 L d.t.9.j.g.>.#.M 3 x P P                             ",
"                                    q C :.r.k.9.>.v.B.H 8 ! X. . . .) e 8 i.B.1.e.j.j.r.>.( r #                                 ",
"                                    d C :.r.g.,.U B.A.J Y .. . . . . .Q Y n.A.i.=.9.j.r.>.( h                                   ",
"                                    t g / 6.[ $.i.n.v.:.} .._ ) ) ` | X.Q 1.n.x.U ] 6.>.#.V u                                   ",
"                                    a a i ( ( 1.b.1.T ]  ...! q q w `  . .Q / c.c.$.#.^ d i a                                   ",
"                                    F L t 0 U n.U ) Q +. .| f , % q _  . .} ` $.z.b.H 6 9 D F                                   ",
"                                    F G S U i.U r Q P.X.` ` R * o q ! ~ T X.3.Y F i.i.L F F F                                   ",
"                                      D u.x.i.7 T R.,XR.' f w , % q w ~ ) R.,X3.6 D b.i.L F                                     ",
"                                            D T P.iXvXiXE.' w * o e R 5.E.cXvX1X_ g                                             ",
"                                              E 4.iXcXiX>X2.s * o 0 R P.1XcXcXE.'                                               ",
"                                                W E.<X<XE.W R % o 0 R 4.>X<X>X4.s                                               ",
"                                                s &.q.P.3.s s 7 % 0 s W 5.4.4.E 6                                               ",
"                                                2.>X<X1Xq.W s % + s s 2.E.<X<XT.W                                               ",
"                                              3.P.iXcXiXE.2.R % + 7 W P.>XiXcX>X5.2.                                            ",
"                                            4.T.2.&.q.q.R.T.W + + 7 4.E.T.q.7.-.4.T.                                            ",
"                                            3.T.4.q.T.T.T.P.W + + 7 3.T.T.T.T.4.4.4.                                            ",
"                                            E 2.T.>X1XE.P.W s & + 7 W 2.P.>X1XE.3.                                              ",
"                                              s s E E h 7 - O + . + % 7 7 E E h s                                               "
};
