/* XPM */
static char *up_idle1676416144[] = {
/* columns rows colors chars-per-pixel */
"64 64 227 2 ",
"   c None",
".  c #010202",
"X  c #04070A",
"o  c #050B0D",
"O  c #0C0C0C",
"+  c #070805",
"@  c #191308",
"#  c #070B15",
"$  c #0D1414",
"%  c #0D141A",
"&  c #0D1B1B",
"*  c #071617",
"=  c #131512",
"-  c #151915",
";  c #151C1B",
":  c #1A1D1A",
">  c #14171B",
",  c #130E08",
"<  c #241D0C",
"1  c #251102",
"2  c #291C13",
"3  c #1C231D",
"4  c #15211C",
"5  c #0F2019",
"6  c #29210C",
"7  c #36270E",
"8  c #282519",
"9  c #362715",
"0  c #37311A",
"q  c #0B1823",
"w  c #171C25",
"e  c #161D32",
"r  c #1E2621",
"t  c #1D2924",
"y  c #1C222D",
"u  c #152C2C",
"i  c #172729",
"p  c #1A322C",
"a  c #182737",
"s  c #1A3434",
"d  c #1E393B",
"f  c #1B3739",
"g  c #0D2323",
"h  c #222B24",
"j  c #242C29",
"k  c #243127",
"l  c #26342A",
"z  c #2B3B2E",
"x  c #2A352A",
"c  c #383625",
"v  c #222A34",
"b  c #292F3E",
"n  c #242A39",
"m  c #2C3D31",
"M  c #213A3D",
"N  c #253836",
"B  c #332C21",
"V  c #472C1B",
"C  c #473416",
"Z  c #533616",
"A  c #402506",
"S  c #483B25",
"D  c #2E4233",
"F  c #284339",
"G  c #314436",
"H  c #32453A",
"J  c #364B3E",
"K  c #3A4A3D",
"L  c #514319",
"P  c #604F1E",
"I  c #48452B",
"U  c #574B28",
"Y  c #464E38",
"T  c #555535",
"R  c #524D35",
"E  c #675727",
"W  c #715131",
"Q  c #636A3D",
"!  c #776734",
"~  c #796930",
"^  c #5C643D",
"/  c #123750",
"(  c #2C3344",
")  c #223C42",
"_  c #2A3C48",
"`  c #31394B",
"'  c #353E52",
"]  c #263D57",
"[  c #1B4250",
"{  c #2A434D",
"}  c #274647",
"|  c #364C44",
" . c #2B5145",
".. c #3B5144",
"X. c #3E564A",
"o. c #35534B",
"O. c #2C4956",
"+. c #2E4C5A",
"@. c #284652",
"#. c #324D5D",
"$. c #3B4359",
"%. c #365858",
"&. c #2E525B",
"*. c #364F65",
"=. c #355364",
"-. c #385669",
";. c #395A6C",
":. c #365766",
">. c #3C5F70",
",. c #275E6A",
"<. c #3C616B",
"1. c #3D6172",
"2. c #3E6973",
"3. c #165765",
"4. c #435A4D",
"5. c #435447",
"6. c #465C50",
"7. c #4F5054",
"8. c #496154",
"9. c #4C665A",
"0. c #4E695D",
"q. c #556C5C",
"w. c #566956",
"e. c #5B6955",
"r. c #797247",
"t. c #6F7251",
"y. c #424B63",
"u. c #4A536C",
"i. c #535B76",
"p. c #535C78",
"a. c #4D5A74",
"s. c #536D61",
"d. c #5C7465",
"f. c #5A7768",
"g. c #436C7C",
"h. c #416777",
"j. c #44717E",
"k. c #546477",
"l. c #647D6C",
"z. c #617965",
"x. c #816E37",
"c. c #8B7839",
"v. c #927239",
"b. c #917349",
"n. c #A5774F",
"m. c #67816E",
"M. c #69816E",
"N. c #6C8471",
"B. c #6A8671",
"V. c #758F79",
"C. c #718A74",
"Z. c #768A72",
"A. c #9E8439",
"S. c #A58B3E",
"D. c #9A8747",
"F. c #918854",
"G. c #A58C42",
"H. c #B39949",
"J. c #A39253",
"K. c #AC914E",
"L. c #AFA04C",
"P. c #998964",
"I. c #A38363",
"U. c #CAB44F",
"Y. c #C89365",
"T. c #DBA97D",
"R. c #D5C051",
"E. c #5B6582",
"W. c #467382",
"Q. c #497986",
"!. c #497B89",
"~. c #487381",
"^. c #616A8A",
"/. c #6D7698",
"(. c #3B8191",
"). c #4D818E",
"_. c #4E8592",
"`. c #488694",
"'. c #518693",
"]. c #518995",
"[. c #568E99",
"{. c #5C8E99",
"}. c #5A939D",
"|. c #5C999F",
" X c #4F898F",
".X c #759A93",
"XX c #5C9AA2",
"oX c #5C99A5",
"OX c #639BA4",
"+X c #669CA5",
"@X c #6BA4AD",
"#X c #66A5A8",
"$X c #6EA9B1",
"%X c #6DA7B0",
"&X c #74AEB6",
"*X c #71A7B0",
"=X c #74B3BA",
"-X c #7BBBBD",
";X c #77B5BB",
":X c #67A49D",
">X c #7CBDC1",
",X c #7BC4C3",
"<X c #7BC8C5",
"1X c #829E86",
"2X c #8AA88E",
"3X c #86A48B",
"4X c #8DAC91",
"5X c #91BAB9",
"6X c #DDAC80",
"7X c #B9C7B3",
"8X c #D0D7BE",
"9X c #E4D9BA",
"0X c #83CEC6",
"qX c #85CCC9",
"wX c #82C4C4",
"eX c #84D2CA",
"rX c #8AD6CE",
"tX c #97D3CA",
"yX c #92D2C9",
"uX c #BAD8C6",
"iX c #97E2D5",
"pX c #8CE1D6",
"aX c #BDE0CC",
"sX c #CEDFC6",
"dX c #C7E6CD",
"fX c #D6E3C7",
"gX c #E3E0C3",
/* pixels */
"                                                                                                                                ",
"                                                                                                                                ",
"                                                          -.-.-.-.y.;.                                                          ",
"                                                ] :. X:X:XOX{.{.{.{.{.:X*X:X+X'.j.-.                                            ",
"                                            O.;.Q.{.-XrXeX-X&X&X&X&X&X>XyXrXqX;X#X!.g.g.h.<.                                    ",
"                                          :.j.#X0XeXqX-X#X|.}.}.XX}.}.}.#X;X0XrXqX-X*X*XOX).!.;.N                               ",
"                                        :.~.OX>XqX-X$X|.].)._._.'._.'.{.@X;XwXqXqXwX>X&X{.j.2.%.                                ",
"                                      -.Q.#X;X;X*X[. X].].'.].].].'.].+X&X&X&X;X>X&X@X].1.O.)                                   ",
"                                    -.W.$X<X,X@X[.'.'.].].].].].].'.].[.}.}.@X;X;X@X].2.O.d                                     ",
"                                    h.#X<X0X$XXX_.].].].].].].].].].'.'._.`.[.%XwX,X#XQ.=._                                     ",
"                                  @.j.tXtX=X[.(.'.].].].].].].[.].].].]._.]._.OXeXiXtX+XW.*.                                    ",
"                                  3..X8XaX<X[.(._.'.].].].].].].].].'.].].].OX=XeXdXsX5X_.O.N                                   ",
"                                f ,.+XuXdXsX7X4XOX]._._.'._._.(.(.(._._.].OX>XyXaXdXaXyX@X=.s                                   ",
"                                u :.XX<XaXgXgXuX=XoX|.XXXXXX|..X.X.X}.oXoX$XwXtXfXdXrXrX$X1.M                                   ",
"                                % &.oX<XyX5XyX5X>XwX0X0X0X<XyX8XgXsXtX>X*XoX@XwXtXyX>X>X#X2.#.                                  ",
"                                * =.oX>X>XoXoXoX%XwXpXpXiXpXiXdXdXdXtX;X+X].[.$X,X;X+X+XXXW.:.                                  ",
"                                O &.[.$X+X_.]._.}.%X,X0XqX0X0X<X0X<X;XOX_._._.[.%X#X'.].].j.#.                                  ",
"                                O _ g.].[.].]._.].].XXXXXXXX|.XXoXXX[.[.!.2.W.].[.[.].'.].2.M                                   ",
"                                  n +.2.).].].].].].!.g.!._._._._._._.]._.>.>.Q._.!.).'.!.&.> :                                 ",
"                                  t f =.g._.].].].].g.1.).[.'.].]._.].[._.>.*.>.W.;.j.].j.b =                                   ",
"                                  $ w #.>.g._.].].].j.1._.].].].].].].].).1.=.-.:.{ 2.'.2.p                                     ",
"                                  O * } +.;.g.).'.!.1.>.g.).].].]._.Q._._.1.-.-.=.d :.W.=.l                                     ",
"                                  O o p O.-.-.W.!.;.*.=.-.W.].]._.!.;.g.!.1.-.-.+.d } &.{                                       ",
"                                    o u O.-.-.;.1.;.@.) *.W.].].Q.:.{ +.>.-.-.+.f * i ) u                                       ",
"                                    = q f &.-.&.O.=.@.f { ;.Q._.W.+.f d O.=.+.) u X X & &                                       ",
"                                      - 5 f #.{ ) =.O.s s { 1._.W.=.) p ) =.) f s * . O 3                                       ",
"                                G G G z 3 & f M ) =.+.s s { 1._.Q.=.d p { =.) s u O : z D G G                                   ",
"                              H ..X.X.4.m O $ u M { M i s ) &.g.1.{ f u ) { ) p & $ m 4.4.X...H                                 ",
"                              ..0.s.s.s.| = + q s s g o s s } O.@.f s 5 g s s g + - | 9.q.d.9.4.J                               ",
"                            ..9.l.N.l.s.| : - = * s 5 o p d f d M s s * g u * $ - : | w.f.M.l.s.4.H                             ",
"                          G 8.l.N.N.N.z.6.h 8 - - i & . & s s f f p * X $ i - - 3 h 6.d.l.N.M.M.d.H                             ",
"                          G 8.M.V.V.V.C.q.H t : r t 3 O . & u u u & . O 3 h h : h H q.C.V.V.Z.M.d.G                             ",
"                          G G 9..X4X3XV.d.4.k - t m D x : # o o o $ : k m z h - l 4.d.N.1X4X.Xz.K D                             ",
"                          x x ..M.C.m.e.8.X.G 3 r m ..5.| | m m m H | X...m h h D X.8.w.z.N.m.4.D x                             ",
"                          3 h D D D D D G G G l k H 6.s.q.s.q.s.s.s.s.s.6.H h k D G G G D D D D x 3                             ",
"                          O - l D D D D G G k k H 4.z.l.N.l.M.M.B.l.M.B.d.6.H k k D G F D D m l 3 $                             ",
"                            2 8 0 l p z x l 3 k ..d.Z.3X1X1X1X1X1X1X1X3XV.d.K k 3 l x l l x c 8 8 :                             ",
"                            8 7 7 7 8 8 3 : 3 k ..z..X2X4X2X2X2X2X2X2X4X1Xz...k 3 : 3 8 8 9 7 7 7                               ",
"                          O 1 7 C Z C 9 @ O : l K 9.M.Z.V.V.V.V.V.V.Z.V.m.0.K l : O @ 6 0 Z Z A < =                             ",
"                          O , 7 Z Z C 7 @ + ; h D ..8.w.f.d.d.f.d.d.d.q.8...D h : + @ 7 C Z Z 7 1 O                             ",
"                          x c S L C 7 6 @ . $ : h z z J 8.8.8.8.8.8.8.J D D 3 4 & . @ 7 7 C I I c x z                           ",
"                        J 6.q.d...0 6 8 - + + = 3 t t z J | J J | J H l 3 3 3 - + . $ 8 6 0 Y e.z.6.K                           ",
"                        | 8.l.B...x c t o @ C 0 O X : h l x k l h x k t $ X O 0 C @ # 3 k x ..m.l.0...                          ",
"                      l G 6.d.s. .m z r o 6 P L 6 - 8 ; & q q > q q & 4 8 6 6 L P < o 4 p F J 0.f.7.G                           ",
"                      - 2 U 7. .F x 3 O $ : 6 L E E c w 4 u s s v h w h U E E L 6 4 $ + - p } } ..S 9                           ",
"                      # 9 b.n.I.b.T , o 3 p f T E U U ! c.J.L.L.L.D.x.E U E E T d l 3 o o E n.n.I.b.9                           ",
"                        V n.Y.6XY.W + - z ..0.r.E 0 U c.L.U.R.R.R.U.D.x.S C ~ t.0...z 3 O W Y.T.6Xn.V                           ",
"                        B V n.Y.n.V o p ..9.m.J.~ @ 0 T ^ Q Q Q Q ^ T I - 0 S.P.m.9...D 4 V b.Y.n.S                             ",
"                            U W V 2 l o.q.d.t.L.c.3 c Y  .%.%.%. .d z G r I H.J.t.z.s.4.H 2 V W W                               ",
"                              @ O t ..8.l.M.c.S.r.G ! t.s.m.V.m.s...Y ! R Y A.S.r.N.f.0.X.k O                                   ",
"                                  z J 9.f.P.S.! v Y S.b.s.m.C.B.s. .^ A.! M S c.K.Z.f.s.X.m                                     ",
"                                  k N ..e.J.H.C # Y L.F.0.m.C.B.4.[ Y K.c.e # x.L.b.8.X.H l                                     ",
"                                  c x z ! S.A.0 q 5.D.F.t.l.m.s.F J Q S.r.a % ! G.c.E D x c                                     ",
"                                  U U U S.c.0 p / *.5.c.J.z.%.F F Q L.! #.&.) 3 E G.~ t c U                                     ",
"                                  U U E x.T & g ) @./ e.b.F.b.c.A.b.r.6.[ O.f * k x.! U U U                                     ",
"                                    U E 0 y M { _ s +./ K G.H.H.J.r.a [ ) s { _ s h U E U                                       ",
"                                    8 < + * { ^.u.e ( e ( u.7.S w.7.e / w ( ^.i.u X @ < 8                                       ",
"                                    + . . . b E.^.i.i.p.i.u.a # ] u.p.p.i.p.^.y.* . . . O                                       ",
"                                  + . . . . % ' E./././.^.u.y % ' E././././.u.n . . . . . O                                     ",
"                                . . . . . . o v y.i.i.p.u.' w X a y.i.i.i.u.` w . . . . . . O                                   ",
"                              O . . . . . # w w n ' y.y.` v # X w ( ' y.$.( v w % X . . . . O                                   ",
"                              O . . . . . w n ( n ( y.' n n w X e n ( y.' b b ( v # . . . . +                                   ",
"                                . . . . . > b $.y.y.y.y.$.( % O e ` y.y.y.y.y.` y o . . . . O                                   ",
"                                O . . . . % ( u.p.^.^.^.p.` O . w u.^.^.^.E.i.' y X . . . .                                     "
};
