/* XPM */
static char *up_move_021676416144[] = {
/* columns rows colors chars-per-pixel */
"64 64 236 2 ",
"   c None",
".  c #010202",
"X  c #060B0C",
"o  c #0B0C0C",
"O  c #090905",
"+  c #140D06",
"@  c #0D110E",
"#  c #021009",
"$  c #15120C",
"%  c #070C15",
"&  c #0D1414",
"*  c #0D141A",
"=  c #0C1B1C",
"-  c #0A1614",
";  c #131513",
":  c #141A14",
">  c #151C1B",
",  c #191D19",
"<  c #161819",
"1  c #251B0E",
"2  c #301C17",
"3  c #1B221D",
"4  c #16221B",
"5  c #0E201F",
"6  c #2B210D",
"7  c #33250D",
"8  c #38280E",
"9  c #23241B",
"0  c #282416",
"q  c #342A14",
"w  c #332916",
"e  c #3B331B",
"r  c #35301D",
"t  c #141925",
"y  c #171C27",
"u  c #0A182D",
"i  c #122324",
"p  c #1E2521",
"a  c #1D2B23",
"s  c #152D2D",
"d  c #1C252C",
"f  c #1D2534",
"g  c #1B3434",
"h  c #1E363B",
"j  c #1E393B",
"k  c #1A3938",
"l  c #132E2C",
"z  c #222B24",
"x  c #252924",
"c  c #253429",
"v  c #28362C",
"b  c #2A3A2E",
"n  c #253125",
"m  c #373728",
"M  c #242A38",
"N  c #2C3D31",
"B  c #213B3E",
"V  c #213038",
"C  c #353729",
"Z  c #462C0C",
"A  c #442A16",
"S  c #493718",
"D  c #573919",
"F  c #463D27",
"G  c #58382C",
"H  c #461F18",
"J  c #2E4234",
"K  c #314436",
"L  c #33453B",
"P  c #364B3D",
"I  c #3A493B",
"U  c #51441C",
"Y  c #494429",
"T  c #574A27",
"R  c #5D502A",
"E  c #454A36",
"W  c #585938",
"Q  c #4E5339",
"!  c #675728",
"~  c #715E29",
"^  c #684E37",
"/  c #5B613C",
"(  c #756732",
")  c #604F1F",
"_  c #132E4A",
"`  c #233C42",
"'  c #2A3545",
"]  c #333A4C",
"[  c #2B3E51",
"{  c #2A434D",
"}  c #264248",
"|  c #394E42",
" . c #314B4E",
".. c #3C5245",
"X. c #395549",
"o. c #2D4A56",
"O. c #2F4D59",
"+. c #294652",
"@. c #314D5D",
"#. c #384558",
"$. c #36545D",
"%. c #2E535D",
"&. c #334F61",
"*. c #355364",
"=. c #375669",
"-. c #385669",
";. c #395A6C",
":. c #385967",
">. c #3C5D71",
",. c #275869",
"<. c #3D6172",
"1. c #3E6876",
"2. c #3C656D",
"3. c #275457",
"4. c #425A4C",
"5. c #495B4D",
"6. c #475746",
"7. c #455D52",
"8. c #555D4D",
"9. c #556848",
"0. c #4B6354",
"q. c #4C655A",
"w. c #4E685D",
"e. c #466157",
"r. c #546B5C",
"t. c #4C6343",
"y. c #6A6F52",
"u. c #4B5672",
"i. c #4A546F",
"p. c #496964",
"a. c #546E61",
"s. c #586166",
"d. c #557163",
"f. c #5B7465",
"g. c #5C7869",
"h. c #436C7C",
"j. c #456678",
"k. c #43727D",
"l. c #58617F",
"z. c #637C6B",
"x. c #627967",
"c. c #816D32",
"v. c #857339",
"b. c #937D3A",
"n. c #816C2F",
"m. c #857841",
"M. c #896D50",
"N. c #AB7C5C",
"B. c #69816E",
"V. c #67816F",
"C. c #6D8572",
"Z. c #678270",
"A. c #718A75",
"S. c #758F7A",
"D. c #7E8361",
"F. c #9B823B",
"G. c #B1963E",
"H. c #9C8746",
"J. c #8F8756",
"K. c #A38D43",
"L. c #AC9647",
"P. c #B29947",
"I. c #AB9058",
"U. c #B9A94B",
"Y. c #A7966F",
"T. c #998B6D",
"R. c #E1AA7A",
"E. c #5B6481",
"W. c #467482",
"Q. c #4A7986",
"!. c #4A7D8B",
"~. c #477885",
"^. c #487382",
"/. c #636C8D",
"(. c #6D779A",
"). c #737B9F",
"_. c #515E81",
"`. c #3B8191",
"'. c #4D818E",
"]. c #4E8592",
"[. c #488694",
"{. c #518693",
"}. c #518995",
"|. c #568E9A",
" X c #5C8E9A",
".X c #5A939D",
"XX c #5C999F",
"oX c #508A90",
"OX c #7D9A82",
"+X c #769C9E",
"@X c #69989C",
"#X c #5C9AA2",
"$X c #5C99A5",
"%X c #639BA4",
"&X c #659BA4",
"*X c #6BA4AE",
"=X c #67A6A8",
"-X c #6EA9B1",
";X c #6DA7B0",
":X c #74ADB6",
">X c #71A7B0",
",X c #75B4BA",
"<X c #7AB3BC",
"1X c #7ABBBD",
"2X c #74B7BA",
"3X c #6DB0B2",
"4X c #68A69F",
"5X c #7DBCC0",
"6X c #7BC4C3",
"7X c #7BC8C5",
"8X c #819D85",
"9X c #85A289",
"0X c #8BA98F",
"qX c #87A48B",
"wX c #8CAB90",
"eX c #91BAB9",
"rX c #D6A880",
"tX c #B9C7B3",
"yX c #D0D7BE",
"uX c #E4D9BA",
"iX c #83CEC6",
"pX c #85CDC9",
"aX c #82C4C4",
"sX c #84D1CA",
"dX c #8AD6CE",
"fX c #97D3CA",
"gX c #92D2C9",
"hX c #BBDBC7",
"jX c #B5CDC2",
"kX c #97E2D5",
"lX c #8CE1D6",
"zX c #BDE0CC",
"xX c #CEDFC6",
"cX c #C7E6CD",
"vX c #D6E3C7",
"bX c #E3E0C3",
/* pixels */
"                                                                                                                                ",
"                                                                                                                                ",
"                                                        ;.-.:.:.-.i.                                                            ",
"                                                :.oX4X=X@X X X X X X&X=X>X@X{.k.=.                                              ",
"                                           .j.Q..X1XdXsX5X:X:X:X:X:X1XpXdXpX<X=X!.j.j.j.<.7.                                    ",
"                                        :.k.=XiXsXiX<X=XXXXX.X.X.X.XXX=X1XiXdXsX1X>X>X%X'.Q.:.V g                               ",
"                                      :.~.#X5XpX1X-X%X{.'.].].].].}. X*X:XaXpXpXaX5X-X XW.1.$.                                  ",
"                                    -.!.&X,X2X;X|.oX}.}.}.}.}.}.].}.&X:X:X<X<X<X<X*X}.1.O.`                                     ",
"                                  =.~.3X7X5X*X|.{.{.}.}.}.}.}.}.}.}.|. X X*X5X5X*X}.1.o.B                                       ",
"                                  1.=X7XaX-X.XoX}.}.}.}.}.}.}.}.}.}.].].[.|.*X5X5X=X~.,.{                                       ",
"                                +.'.fXfX3X[.[.}.{.}.}.}.}.}.}.}.}.}.}.}.}.}.&X7XkXfX&XW.@.`                                     ",
"                                3.@XyXcX7X.X`.}.}.}.}.}.}.}.oX}.].}.}.}.].$X5XsXcXxXeX|.*.B                                     ",
"                              g ,.=XjXcXxXtXeX$X].].].].'.].`.`.`.].].}.%X2XfXxXxXcXdX3XW.}                                     ",
"                              s :.$X7XzXbXuXjX,X$X#XXXXXXX&X+X+X+X%X.X#X-X6XkXvXhXdXpX:X!.%.                                    ",
"                              ; %.$X7XdXeXeXeX5XiXiXiXiX7XfXyXuXyXfX6X-X$X*XaXfXgX,X:X%X'.>.                                    ",
"                              @ %.$X7X5X$X$X%X;XaXlXlXkXlXkXcXcXzXfX2X%X|.|.;X6X,X$X|.|.'.<.#.                                  ",
"                              o O.|.;X&X}.].]..X;X6XiXiXiXiX7XsX7X,X%X].!.]..X;X%X}.{.}.'.$.'                                   ",
"                              o ` h.|.|.}.].].}.|.#X#X#XXX%XXX#X#X.X|.'.1.W.}..X].'.}.{.W.} 3                                   ",
"                                V @.1.!.|.}.}.}.}.~.W.!.].].].].].].}.'.>.>.W.].W.h.].!.*.i &                                   ",
"                                a h &.h.].}.}.}.}.h.>.'.}.}.}.{.}.}.}.].<.&.;.h.:.*.'.h.` i                                     ",
"                                ; i @.>.1.].}.}.}.h.<.'.}.}.}.}.}.}.}.'.<.*.-.-.} +.~.2.c                                       ",
"                                o - [ %.;.h.].}.~.<.;.h.!.}.}.}.{.~.'.].<.=.-.-.{ } :.O.g                                       ",
"                                  X s o.-.-.h.!.<.*.&.=.W.}.|.{.Q.-.h.!.<.-.=.O.h s } j i                                       ",
"                                  X s o.-.-.;.>.=.+.[ *.W.}.}.~.=.} @.;.=.=.O.` = X i 5 o                                       ",
"                                  ; = j O.-.@.o.*.+.h } ;.!.].W.@.B k +.:.@.B g 5 . X &                                         ",
"                                    : 5 j O.+.` *.o.g g +.<.].^.*.B g ` *.o.g g 5 X , n                                         ",
"                              K K K J 3 = k j ` *.o.g g { <.].W.*.` s k @.+.g g * ; J | P                                       ",
"                            L | X.X.P n @ - s B +.j i g ` %.h.<.{ k i = k ` g * X z 7.q.7.L                                     ",
"                          L | r.d.r.P c , O = g g 5 % g g ` O.+.g g i X s s 5 @ $ N 7.f.g.r.6.                                  ",
"                          ..q.z.B.x...n 3 , & = g 5 # l k g ` j k g - X s i O 3 K 6.r.z.A.C.r.L                                 ",
"                        K 0.z.A.B.f.0.L c 3 ; ; i * . = g g g g g = . X 3 3 3 b 0.z.z.C.C.C.g.4.v                               ",
"                        N 0.z.A.x.w.w.4.J z 9 z z 3 @ O = s s = % O ; a c z z ..x.S.8X8X8Xz.f.7.v                               ",
"                        x N 5.z.g.w.q.4.J 9 c K J N b , o X ; > 4 n N | L c v 7.a.B.OX0XS.f.7.4.c                               ",
"                        9 3 N 0.0.4.4.P c 3 v K K ..X.| ] L 4.7.7.7.q.7.P N K P ..6.5.5.4...P K n                               ",
"                          p z b K K K b 3 a b K P 5.r.a.r.d.x.f.g.f.g.a.4.L b K J b a 4 a n J J z                               ",
"                          z 3 p b K K c z b K P 7.f.Z.B.C.A.A.S.A.A.A.C.d.I a b K b a 4 4 3 b J z                               ",
"                          w 0 0 n b b z z K J ..d.S.8X9X0X0X0XwX0X0X0XqXA.5.; , z z 3 0 6 0 9 z                                 ",
"                        w 7 6 7 7 3 , > z b J P x.OX0X9XqXqX8X8X9X9XqX8XC.5.p p < : 9 q Z Z r 0                                 ",
"                        8 7 7 8 7 6 + . @ 3 b I q.B.C.B.z.z.C.Z.B.z.B.x.w.X.N z % O 7 S D D A 7                                 ",
"                      w Z Z A 8 7 7 O . . , z J X.7.0.r.d.d.a.a.d.d.q.6...K z p @ + Z D D D A 8                                 ",
"                      q F T F q 6 6 + O . * , z N c b X.4.4.X.4.4.4.L n c z 3 & . + Z Z Z S E L x                               ",
"                      9 5.5.C x $ $ x < . O ; p p > a J K K K K K K v p , > , ; O O 8 e m E 4.5.p                               ",
"                      > | X.J N 4 . < @ $ S r X . % p z z p p p z z p > X . $ x : @ v | q.z.g.7.3                               ",
"                      ; m E I N z o . . 6 ) U 7 q r p > t t t t t * > x q 6 : 9 $ : J X.p.g.a.X.>                               ",
"                      1 G ^ G 9 > x X @ 4 6 U ~ ~ R m m Q / / / W Y F Y ~ R m & & z C 8.y.s.8.v -                               ",
"                      2 H A H + o , ; 9 c N W ~ R R ~ b.L.U.U.U.U.H.( R T R ! N i x G M.N.I.^ , &                               ",
"                        $ o O . . O 4 b X.e.r.y.( ~ ) v.L.U.U.U.P.F.( T C e ! ( W v G N.R.R.M.$                                 ",
"                              O . o v X.e.a.g.J.U.( 0 Y Q t.9.9.t.6.t.Q C < U K.v.C G N.rXrXM.$                                 ",
"                              o & v ..e.d.x.y.( U.m.d Y W e.d.g.d.e.8.! x % F P.H.T r ^ M.M.G o                                 ",
"                              @ a P 0.w.d.Z.D.F.H.W I v.y.d.Z.A.Z.d./ ~ r % m v.F.v.E C H A 2                                   ",
"                                b | q.w.a.x.I.L.F u Q P.H.p.V.A.B.r./ ! r t t < v.P.y._ O O                                     ",
"                                a J e.w.q.y.K.L.r u s.L.J.w.V.A.z.4.W ! C t * o v.P.9.l $ $                                     ",
"                                C m | } Q b.F.( x _ p.M.J.J.B.p.7.E c.F.e % - O ~ H.E = 3 m                                     ",
"                                T ! m c R K.n.q s o.=.i.D.I.y.9./ ( F.F.r % = O D ! m 5 x                                       ",
"                                  T ! ! ! W r X s @.=.,. ./ K.P.G.P.v.e y f d X + 1 C C                                         ",
"                                    U T U w o . u j *.j.;.s.T.Y.Y.J.R * f M f o . O ,                                           ",
"                                    O . O . . . . X ] /.).(.(.)./.' t f M M f o . . . @                                         ",
"                                  O . . . . . . . . x u.E._._.E.u.f u M M y % . . . . O o                                       ",
"                                  . . . . . . . . X y ' ' ] ] ] ' f y y y * . . . . . . O                                       ",
"                                o . . . . . . . . * M ] ] #.i.i.] ' y % o . . . . . . . X                                       ",
"                                  . . . . . . . . X ] /.(.(.(.(./.i.M . . . . . . . . . O                                       ",
"                                  O . . . . . . . X ] E./.E.l.l.E.u.' . . . . . . . . .                                         ",
"                                    X O O . . . . * M #.] t < t M #.M O . . . . O . O                                           ",
"                                            O . . o t y * . . . o y t . . . O                                                   "
};
