/* XPM */
static char *left_idle1676416099[] = {
/* columns rows colors chars-per-pixel */
"64 64 245 2 ",
"   c None",
".  c #010101",
"X  c #0B0905",
"o  c #040509",
"O  c #070B0C",
"+  c #0A0B0C",
"@  c #0B0706",
"#  c #0B120E",
"$  c #16130D",
"%  c #0B0E13",
"&  c #0D1414",
"*  c #0B1619",
"=  c #121515",
"-  c #151A15",
";  c #151A1A",
":  c #150D09",
">  c #251A0B",
",  c #271E15",
"<  c #1D231E",
"1  c #14221C",
"2  c #0C201F",
"3  c #35260E",
"4  c #2B2415",
"5  c #262419",
"6  c #392914",
"7  c #39331C",
"8  c #2B2612",
"9  c #0C152C",
"0  c #161A24",
"q  c #191E2A",
"w  c #161922",
"e  c #091A37",
"r  c #1C2521",
"t  c #172729",
"y  c #1C332B",
"u  c #1E2431",
"i  c #182C34",
"p  c #1B3535",
"a  c #1F383E",
"s  c #193737",
"d  c #082930",
"f  c #232B24",
"g  c #282927",
"h  c #382B26",
"j  c #2B3B2F",
"k  c #26352A",
"l  c #373726",
"z  c #242B3A",
"x  c #222835",
"c  c #2C3E32",
"v  c #243836",
"b  c #3E3634",
"n  c #432E13",
"m  c #473818",
"M  c #543719",
"N  c #4A2E0A",
"B  c #463628",
"V  c #543B24",
"C  c #4A3B32",
"Z  c #2D4133",
"A  c #2A453A",
"S  c #324536",
"D  c #32463B",
"F  c #38493A",
"G  c #4A4427",
"H  c #574C28",
"J  c #494738",
"K  c #5A5A34",
"L  c #545334",
"P  c #645527",
"I  c #774C35",
"U  c #685535",
"Y  c #73522D",
"T  c #74632D",
"R  c #776C3A",
"E  c #766832",
"W  c #51421B",
"Q  c #173744",
"!  c #152D4C",
"~  c #223C42",
"^  c #2B3848",
"/  c #32394C",
"(  c #313749",
")  c #373E54",
"_  c #212841",
"`  c #182E56",
"'  c #1C4452",
"]  c #25424B",
"[  c #29424D",
"{  c #294744",
"}  c #374B43",
"|  c #3C5246",
" . c #3A554A",
".. c #2B4551",
"X. c #2E4B59",
"o. c #2B4A55",
"O. c #314E5D",
"+. c #3A4459",
"@. c #2A5257",
"#. c #335553",
"$. c #384C62",
"%. c #2C5567",
"&. c #345363",
"*. c #38576A",
"=. c #34596B",
"-. c #395C6C",
";. c #345868",
":. c #3A5E71",
">. c #254B64",
",. c #3D6374",
"<. c #396776",
"1. c #3C626B",
"2. c #2D535E",
"3. c #425A4D",
"4. c #455649",
"5. c #555C45",
"6. c #445D52",
"7. c #4D5F51",
"8. c #4C504D",
"9. c #645448",
"0. c #4B6559",
"q. c #4A6458",
"w. c #556B5A",
"e. c #5F6950",
"r. c #756549",
"t. c #67735A",
"y. c #70704F",
"u. c #454C65",
"i. c #4A536D",
"p. c #4F5874",
"a. c #496964",
"s. c #556B62",
"d. c #5A7464",
"f. c #587668",
"g. c #426C7B",
"h. c #436978",
"j. c #48727D",
"k. c #637C6A",
"l. c #697A69",
"z. c #6B6E74",
"x. c #845936",
"c. c #8A7737",
"v. c #8B7134",
"b. c #977758",
"n. c #897049",
"m. c #A8764C",
"M. c #B37C50",
"N. c #8F7564",
"B. c #69826E",
"V. c #6C8773",
"C. c #74907A",
"Z. c #998439",
"A. c #A2893D",
"S. c #AB983C",
"D. c #B7A235",
"F. c #978A51",
"G. c #A58E45",
"H. c #AB9443",
"J. c #B39A49",
"K. c #B49456",
"L. c #B6A654",
"P. c #89946C",
"I. c #B8926B",
"U. c #BCB567",
"Y. c #B6B977",
"T. c #9EAA78",
"R. c #CCB74C",
"E. c #C9B34D",
"W. c #C79569",
"Q. c #D39B69",
"!. c #CD9E74",
"~. c #CCA27C",
"^. c #D7A97E",
"/. c #D8C352",
"(. c #DAC562",
"). c #467482",
"_. c #497684",
"`. c #4C7B86",
"'. c #4A7C89",
"]. c #467A88",
"[. c #566E8D",
"{. c #636B89",
"}. c #6F768D",
"|. c #3B8090",
" X c #4B818E",
".X c #43808E",
"XX c #4E8592",
"oX c #498694",
"OX c #518793",
"+X c #518995",
"@X c #548D99",
"#X c #5D8D99",
"$X c #5A929D",
"%X c #55919C",
"&X c #52858F",
"*X c #61939D",
"=X c #798B96",
"-X c #5E9BA2",
";X c #5A98A4",
":X c #639AA5",
">X c #639BA6",
",X c #7E86A3",
"<X c #6AA4AD",
"1X c #67A3A8",
"2X c #6BA8B1",
"3X c #73ACB4",
"4X c #75ADB6",
"5X c #76B4BB",
"6X c #76B7BA",
"7X c #6EB1B3",
"8X c #7EC4BE",
"9X c #7CBBC1",
"0X c #7AC1C0",
"qX c #818793",
"wX c #84A28A",
"eX c #8EAB90",
"rX c #939AB6",
"tX c #8B91A8",
"yX c #89B7B8",
"uX c #9AB1B9",
"iX c #ACB3AD",
"pX c #A4A29F",
"aX c #C9A885",
"sX c #DAAE84",
"dX c #E4B58A",
"fX c #E8BE93",
"gX c #CDB7A7",
"hX c #A8C6B9",
"jX c #D8D1BB",
"kX c #EDC9A3",
"lX c #F2CDA4",
"zX c #F5D4AB",
"xX c #F9DBB3",
"cX c #E6C39C",
"vX c #92B3C3",
"bX c #A9B1CD",
"nX c #84CAC7",
"mX c #85D0CA",
"MX c #8AD6CE",
"NX c #99D5CD",
"BX c #8CD9D0",
"VX c #B7D7C5",
"CX c #CED1C3",
"ZX c #C1E2CD",
"AX c #C6CEE5",
/* pixels */
"                                                                                                                                ",
"                                              o.&.&.h.'.B. X X`.h.&.O.[ v                                                       ",
"                                  p   ^ O.1.;.j.*X1X7X6X7X6X6X2X*X#X#X`.;.] /                                                   ",
"                              @.#.i.h.j.+X$X-X2X6XnXmXmXmXmXnX6X4X5X4X<X@Xj.h.=.[                                               ",
"                          O.h.&X<X2X4XnXnXmXmXnX6X1X-X-X-X-X$X$X$X$X$X<X4X4X:X_.=.^                                             ",
"                          ~ O.g.#X>X3XnXmXmXnX6X*X&X X XXX XoX XXXXXXX$X<X<X<X:X'.=.[                                           ",
"                          & = i ..,.OX2X6X9X6X<X+X X+X+X+X+X+X+X+X+XOX+XOX+X<X6X>X`.&.                                          ",
"                            + # i o.h.OX5XmX6X1X&X+X+X+X+X+X+X+X+X+X+X+XXXOX7XmX6X-X1.p                                         ",
"                            ; t ^ &.].1XNXZXyX2X;X-X1X1X@X+X+X+XXX+X+X+X X|.7XBXnX3X`.[                                         ",
"                            v ] *._.-XmXZXjXuX6XnXvX5X2X+X+X@XoX+X@X+X@X*X*XyXMX6X6X#XO.~                                       ",
"                            ] *.`.:X6XMXNXyX-XhXCXNX6X+Xh.#X3X%X:X<X%X;XyXjXhX5X>X5X*XO.v                                       ",
"                          s [ ,.OX>XnXBX0X%XoXuXZXNX2X].=.#XuXhXhX0X;X@XyXZXhX;X$X4X*XO.Q                                       ",
"                            [ -. X:X6XMX7XoX'.7XBX6X>X_.=.oXyXCXZX0X$X].-XnX6X+X$X2X#XO.a                                       ",
"                            k o.`.@X:X6X2X'.,.*X6X1X`.*.~ ,.:XyXNXmX'.<.%X5X1X+X@X$X].$.~                                       ",
"                              ] h.'.@X>X-X'.-.&X:X'.%.^ h a.@X;X0X6Xj.,.@X>X$X'._.XX).O.v                                       ",
"                              v O.g. XOX@X X,.g.`.;.] C Y z. XoX2X2Xj.g.@X+X+Xg.:.].).&.~                                       ",
"                                ~ X.g.XX@X'.,.*.=.] b I M.N.<.|.<X3Xj.g.OXOXOX).=.:.:.&.~                                       ",
"                                  v X.g.XXXXh.X.Q t , V x.9.:. X:X*X*.;._.OX@X).*.&.O.] i                                       ",
"                                  y p X.g.].%.^ g + . o g / i. X+X).] ~ g.XXOXg.*.*.o.y O                                       ",
"                                  = * i %.<.' b V : . g z.s.@. X'.;.~ [ ). Xg.*.*.=.o.y O                                       ",
"                                    : h i ^ r.m.x.H > 9.iX}.Q <.,.] s O.].XX,.&.&.X.v 0 =                                       ",
"                                    > I 9.r.K.W.W.Y N n.CXpXF +.] p p X.j.'.-.&.&.~ * O                                         ",
"                                    6 m.W.~.sXdX!.I 6 r.CXgXm.C d s p ~ #.-.] o.&.] 2 O                                         ",
"                                  : B W.fXlXkXlXgXaXaXaXjXcXQ.C d s p p ..&.Q ] ] t -                                           ",
"                                    B ~.lXxXxXxXxXxXxXxXxXlXaX8.9 s s s ' O.~ p t &                                             ",
"                                    B aXlXxXxXxXxXxXxXxXxXlXaX8.g C s s Q ~ p t &                                               ",
"                                    C n.aXlXxXxXxXxXxXxXlXdX!.b.I C s s s p 2 *                                                 ",
"                                      ; n.sXkXlXzXzXzXkXdXQ.K.M.I h i s s p ; -                                                 ",
"                                    ; - 5 I W.^.fXfXsXQ.W.m.I I B ; r c Z S j k ; f                                             ",
"                                  } } c & $ Y n.b.b.n.x.x.I B 6 f F q.w.w.w.3.| } j f                                           ",
"                                F 3.0.F k - # X @ + @ X ; k j y D s.V.V.B.B.s.w.q.| c f                                         ",
"                                S 4.0.} f < y - . . O = y A Z A q.d.V.V.k.f.w.0.0.q.| c f                                       ",
"                                k F | Z y A | S 1 1 k A | | F j } B.wXwXV.B.k.d.w.a.3.Z f                                       ",
"                                < k j 1 F B.B.q.A D q.B.f.d.} - y B.eXwXC.B.B.w.0.0.3.Z f                                       ",
"                                < f 1 > 6.C.=XV.q.f.=XwXwXC.4.1 k q.d.q.3.| F F | q.3.Z f                                       ",
"                                  < 1 1 s B.Y.U.L.U.T.eXeXeXk.D k S F Z Z Z S S S 4.| j f                                       ",
"                                    g l F Z.L./././.L.C.eXeXV.6.k f S S Z Z Z Z Z Z S Z r                                       ",
"                                      P S./.A.T K K G.L.K.P.d.7.k y S S Z f f f f r j Z ;                                       ",
"                                      W E Z.K p Q A R Z.v.E r.5.l k k j k 5 > 8 4 5 5 r 1                                       ",
"                                      + X = Z q.s.s. .A F H P H l f < 5 8 3 6 8 8 3 > $                                         ",
"                                      @ = s #.k.k.B.k.s. .F 7 7 5 r 5 4 6 m M N 3 3 4                                           ",
"                                      5 G K 5.7.a.f.f.s. .{ y y r = $ 8 N M M M n 3                                             ",
"                                    D k m T v.R t.t.w.4.F Z j j f = $ 8 m V G W m 6                                             ",
"                                  3.6.c $ W A.R.E.G.E P P 7 # - l 7 l j 4.7.F 7 3 3 4                                           ",
"                                   .w.n.W , R H.Z.c.D.D.A.c.H & < g k s q.d.q.D 7 > -                                           ",
"                                F  .t.J.v.& s Q e G L.E.S.S.c.7 1 = 5 J t.d.q. .j # +                                           ",
"                                q.5.c.J.v.i >.>.>.X.7.G 6 m H H 4 o 7 m.b.d.@.D Z # + r                                         ",
"                                q.y.Z.n.m d o.X.;.=.` ! e 9 P F.5.* B W.~.I.n.U 1 & 7 G 6                                       ",
"                                7.F.H.L d 2 p y ] &.&.;.%.' n.K.d.d G ~.dXdXQ.x.@ - H P ,                                       ",
"                                K G.J.L s v x t p ~ ~ X.=.>.F.K.t.@.e.I.^.dXQ.x.@ - H P >                                       ",
"                                m T R F y < ^ p.i.^ t ^ =.%.e.n.L.C.l.N.b.b.v.L ; * T c.6                                       ",
"                                $ r Z k - + / {.[.+.w i $.*.>.e./.U.k.a. .j 1 v v g c.J.7                                       ",
"                                  = % =   w ( i.p.+.w O / p.[.}./.L.y.k.B.f.3.A S H A.H.m                                       ",
"                                              ( ) ( q ( {.rXbXtXF.D.D.y.w.d.1.4.U Z.Z.T 7                                       ",
"                                              x u u u $.,XbXAXrX+.Z.R.A.n.B.t.r.c.A.E 8                                         ",
"                                            % q x u x x u.}.bXrX+.5 R R.(.R.E.J.S.H 7                                           ",
"                                          + x i.u.x x % w ( {.}.u.i ) G.H.A.v.v.T > .                                           ",
"                                        0 ; ) {.p.u u w o % % q ) u.$._ w % X X X . . o                                         ",
"                                      q ) / ( i.+.x x w o % q u $.u.$._ 9 9 o . . . . . o                                       ",
"                                    + * ) ( z / ( x 0 o * ) qXuXtX{.) _ x x 0 % . . . . .                                       ",
"                                    $ + q u u u u u o o w u.rXAXbX,Xu.^ x z x 0 . . . . .                                       ",
"                                      . o O O X o o . . w ) p.}.bXrX{.i./ z x 0 . . . . .                                       ",
"                                      + . . . . . . . . x z.{.i.{.}.}.i.u q 0 % . . . . +                                       ",
"                                        + o o o . . . . x }.tX{.( p.{.( O o . . . o o X                                         "
};
