/* XPM */
static char *left_move_011676416099[] = {
/* columns rows colors chars-per-pixel */
"64 64 250 2 ",
"   c None",
".  c #020202",
"X  c #070B0B",
"o  c #0B0C0C",
"O  c #04050A",
"+  c #120C08",
"@  c #0A120E",
"#  c #17130C",
"$  c #0B0C10",
"%  c #000C15",
"&  c #0D1312",
"*  c #0A1818",
"=  c #131414",
"-  c #13161C",
";  c #131B19",
":  c #1A1B1B",
">  c #151A16",
",  c #271E0B",
"<  c #251D15",
"1  c #17231D",
"2  c #2B220D",
"3  c #36260E",
"4  c #282518",
"5  c #392916",
"6  c #393318",
"7  c #151A22",
"8  c #1A1C23",
"9  c #080C32",
"0  c #1D2421",
"q  c #1D2A23",
"w  c #16272A",
"e  c #1D332E",
"r  c #1D2431",
"t  c #1A2D36",
"y  c #1B3434",
"u  c #1E373C",
"i  c #183638",
"p  c #0C2B2F",
"a  c #232523",
"s  c #232B25",
"d  c #272B29",
"f  c #24332B",
"g  c #29342D",
"h  c #29382B",
"j  c #363829",
"k  c #232936",
"l  c #252B3A",
"z  c #252A3A",
"x  c #243332",
"c  c #2A3330",
"v  c #2B3D32",
"b  c #223A3E",
"n  c #28363C",
"m  c #333833",
"M  c #362E2A",
"N  c #473619",
"B  c #533818",
"V  c #442E11",
"C  c #453827",
"Z  c #473833",
"A  c #5A3727",
"S  c #643C2F",
"D  c #2D4234",
"F  c #27433C",
"G  c #314436",
"H  c #33473A",
"J  c #344A3C",
"K  c #3C4A3A",
"L  c #37412E",
"P  c #45442A",
"I  c #534828",
"U  c #5C5229",
"Y  c #494A36",
"T  c #544939",
"R  c #5B5733",
"E  c #4C593F",
"W  c #675828",
"Q  c #665A35",
"!  c #744E32",
"~  c #7B6629",
"^  c #766836",
"/  c #6C653B",
"(  c #5B5529",
")  c #1A3B49",
"_  c #12374A",
"`  c #223D43",
"'  c #2A3848",
"]  c #333A4D",
"[  c #343845",
"{  c #303F56",
"}  c #171F4D",
"|  c #1A464F",
" . c #2A434C",
".. c #264347",
"X. c #384B44",
"o. c #3A5349",
"O. c #2D4C59",
"+. c #2A4854",
"@. c #324D5D",
"#. c #394557",
"$. c #2E565B",
"%. c #38545A",
"&. c #2B524E",
"*. c #164766",
"=. c #374C60",
"-. c #2B5666",
";. c #345263",
":. c #365669",
">. c #395669",
",. c #355A6A",
"<. c #395C6C",
"1. c #395867",
"2. c #3B5E70",
"3. c #275569",
"4. c #3C6373",
"5. c #3A6C7B",
"6. c #39626A",
"7. c #34695D",
"8. c #445A4D",
"9. c #465848",
"0. c #435D52",
"q. c #495958",
"w. c #504D4F",
"e. c #4C6355",
"r. c #4B6459",
"t. c #49655A",
"y. c #536B5C",
"u. c #586957",
"i. c #4E614C",
"p. c #746C4C",
"a. c #444C62",
"s. c #4A546A",
"d. c #525B78",
"f. c #50586E",
"g. c #4D6D63",
"h. c #536D60",
"j. c #5B7464",
"k. c #5A7769",
"l. c #426C7B",
"z. c #426975",
"x. c #47737F",
"c. c #5C697B",
"v. c #637C6A",
"b. c #767472",
"n. c #715A45",
"m. c #875D38",
"M. c #927C3A",
"N. c #876F34",
"B. c #996B45",
"V. c #97785A",
"C. c #8A704D",
"Z. c #AA7950",
"A. c #967D64",
"S. c #6A836F",
"D. c #798665",
"F. c #6C8875",
"G. c #758F7A",
"H. c #9C8336",
"J. c #AA953C",
"K. c #A2893A",
"L. c #B8A33C",
"P. c #9B8B46",
"I. c #979154",
"U. c #AA9646",
"Y. c #BB8557",
"T. c #AD984E",
"R. c #BAA852",
"E. c #BBA643",
"W. c #95916F",
"Q. c #B5916D",
"!. c #BFB160",
"~. c #C7B34E",
"^. c #CB9B6F",
"/. c #D0A875",
"(. c #C58E5D",
"). c #DAC75A",
"_. c #DBCB63",
"`. c #3A7989",
"'. c #4C5E84",
"]. c #5E6784",
"[. c #457382",
"{. c #4B7A86",
"}. c #4B7B89",
"|. c #477886",
" X c #4C7E8C",
".X c #616A87",
"XX c #717993",
"oX c #4C818E",
"OX c #4E8692",
"+X c #498795",
"@X c #518693",
"#X c #518995",
"$X c #558D9A",
"%X c #5C8B96",
"&X c #5A929C",
"*X c #58959F",
"=X c #55868F",
"-X c #62939C",
";X c #76948F",
":X c #5A98A2",
">X c #4E92A2",
",X c #639AA5",
"<X c #649CA7",
"1X c #7E86A3",
"2X c #6AA3AD",
"3X c #68A5A9",
"4X c #6EABB2",
"5X c #6BA7B1",
"6X c #72ABB4",
"7X c #75AFB8",
"8X c #7EADB0",
"9X c #76B4BB",
"0X c #75BBBA",
"qX c #79B9BC",
"wX c #72ACAD",
"eX c #5FA0A7",
"rX c #7EBDC2",
"tX c #7BC2C3",
"yX c #909193",
"uX c #8CAC92",
"iX c #8EA888",
"pX c #8D96B2",
"aX c #97B1B5",
"sX c #ACB3B4",
"dX c #A39E98",
"fX c #D7AC85",
"gX c #CEA681",
"hX c #E3B68B",
"jX c #E7BD94",
"kX c #E2AE80",
"lX c #B4C7BA",
"zX c #87C1BB",
"xX c #F1CDA4",
"cX c #F5D4AB",
"vX c #F9DBB3",
"bX c #F0D3B1",
"nX c #E8CCA7",
"mX c #DFCDAB",
"MX c #90B4C2",
"NX c #ACB5D1",
"BX c #ACB2CC",
"VX c #84CCC8",
"CX c #87D3CB",
"ZX c #9AD5C9",
"AX c #97D5CC",
"SX c #BBD4C4",
"DX c #ACD2C8",
"FX c #CFD1C9",
"GX c #CCE4CB",
"HX c #D3DCF3",
/* pixels */
"                                              0 1 e ` ' +.z.z.z.l.x.z.#.' ' e w g                                               ",
"                                            n F .. .2.l.x.$X*X-X&X&X@Xx.l.z.&.u n n   c                                         ",
"                                  g w x +.@.;.x.`.oX<XMXVXVXVXVXCXtXwX6X6X2X@X4.@.@...n g                                       ",
"                            > n %.6.x.=X%X-XwX9X0X0XrXrX0X0X0X9X0XwX3X3X2X2X2X<X%X[.,.` x c                                     ",
"                            = t ;.[.,X6X7XtXCXCXCXCX9X,XOXOX#XOXOX#X#X#X@X&X2X9X6X:X{.1...n c                                   ",
"                              8 w ..1.|.$X4XVXrXVXqX,X#XOXOXOX@XOXOXOXOX@X#X&X&X,X6X<X|.,.' x                                   ",
"                                & X w +.4. X3XtXrX5X$X}.OXOXOX#X#X#X#X#X#X#X@XoX&XtXqX,X|.O.e s                                 ",
"                                0 & 7 ` >.}.wXZXZX6X:X$X&X:X$X#X#X#X#X#XOX#XOX X*XCXCXqX:Xl.` n c                               ",
"                                d e ` ;.[.3XAXGXSX9X4X4X7X7X<X$XOX#X@X#X#X#X#XoX*XCXVXqX7X%X=.u x                               ",
"                              c n  .<.}.eXtXAXSXaX8XlXDXVX4X#X}.,X>X+X,X&X#XeXaXlXzX0X2X9X-X@.) f                               ",
"                              x b ;.[.&X9XVXCXrX>X;XFXGXtX*X4.l.4XaXwX8X5X>X5XSXGXaX>X&X7X-XO.u x                               ",
"                              x ` @.[.&X7XVXCXeX+XeXZXAX9X&X4.z.5XlXFXZX4X+X#XzXZX3X+X&X4X%X;.u x                               ",
"                              c n ..z.$X<XqXtX&X[.oX0XrX,X}.-.:.*XaXSXAX0X[.}.4X0X&XoX#X&X}.@.` x                               ",
"                                d e <.oX#X<X6X&X5.z.2X<X|.,.n  .oX3X9XCX3X<.}.3X4X&X}.{.OX[.=.` f                               ",
"                                  y +.z.oX$X&X#Xl.4.OX}.:.) A w.oX$X:X9X%X<.}.$X&X#Xx.<.{.[.;.b x                               ",
"                                  c b @.l.oX#X#X[.<.5.4.] Z m.Z.k.`.&X7X&Xz.}.$XOX#X[.:.<.2.;.` x                               ",
"                                    g b O.z.@X#X[.:.;.) d A m.Z.f.5.&X6X=X<.[.OX#X#X[.>.:.@. .p 0                               ",
"                                      x b O.z.@X|.;.` p o # 3 C %.[.$X:Xl...1.{.#X@Xl.>.:.+.e X =                               ",
"                                        ; t O.[.,.) Z < . . n q.#.5.#X[.$.b @.[.@Xz.<.>.:.O.e X =                               ",
"                                        $ > ' | #.T ! A + # b.yXo.-.}.<.` b ;.}.OX4.;.;.O.u ; : a                               ",
"                                        o 5 A } n.Z.Y.B.B B dXlXs.) 1. .y b @.5.}.<.;.;.) ; @ 1                                 ",
"                                        # U Z.V.^././.Z.V B dXFXW.T ) i y u F @.<. .O.;...* X                                   ",
"                                        # m.^.hXjXjXjXQ.m.n.dXFX/.C.y p i y y +.%.) .. .w ; 1                                   ",
"                                        # V.hXxXvXcXvXxXnXnXbXcXhXV.t p y y y +.@.u y w = >                                     ",
"                                        # V.jXvXvXvXvXvXvXvXvXvXjXA.r M m i i ) ` i w @ :                                       ",
"                                        : C.fXxXvXvXvXvXvXvXvXcXhXW.T S Z t p y w w ; >                                         ",
"                                        d M n.gXxXvXvXvXvXvXxXhX^.(.Z.! m ..F b e * :                                           ",
"                                          - < C.^.jXxXxXxXjX/.^.Z.B.! Z 9.0.e.o.D v f a                                         ",
"                                        d d ; + ! Y.^.gX^.Y.Z.Z.! a ; &.y.v.j.j.y.8.J s a d                                     ",
"                                        d g v > , 5 C C Z 6 N P Z h v q.v.G.G.F.S.h.8.H g s                                     ",
"                                        g G G 1 * % . . . . % p F o.r.r.G.iXuXiXS.h.t.e.H d s                                   ",
"                                        G G v g v D 1 X & 0 v H D 9.r.0.y.S.S.S.S.h.t.t.K f a                                   ",
"                                        G h c o.7.o.J h G o.t.t.8.o.8.K D D D i.k.h.y.r.J f a                                   ",
"                                        G s v j.G.S.7.&.g.G.G.;XS.8.v G D D D J i.y.h.r.K f a                                   ",
"                                        m s h y.W.uXD.D.W.uXuXuXiXu.> q h q 1 q v o.0.9.D s a                                   ",
"                                        s s f F T._.)._.!.W.iXuXuXj.> > > . X & 0 v H v s 1 a                                   ",
"                                        s j Q K.E.L.J.J.U.T.T.I.S.e.h 1 2 2 , # . o 1 q 0 = =                                   ",
"                                          C N.~.L.Y D p Y M.K.H./ E Y j 4 3 3 , + + # 4 1 # o                                   ",
"                                          4 2 N P H o.%.e.8.J Y U W U j 6 3 3 3 3 3 4 4 1 = =                                   ",
"                                          1 X X i 0.k.S.S.j.t.o.P N N d 4 3 V B N 3 2 4 # = a                                   ",
"                                        m - & G 9.u.y.g.k.k.r.o.D e e 4 , 3 B B B B 3 3 < a                                     ",
"                                      m m f M W / Q E i.y.y.9.D v D D 6 3 6 B B B B V 3 d                                       ",
"                                    m v X.p.N.U ~ U.~.R.P.^ Q U 2 1 j h J 8.P P B V j h s d                                     ",
"                                    v H o.I.K.N Q T.!.T.K.J.K.M.~ I h e t.j.0.Y N 2 d G h f d                                   ",
"                                    v K Q ^ ^ D ..-.-._ Y ~.~.U.P.~ a Y j.k.7.o.h @ q G G D 1                                   ",
"                                    ..i.H.~ 6 f _ _ *.*.=.D.p./ / C C B.C.7.| J D @ 1 H G e w q                                 ",
"                                    X.p.T.N.* ) O.+.+. .O.3.3.) | _ Y ^.gXW.V.Q 1 1 h D G P P 4 a                               ",
"                                    T ^ E.p.t +.>.;.` y ) ;.:.:.:._ w.^.jXfX(.! @ e J G D ( W 2 =                               ",
"                                    I ~ H.n.r ) #.>.;.' y u $.<.:.| w.Y.kXfX/ 4 D o.e.0.J R W 2 =                               ",
"                                    I W W Y ' a.a.>.;. .e w u $.:.| j m.Z.V.M e t.j.j.t.J I W , =                               ",
"                                    4 4 L q  ..X.X#.' r t % * u O.O.' u Z I P e.F.F.k.t.K R W , =                               ",
"                                    4 : 1 w [ d.d.a.' r r X . * i >.d.l.W.L.~ u.F.F.k.e.R ~ W , =                               ",
"                                        : - r [ #.] l z r X + d a.pXNXpXyXJ.L.P.u.h.7.8.C.N.N 2                                 ",
"                                          = o r z z z l r $ : [ ].NXHXNX].Q ~.E.^ u.&.Q U.~ # 1                                 ",
"                                          : O O 7 k k r r $ : d ' yXNXpXd.r Y L.~.).R.P.W , . . :                               ",
"                                        [ z : k l z k z r $ = : $ f.1X].=.r 9 p.R.R.E.N.2 . . . $ a                             ",
"                                        #.] ' { ] r k z r o . . . - r ] d.XX.Xa.z z 8 o . . . . . o                             ",
"                                        [ ' z ] ' k k z r o . . . . 7 d.BXNXaX.X} 9 9 9 O . . . . O                             ",
"                                        7 7 7 - 7 7 7 7 7 O . . . . r s.XXsXBXpX'.{ ' r O . . . . .                             ",
"                                        o . . O . . . . . . . . . - ' s.{ s.pXpXXXs.] 8 O . . . . o                             ",
"                                        <         : o . . . . . O 8 f.pX1X].s..XXX{ - o . . . . =                               ",
"                                                    = o o o o o = k a.XXXXf.7 ] f.z . . . o o o :                               ",
"                                                                  : = : : = $ $ = o O O . :                                     ",
"                                                                                                                                "
};
