/* XPM */
static char *up_move_011676416144[] = {
/* columns rows colors chars-per-pixel */
"64 64 234 2 ",
"   c None",
".  c #010101",
"X  c #0C0A05",
"o  c #050B0C",
"O  c #0A0B0C",
"+  c #070806",
"@  c #140B06",
"#  c #08110E",
"$  c #14120E",
"%  c #191508",
"&  c #0A0E12",
"*  c #040B18",
"=  c #0C1413",
"-  c #0D1D1C",
";  c #0C1518",
":  c #121412",
">  c #141914",
",  c #11161D",
"<  c #151C1B",
"1  c #1A1E1A",
"2  c #1C1B16",
"3  c #221A0D",
"4  c #251812",
"5  c #371D16",
"6  c #1C231D",
"7  c #16211C",
"8  c #2B210C",
"9  c #33250E",
"0  c #3A280D",
"q  c #2E2615",
"w  c #23231C",
"e  c #292619",
"r  c #392A12",
"t  c #322A14",
"y  c #3A321C",
"u  c #141924",
"i  c #171B27",
"p  c #091334",
"a  c #0C2322",
"s  c #1D2621",
"d  c #1D2A22",
"f  c #152B2C",
"g  c #17272A",
"h  c #1C2833",
"j  c #1B3534",
"k  c #1E393B",
"l  c #1E3739",
"z  c #133330",
"x  c #222B23",
"c  c #272A24",
"v  c #352F25",
"b  c #26332A",
"n  c #29362D",
"m  c #2A3A2E",
"M  c #253427",
"N  c #373726",
"B  c #242A38",
"V  c #2D3E32",
"C  c #233A3B",
"Z  c #442E13",
"A  c #493819",
"S  c #543717",
"D  c #4F2916",
"F  c #453C27",
"G  c #5B3529",
"H  c #412B20",
"J  c #6B3E2E",
"K  c #2E4234",
"L  c #2D4639",
"P  c #314436",
"I  c #32453A",
"U  c #354A3D",
"Y  c #394A3B",
"T  c #51431C",
"R  c #4A4429",
"E  c #554A27",
"W  c #5D502A",
"Q  c #494936",
"!  c #4C543A",
"~  c #585939",
"^  c #524E35",
"/  c #675727",
"(  c #6C5B2B",
")  c #5A603C",
"_  c #77642C",
"`  c #786934",
"'  c #656133",
"]  c #132E4A",
"[  c #223D42",
"{  c #2A3646",
"}  c #333A4C",
"|  c #353D50",
" . c #1A474D",
".. c #27414A",
"X. c #2A444D",
"o. c #284445",
"O. c #384C42",
"+. c #3C5245",
"@. c #3D5549",
"#. c #3D594D",
"$. c #2D4956",
"%. c #294854",
"&. c #35485A",
"*. c #32535E",
"=. c #324F60",
"-. c #355364",
";. c #365669",
":. c #38576A",
">. c #3A5B6C",
",. c #385867",
"<. c #3C5E71",
"1. c #275269",
"2. c #3D6273",
"3. c #3F6978",
"4. c #376872",
"5. c #3F6059",
"6. c #41564B",
"7. c #425A4D",
"8. c #485746",
"9. c #455E53",
"0. c #545C4E",
"q. c #6C5841",
"w. c #546948",
"e. c #4A6255",
"r. c #4C665A",
"t. c #4D695E",
"y. c #456257",
"u. c #546C5D",
"i. c #556957",
"p. c #566A50",
"a. c #72714E",
"s. c #4B5672",
"d. c #4A546F",
"f. c #4B6A64",
"g. c #536E61",
"h. c #586166",
"j. c #5B7464",
"k. c #587366",
"l. c #436C7B",
"z. c #476979",
"x. c #44717E",
"c. c #58617F",
"v. c #637D6B",
"b. c #637B68",
"n. c #867338",
"m. c #947D3A",
"M. c #826D30",
"N. c #8A734F",
"B. c #A77450",
"V. c #69816E",
"C. c #67816F",
"Z. c #6C8571",
"A. c #6B8672",
"S. c #718A75",
"D. c #748E79",
"F. c #76917B",
"G. c #7E8361",
"H. c #9C843C",
"J. c #B1963E",
"K. c #9B8745",
"L. c #958953",
"P. c #888354",
"I. c #A28C44",
"U. c #AB9547",
"Y. c #B29847",
"T. c #A89757",
"R. c #B9A94A",
"E. c #AE8E6B",
"W. c #998B6D",
"Q. c #D39A69",
"!. c #3F7B87",
"~. c #5B6481",
"^. c #467482",
"/. c #4C7C8A",
"(. c #487885",
"). c #636C8D",
"_. c #6D779A",
"`. c #737B9F",
"'. c #515E81",
"]. c #388192",
"[. c #4D818E",
"{. c #4E8591",
"}. c #488592",
"|. c #518793",
" X c #528995",
".X c #5C8E9A",
"XX c #568D99",
"oX c #5A929D",
"OX c #579399",
"+X c #52858F",
"@X c #67979E",
"#X c #7B9B90",
"$X c #5D9AA1",
"%X c #5C9BA7",
"&X c #6299A4",
"*X c #669EA9",
"=X c #6097A2",
"-X c #6AA4A8",
";X c #6EAAB2",
":X c #68A8B1",
">X c #73ADB6",
",X c #74ABB4",
"<X c #76B3BA",
"1X c #7AB6BC",
"2X c #75B9B9",
"3X c #72B3B2",
"4X c #7CC4BF",
"5X c #7CBBC1",
"6X c #7CC4C4",
"7X c #839F87",
"8X c #85A289",
"9X c #88A68C",
"0X c #8CAB91",
"qX c #94BEBC",
"wX c #83BABB",
"eX c #ABBBAE",
"rX c #E3B387",
"tX c #D5D7BB",
"yX c #80BEC4",
"uX c #82C5C5",
"iX c #82CCC6",
"pX c #84CDC9",
"aX c #89D5CD",
"sX c #85D1C8",
"dX c #9CD8CD",
"fX c #8BDCD2",
"gX c #9AD3C9",
"hX c #ACDBCD",
"jX c #B0D6C5",
"kX c #90E1D6",
"lX c #B8E2CF",
"zX c #CBE5CC",
"xX c #D6E3C8",
"cX c #DDDDC3",
/* pixels */
"                                                                                                                                ",
"                                                                                                                                ",
"                                                            ,.,.,.:.:.                                                          ",
"                                                  *.4.@X-X-X@X.X.X.X.X.X-X-X-X.X/.2.&.                                          ",
"                                              *.l.+X-XpXaXpX<X>X>X>X>X<XiXaXaXuX,XOXx.z.z.z.>.                                  ",
"                                          *.2.|.2XsXpXuX3XoXoXoX$X$XoXoX@X>XuXaXaXuX>X,X-X+X[.x.X.f                             ",
"                                          2.|.,XpXuX3X-XoX[.{.{.|.{.[. X&X,X1XuXpXpXyX<X*X/.3.4.o.                              ",
"                                        l.OX;X5X<X&X X X X X X X|.|.{..X,X>X>X1X1X1X>X=X(.-.X.                                  ",
"                                      4.OX4XpX<X=X X|.|. X X X X X X|.XXoXXX&X>X5X>X$X(.;.[                                     ",
"                                    :. X2XiX2X%X X}. X X X X X X X X X|.{.{. X&X1XuX2XOX2.$.{                                   ",
"                                    -.3XdXiX%X}.|.|. X X X X X X X X X X X|.{.XX2XkXdXwX{.<.}                                   ",
"                                   .4.eXxXdX:X}.}. X X|. X|.+X+X X X|.|. X|.XX;X6XdXxXjX-X3...j                                 ",
"                                   .(.qXzXzXjXeX,XXX}.{. X}.|.}.].].[.[.[.oX:X6XhXzXzXhX4X|.*.j                                 ",
"                                  o.(.2XdXcXcXxXqX-X$X$X$X$X$X-X-X#X*X@XoX-X1XpXlXxXdXaXiX$Xz.X.                                ",
"                                  h (.2XaXgXqXqXwX6XpXsXaX6X6XjXcXcXjXuX<X*X&X1XgXdXuX5X<XOXl.-.                                ",
"                                o f (.<X5X-X%X%X*X<XaXfXkXkXkXlXxXzXhXuX:XoX X&X<X6X:X&XoX X^.-.                                ",
"                                  g ^.*X;XoX{.{.{.%X<XiXsXpXsX6X6X6X5X;XXX[.[.{.*X,XOX{. X Xz.$.                                ",
"                                  u -./.XX X{. X X XoX$X&XoX$X$X%X$X$XOX X^.3.[.XXXX|.{. X[.,.f                                 ",
"                                  g { ,.^.|.XX X X X/.^.(.{.{.{.}.}.{.{. Xx.:.l.[.{.3.(.|.3.[ ;                                 ",
"                                    j ..2./.|. X X X[.<.x. X X|. X X X X X^.;.;.x.l.*.x.[.*.h                                   ",
"                                    = [ ;.2.(. X XXX[.2.^. X X X X X X X X^.-.-.<.-.[ >.(.o.d                                   ",
"                                    o f %.-.2.(.|.{.l.>.2.(.{. X XXX[./.|.^.:.:.;.=.o.$.>.[                                     ",
"                                    o - o.-.;.<./.l.;.-.-.<./.XX{.{.4.>.(.^.:.;.-...f l ..f                                     ",
"                                    . - [ -.:.:.<.<.=...X.<.{. X{.l.$.o.>.>.:.-.X.z o ; f =                                     ",
"                                      ; f o.-.-.$.*.=.[ C *.l.{.[.<...l [ =.;...k z o . #                                       ",
"                                      1 = f X.*.[ %.-.[ z C =.^.{.2.X.j j $.-.[ j h # # M m V                                   ",
"                                      P M = f C l $.-.[ z C *.(.{.z.{ j z X.=.[ z f = x I Y Y Y                                 ",
"                                    +.7.+.1 o a j ..X.f f l X.4.l.*.[ j - f [ k f o > M Y y.y.9.Y                               ",
"                                O.8.u.g.9.n X & f l f # a j j X.&.[ j z & - j f ; : 1 x Y j.v.j.9.U                             ",
"                              P e.v.v.b.9.I x : o f z o a l j k k l j f o - f # $ s x n 6.b.Z.Z.j.7.I                           ",
"                              +.j.S.Z.b.j.i.8.x = 6 g o o g j j l l f o . ; s < 2 s m @.r.g.b.S.v.p.P                           ",
"                            n 9.b.V.D.F.F.S.u.P d 6 6 > + o g f f f # X 6 M n m x x P 7.t.t.b.V.j.6.n                           ",
"                            n 9.e.C.8X0X9XF.j.7.M x P m c : & O o ; d n O.U P I n s m @.e.e.j.j.Y d 6                           ",
"                            b +.@.9.C.S.V.g.e.@.K m Y @.@.O.V V I #.9.y.9.@.P P n 1 s V U O.+.+.M 7                             ",
"                            x P L K m M m K P P K P +.r.g.h.g.u.j.j.j.j.j.r.+.I V b s M P P V d 6                               ",
"                            x K K 6 6 7 6 K P K b U t.v.V.C.v.Z.S.S.S.S.S.v.r.U K V x M P K M w w                               ",
"                              n e e 8 7 6 n m x < 8.v.7X7X7X7X0X9X0X9X0X0X#Xb.Y K K x s d b e t t t t                           ",
"                              w e 0 r q 6 1 1 1 1 9.S.8X0X9X7X8X8X8X8X8X8XF.j.Y V M < : < 4 q 9 9 9 t                           ",
"                              t Z S S r 3 @ & s V 7.j.S.F.D.Z.v.V.V.V.V.V.k.e.Y M 2 + . X 5 9 9 9 9 r                           ",
"                              8 D S T S Z @ & d M U 8.e.g.g.k.g.g.g.j.u.7.+.Y m x < . . X 8 9 r Z S Z r                         ",
"                              N A A S S Z @ o 2 6 M V V O.7.7.#.8.#.7.@.m M M s ; o . & 1 3 3 q F ^ 8.t                         ",
"                            s 7.8.N r 0 9 @ . # 6 w d s n P P P P P I K d < < < 2 3 X : 4 $ > b V 6.6.6                         ",
"                            6 9.k.r.8.P M X $ w > o o 1 s d d s x s x x 7 = . + A / 3 + O . s V P U I ;                         ",
"                            < #.j.C.t.@.K = 3 e $ % q c < , u u u u u ; s y t r T A 3 . . : d n Q Q F :                         ",
"                            = P r.f.t.6.K 6 : $ c E / R P R ! ) ~ ~ ^ N R E ( _ T - 7 > # c > 4 G J G 4                         ",
"                            = 6 q.B.N.a.F w ; d E W E W M.H.R.R.R.R.U.m.( E W _ ) O.K d > : O X 4 5 5                           ",
"                              : N.Q.Q.B.G e K ~ W y N E ` H.R.R.R.R.U.n./ ( n.a.j.r.7.Y x + . . O                               ",
"                              @ N.rXrXE.G N a.K.T > N Y ! w.w.w.w.w.! R e _ U.G.j.t.t.6.V < + +                                 ",
"                              $ M.B.rXN.5 G H.Y.R * e W ) y.k.k.f.9.8.F M N.Y.n.j.v.g.r.9.I 7 X                                 ",
"                              @ 5 D H H V q.B.n.N * N M.a.u.C.S.Z.u.N.M.P ~ H.m.N.C.g.r.e.Y M                                   ",
"                                @ @ O l h.I.N.w , * R Y.L.r.C.S.v.f.L.Y.! p R Y.T.C.g.t.e.U m                                   ",
"                                  > o z a.Y.M.O ; * R Y.P.#.C.S.C.g.L.T.e.p y J.U.p.i.f.9.V c                                   ",
"                                  v d a ! H.( + = o F Y.m.Q 5.5.j.P.L.P.s.] M ` H.m.8.o.U R F                                   ",
"                                  N x - N / S + , * A I.H.` ) w.a.U.a.2.:. .z r M.K.^ M R W W                                   ",
"                                    M e y 8 @ o h h i v n.Y.J.Y.I.' *.1.;.*.z o y ( / ( / E                                     ",
"                                      v 6 o . & h B i * W L.E.E.W.h.<.~.-.k - . o q T T E                                       ",
"                                      : . . . o i B B B p { ).`._._.`.).} o . . . . . . X                                       ",
"                                      + . . . . & i B B p ] d.'.'.~.~.d.h . . . . . . . . O                                     ",
"                                    + . . . . . + & i i i B B | &.} { { i O . . . . . . . .                                     ",
"                                    + . . . . . + O & @ i B } d.d.| | } B ; . . . . . . . . O                                   ",
"                                    + . . . . . . . . . B d.)._._._.).).} o . . . . . . . .                                     ",
"                                      . . . . . . . . . { s.~.~.c.~.).).} o . . . . . . . X                                     ",
"                                        + + + + . . . . { 6.B , , , } &.B ; . . . + + + O                                       ",
"                                                . . . . u i O . . + , i , o . . O                                               "
};
