/* XPM */
static char *left_move_021676416099[] = {
/* columns rows colors chars-per-pixel */
"64 64 241 2 ",
"   c None",
".  c #010101",
"X  c #060B0C",
"o  c #0A0C0B",
"O  c #090805",
"+  c #0C110E",
"@  c #181307",
"#  c #090D10",
"$  c #0C1717",
"%  c #1A1E1B",
"&  c #161917",
"*  c #150F08",
"=  c #261B09",
"-  c #241D13",
";  c #1C221D",
":  c #15231D",
">  c #0B231C",
",  c #32250E",
"<  c #39270C",
"1  c #25231B",
"2  c #2B2313",
"3  c #362A16",
"4  c #2E2D18",
"5  c #161C27",
"6  c #0C1F29",
"7  c #1C2A22",
"8  c #1C222E",
"9  c #162927",
"0  c #1A332B",
"q  c #1A2932",
"w  c #1A3534",
"e  c #1B383A",
"r  c #0D2C32",
"t  c #232B23",
"y  c #2A2B23",
"u  c #242620",
"i  c #312A25",
"p  c #25342A",
"a  c #29342C",
"s  c #2B3A2E",
"d  c #263126",
"f  c #343326",
"g  c #373929",
"h  c #252B39",
"j  c #2D3C33",
"k  c #273938",
"l  c #333936",
"z  c #452717",
"x  c #483619",
"c  c #553815",
"v  c #4D300E",
"b  c #443826",
"n  c #573528",
"m  c #503931",
"M  c #613D2E",
"N  c #164237",
"B  c #2E4234",
"V  c #2A433A",
"C  c #32453A",
"Z  c #354B3D",
"A  c #394C3E",
"S  c #334537",
"D  c #3B472D",
"F  c #57471C",
"G  c #474227",
"H  c #574924",
"J  c #484736",
"K  c #4C543B",
"L  c #555638",
"P  c #554D33",
"I  c #675826",
"U  c #634935",
"Y  c #665E36",
"T  c #7C5737",
"R  c #714830",
"E  c #79652C",
"W  c #766A36",
"Q  c #6B673B",
"!  c #6B571E",
"~  c #1C3542",
"^  c #0D3253",
"/  c #233C43",
"(  c #2A3A4A",
")  c #32384A",
"_  c #343D51",
"`  c #273346",
"'  c #001D49",
"]  c #1B4756",
"[  c #274449",
"{  c #394C42",
"}  c #394646",
"|  c #3C5244",
" . c #395348",
".. c #2C4A55",
"X. c #2E4C5A",
"o. c #284753",
"O. c #314D5C",
"+. c #394556",
"@. c #345459",
"#. c #285159",
"$. c #3B605A",
"%. c #264B62",
"&. c #364D61",
"*. c #345364",
"=. c #365669",
"-. c #395A6B",
";. c #365B68",
":. c #33586C",
">. c #3C6373",
",. c #3C6977",
"<. c #3B646A",
"1. c #1F4C63",
"2. c #425A4D",
"3. c #45584B",
"4. c #595643",
"5. c #455B53",
"6. c #4C4E54",
"7. c #755947",
"8. c #496255",
"9. c #4C6559",
"0. c #4D685D",
"q. c #456459",
"w. c #556A5B",
"e. c #5B6850",
"r. c #6D714E",
"t. c #444D65",
"y. c #485369",
"u. c #535C75",
"i. c #4B5A74",
"p. c #536E61",
"a. c #5E656E",
"s. c #5B7464",
"d. c #5B7668",
"f. c #426B7B",
"g. c #476779",
"h. c #536970",
"j. c #637C6B",
"k. c #657865",
"l. c #72726F",
"z. c #855A38",
"x. c #867434",
"c. c #927B32",
"v. c #885E42",
"b. c #896847",
"n. c #986944",
"m. c #977657",
"M. c #917751",
"N. c #A7744C",
"B. c #A67A51",
"V. c #6D8672",
"C. c #698674",
"Z. c #738C77",
"A. c #708A75",
"S. c #998437",
"D. c #A48D3C",
"F. c #868751",
"G. c #A68D43",
"H. c #AA9647",
"J. c #B98457",
"K. c #B2924D",
"L. c #BBA446",
"P. c #B7AE5F",
"I. c #989368",
"U. c #B79571",
"Y. c #B4B169",
"T. c #9EA87D",
"R. c #C18B5D",
"E. c #C8B44F",
"W. c #CE9B6D",
"Q. c #D9A87B",
"!. c #D9C250",
"~. c #C3C277",
"^. c #377385",
"/. c #467482",
"(. c #497684",
"). c #4B7D8A",
"_. c #4A7A86",
"`. c #547E89",
"'. c #5D6A89",
"]. c #636B89",
"[. c #707894",
"{. c #4D828F",
"}. c #4D8591",
"|. c #478696",
" X c #518692",
".X c #528995",
"XX c #548D99",
"oX c #5B8D99",
"OX c #5A929D",
"+X c #57939C",
"@X c #528893",
"#X c #64949D",
"$X c #74908F",
"%X c #5E9BA1",
"&X c #5C97A2",
"*X c #629CA5",
"=X c #649AA5",
"-X c #7C86A5",
";X c #6BA3AD",
":X c #66A5AA",
">X c #6CA9B1",
",X c #72ACB5",
"<X c #79AEB5",
"1X c #76B1B9",
"2X c #77B7BA",
"3X c #73ADAE",
"4X c #6EA19E",
"5X c #7DBBC1",
"6X c #7EC5C3",
"7X c #819D84",
"8X c #868996",
"9X c #86A48A",
"0X c #8FAF95",
"qX c #A6A29B",
"wX c #8D94AE",
"eX c #92AFB9",
"rX c #A5B5B2",
"tX c #D7AE87",
"yX c #E4B78C",
"uX c #E7BE95",
"iX c #E1AF82",
"pX c #B4C7BA",
"aX c #EAC39A",
"sX c #D1CDB6",
"dX c #F6D5AC",
"fX c #F9D7AF",
"gX c #F9DBB4",
"hX c #EDCCA8",
"jX c #A9B0C9",
"kX c #8DBFC0",
"lX c #82CAC6",
"zX c #85CAC8",
"xX c #94C6C3",
"cX c #84D1C9",
"vX c #88D0CB",
"bX c #91DAD0",
"nX c #B9DCC8",
"mX c #ACD1D0",
"MX c #CBC8C6",
"NX c #CEE0C8",
"BX c #CDD5EE",
/* pixels */
"                                                                                                                                ",
"                                              w k O.&.>.f.{.{.{.{._.-.O.O.[ w                                                   ",
"                                      ` ( ( ;.<.g. X=X:X2X2X2X2X3X:XoXoX@X,...[ ..                                              ",
"                                #.@.@.g.g.`.OXOX#X<XlXcXcXcX6XvX5X,X1X<X<X*X).g.-.O.                                            ",
"                              -.f.#X3X,X2XlXlXcXlX5X>X%X%X%X%X%X%X+XOX+X=X>X,X;XoX>.X./                                         ",
"                              ..<.{.=X:X2XvXvXcX6X3XXX}.}.}.}.|.}. X X{.oX*X;X;X*XXX,.X./                                       ",
"                                9 ~ *.(.=X,X6X5X,X+X{. X X@X@X@X.X X.X}..X.X X&X2X,X.X>...                                      ",
"                                O 6 / =./.:X6X6X,X+X}. X.X.X@X@X.X.X.X.X.X}.}.OXlXzX;XoX;./                                     ",
"                                  q ..>.XXeXnXnX5X*X%X:X;X&X.X}.}..X}..X|.@X^.+XcXvX2X,X`.X.                                    ",
"                                / O.f..X2XbXNXpX1XkXkX6X1X=X{.oXXX|.XXXXXX+X#X3XcXlX1X1XOX&./                                   ",
"                                O.,.oX>X6XbXbX:X;XsXnX6X%X/./.;X%XXX;X*XXX:XpXsXxX:X=X<XoXO.~                                   ",
"                              / &./.+X1XbX6X>X|.=XnXnX6X+X>.f.,XxXpXxX>XXX%XmXnX<X@X+X1X#XO./                                   ",
"                                O.f.+X>XlXlX&X(.oXlXlX;X.X>.>.*XpXNXmX2X).|.1X6X&X{.XX=X X&./                                   ",
"                                / <..X+X>X1X&X,.(.<X>XoXf.o.#.{.eXxXbX:X<._.>X2X+X{.}..X(.&./                                   ",
"                                w *.(.}.&X=XXXf.g.&XoX,...i 6._.+X:X6X#X<.^.%X*XXX(.,.}.(.&./                                   ",
"                                  [ -._..X.X.Xf.>._.f.O.l M 7.`.|.+X,XOX>.{.XX@X.Xf.-.f.,.*.[                                   ",
"                                    [ -.(..X.X/.=.-.%.k m n.J.a.^.+X1XoX>.{.XX.X X/.=.*.*.O./                                   ",
"                                      [ -._..X(.*.o.e % z R z.y.,.XX;X_.X.>.{..XoX/.-.*.O.e >                                   ",
"                                      w [ :._.^.X.k % . . % l O./..X}.;.e O.(. X(.>.-.-...9 #                                   ",
"                                        6 [ :.X./ n 3 O O 6.l.@.>.}.f.o.k O.(.}.>.*.=.*.o.9                                     ",
"                                        - l ~ 6.z.N.T < < 8XrX*.] f.O.e ~ *.(.}.>.*.*.[ 9 $                                     ",
"                                        n R 4.m.W.W.n.c c qXMXl./ X.e w k o.<.,.O.&.*./ $ X                                     ",
"                                        z.R.W.tXtXyXJ.c x qXMXW.T e e w w w ..*./ o.O.e >                                       ",
"                                        b.Q.aXhXhXhXtXU.U.sXhXiXM.r r e w w o.*.k e k 6                                         ",
"                                        m.uXfXgXgXgXgXgXgXgXfXuXI.6 q k e r [ o.e 0 $                                           ",
"                                        m.yXfXgXgXgXgXgXgXgXdXuXm.q m m e e e w w 9                                             ",
"                                        7.U.uXdXgXgXgXgXgXfXaXiXU.v.R m r w e q $                                               ",
"                                        . b U.uXhXdXdXdXhXaXQ.R.R.N.M i 0 k k 0 ;                                               ",
"                                      B 7 & b m.Q.yXuXyXQ.W.J.b.T M u > p Z | | 3.S s l                                         ",
"                                    2.2.Z 7 X v z.m.m.M.z.z.T n i 1 ; 7 C  .w.C.j.w.5.5.3.B                                     ",
"                                  5.p.w.3.B ; + X O O O O + 7 7 u 7 s Z 9.A.Z.V.V.j.0.0.5.| B                                   ",
"                                8.k.j.p. .j u 7 9 X . O o 9 p V { Z B Z s.9X9XZ.V.j.p.0.0.9.A a                                 ",
"                                3.9.j.p.| s V Z Z B : 7 B A | 8.8.2.a ; 9.9X0X9XZ.V.C.w.0.q.Z a                                 ",
"                                  { 5.5.B s 9.C.p.Z B $.s.d.C.C.d.p.p & | A.Z.V.s.w.e.2.q.9.| p                                 ",
"                                    a a : s C.Z.Z.p.$.C.$X0X9XZ.A.k.l ; Z 9.9.A A A A Z 2.5.C d                                 ",
"                                    = & & h @.I.~.Y.P.Y.T.$X0X0X7Xj.A 7 d Z Z S B B S B B s t ;                                 ",
"                                    2 1 f D L H.!.!.!.E.I.I.T.$XC.s.2.j : : p B j s s j 7 o &                                   ",
"                                  , , , x x.E.L.x.Y L W G.L.H.r.8.w.9.{ ; * @ ; ; ; % 1 @ O O                                   ",
"                                  , , , < ! S.x.D N r A Q Y Y Y Y 4.3.g y 1 @ + % 1 2 2 - = =                                   ",
"                                4 3 2 , @ O + 9  .q.p.C.0. .A H F F 4 4 f f & O - 3 v x < , ,                                   ",
"                                B a 1 , @ o 9 [ 9.j.j.C.d.p. .j f d 1 ; 7 ; + O = x c c v < ,                                   ",
"                              N e 0 % 1 - 4 P Y e.5.@.p.p.8.Z B B B ; : ; 7 # O = v c c v v <                                   ",
"                              4.L J t % t b I E x.x.F.r.e.K D t 9 d d y 4 y ; & 4 x n P L J g                                   ",
"                            b.J.J.n.n 1 t y - E E.!.E.D.c.x.E x = + 4 g f f f f f s A 9.p.9.A                                   ",
"                            v.N.N.z.m Z K x @ G e.Q Y E D.E.G.c.I % ; y y y d 4 t p  .d.d.q.A s                                 ",
"                              M n 3 0 5.r.! = 6 ] ^ ' } H.G.c.c.E b ; 7 d p p d & $ N q.p.$.A s                                 ",
"                                - * p q.r.! = r %.%.1.&.3.J g b I E g 0 C C C p + a 8.s.C.e.A                                   ",
"                                    D 4.L x o r / / O.=.%.%.^ r W G.K [ q.8.| 0 + b.Q.tXU.B.x                                   ",
"                                    b E H $ + $ 9 w o.:.=.-.*.^ F.H.K #.d.s.9.V 9 m.iXyXQ.B.x                                   ",
"                                      I H 9 5 * X 0 ..*.=.=.:.:.F.D.W r.V.V.j.q.{ b.J.Q.W.N.U                                   ",
"                                      H f ; + . # q e ..%.:.:.:.6.W L.I.V.V.V.s.q.K H P R R                                     ",
"                                          + . # 6 w ( y.'.i.=.:.^ 4.!.P.k.C.A.V.p.[ > = -                                       ",
"                                                5 h u.-X[.].-.&.^ K L.L.r.k.C.j.q.Z D H                                         ",
"                                                  h wXBXjXwX'.%.r w G S.H.k.<.$.[ L I F                                         ",
"                                                  h 8XBXjXwX[._ > > O F c.F.F.F.r.I G                                           ",
"                                                  q y.[.eXwX]._ X . . . x D.E.!.E.E o                                           ",
"                                                ` _ y.u.u.t.+.h $ . . . * x I I H 3 . .                                         ",
"                                            '.8XwX8X]._ ` 5 5 8 8 $ X . . . . . . . . . .                                       ",
"                                            u.eXBXjX-Xy.t.) h ` h 8 # . . . . . . . . . .                                       ",
"                                          h t.u.].jXwX].y.t.t.t._ 8 X . . . . . . . . . .                                       ",
"                                          _ ].u.y.[.-X[.t._ _ +.) h X . . . . . . .                                             ",
"                                            wXwX'.h t.].) 5 h 5 8 5 X . .                                                       ",
"                                            a.6._ & h ) 5 o # $ $ 5                                                             ",
"                                                                                                                                "
};
