/* XPM */
static char *result[] = {
/* columns rows colors chars-per-pixel */
"64 64 170 2 ",
"   c #040200",
".  c #0B0703",
"X  c #0E0A06",
"o  c #0D0B08",
"O  c #120B06",
"+  c #120E0A",
"@  c #1B0F08",
"#  c #14110D",
"$  c #1B140D",
"%  c #1C1611",
"&  c #1E1811",
"*  c #230F05",
"=  c #271003",
"-  c #291305",
";  c #21170E",
":  c #23190F",
">  c #2D1A0E",
",  c #361C0B",
"<  c #201710",
"1  c #241A12",
"2  c #2A1E13",
"3  c #361D13",
"4  c #3E220A",
"5  c #2E2116",
"6  c #27221D",
"7  c #2C221A",
"8  c #332215",
"9  c #3C2715",
"0  c #31241A",
"q  c #392718",
"w  c #3E2B1B",
"e  c #302C27",
"r  c #3C2D20",
"t  c #36302A",
"y  c #3A3531",
"u  c #481D0C",
"i  c #4C2707",
"p  c #4F2905",
"a  c #47270F",
"s  c #4B2909",
"d  c #51260D",
"f  c #432513",
"g  c #442A14",
"h  c #4B2C15",
"j  c #472618",
"k  c #442E1D",
"l  c #4D2F1B",
"z  c #5B2C15",
"x  c #552512",
"c  c #4E3117",
"v  c #46301E",
"b  c #4A321E",
"n  c #5E3115",
"m  c #5F371C",
"M  c #5C3B1F",
"N  c #65360E",
"B  c #613316",
"V  c #603A15",
"C  c #693912",
"Z  c #643C1C",
"A  c #412E20",
"S  c #443020",
"D  c #4D3521",
"F  c #44342B",
"G  c #503722",
"H  c #543A24",
"J  c #5A3D26",
"K  c #503C2D",
"L  c #473C37",
"P  c #68431F",
"I  c #5E4027",
"U  c #5E412A",
"Y  c #43403E",
"T  c #4F453E",
"R  c #514036",
"E  c #664425",
"W  c #6A4525",
"Q  c #6D4826",
"!  c #64452C",
"~  c #68472C",
"^  c #67482E",
"/  c #6B4A2E",
"(  c #704D2F",
")  c #6C4C30",
"_  c #714E31",
"`  c #724C3F",
"'  c #755132",
"]  c #4A4642",
"[  c #56514E",
"{  c #5F554E",
"}  c #5C5752",
"|  c #604F48",
" . c #674D43",
".. c #635146",
"X. c #64544A",
"o. c #6E5B4D",
"O. c #735C4B",
"+. c #675C54",
"@. c #615E5B",
"#. c #6D5D55",
"$. c #765F50",
"%. c #77665C",
"&. c #7E6555",
"*. c #686766",
"=. c #6D6966",
"-. c #7E6F6B",
";. c #7E736C",
":. c #7B7774",
">. c #815F45",
",. c #836551",
"<. c #8D7A6C",
"1. c #887A70",
"2. c #F94C55",
"3. c #F95A62",
"4. c #8B8179",
"5. c #988173",
"6. c #F77B81",
"7. c #8C8785",
"8. c #8F8D8C",
"9. c #978C85",
"0. c #94918F",
"q. c #9C948E",
"w. c #959492",
"e. c #9D9996",
"r. c #A18F84",
"t. c #A6968C",
"y. c #AC9C94",
"u. c #A09D9B",
"i. c #AF9E99",
"p. c #A19493",
"a. c #A6A29F",
"s. c #AEA29D",
"d. c #B5A9A8",
"f. c #BBAFAE",
"g. c #BCB3AD",
"h. c #BAB8B7",
"j. c #BFBFBF",
"k. c #B6B4B3",
"l. c #F48D92",
"z. c #F49599",
"x. c #C5BABA",
"c. c #F4A9AC",
"v. c #F0BABC",
"b. c #C5C5C5",
"n. c #CCC0C0",
"m. c #C9C8C7",
"M. c #CDCCCC",
"N. c #D1C7C7",
"B. c #D7CECF",
"V. c #D8CFCF",
"C. c #D2D0CF",
"Z. c #D7D5D3",
"A. c #D9D7D5",
"S. c #D8D8D7",
"D. c #D6D8D8",
"F. c #DDDCDC",
"G. c #EDCECF",
"H. c #EDCFD0",
"J. c #F1CFD1",
"K. c #E0DCDC",
"L. c #ECDBDC",
"P. c #EDD5D5",
"I. c #DFE2E2",
"U. c #E3E1E0",
"Y. c #E7EBEB",
"T. c #EAEBEB",
"R. c #EAE5E5",
"E. c #F0E3E3",
"W. c #E8F0F0",
"Q. c None",
/* pixels */
"Q.Q.Q.Q.Q.Q.Q.Q.Q.Q.Q.Q.Q.Q.Q.Q.Q.Q.Q.Q.Q.Q.Q.Q.Q.Q.Q.Q.Q.Q.Q.Q.Q.Q.Q.Q.Q.Q.Q.Q.Q.Q.Q.Q.Q.Q.Q.Q.Q.Q.Q.Q.Q.Q.Q.Q.Q.Q.Q.Q.Q.Q.Q.Q.",
"Q.Q.Q.Q.Q.Q.Q.Q.Q.Q.Q.Q.Q.Q.Q.Q.Q.Q.Q.Q.Q.Q.Q.Q.Q.Q.Q.Q.Q.Q.Q.Q.Q.Q.Q.Q.Q.Q.Q.Q.Q.Q.Q.Q.Q.Q.Q.Q.Q.Q.Q.Q.Q.Q.Q.Q.Q.Q.Q.Q.Q.Q.Q.Q.",
"Q.Q.Q.Q.Q.Q.Q.Q.Q.Q.Q.Q.Q.Q.Q.Q.Q.Q.Q.Q.Q.Q.Q.Q.Q.Q.Q.Q.Q.Q.Q.Q.Q.Q.Q.Q.Q.Q.Q.Q.Q.Q.Q.Q.Q.Q.Q.Q.Q.Q.Q.Q.Q.Q.Q.Q.Q.Q.Q.Q.Q.Q.Q.Q.",
"Q.Q.Q.Q.Q.Q.Q.Q.Q.Q.Q.Q.Q.Q.Q.Q.Q.Q.Q.Q.Q.Q.Q.Q.Q.Q.Q.Q.Q.Q.Q.Q.Q.Q.Q.Q.Q.Q.Q.Q.Q.Q.Q.Q.Q.Q.Q.Q.Q.Q.Q.Q.Q.Q.Q.Q.Q.Q.Q.Q.Q.Q.Q.Q.",
"Q.Q.Q.Q.Q.Q.Q.Q.Q.Q.Q.Q.Q.Q.Q.Q.Q.Q.Q.Q.Q.Q.Q.Q.Q.Q.Q.Q.Q.Q.Q.Q.Q.Q.Q.Q.Q.Q.Q.Q.Q.Q.Q.Q.Q.Q.Q.Q.Q.Q.Q.Q.Q.Q.Q.Q.Q.Q.Q.Q.Q.Q.Q.Q.",
"Q.Q.Q.Q.Q.Q.Q.Q.Q.Q.Q.Q.Q.Q.Q.Q.Q.Q.Q.Q.Q.Q.Q.Q.Q.Q.Q.Q.Q.Q.Q.Q.Q.Q.Q.Q.Q.Q.Q.Q.Q.Q.Q.Q.Q.Q.Q.Q.Q.Q.Q.Q.Q.Q.Q.Q.Q.Q.Q.Q.Q.Q.Q.Q.",
"Q.Q.Q.Q.Q.Q.Q.Q.Q.Q.Q.Q.Q.Q.Q.Q.Q.Q.Q.Q.Q.Q.Q.Q.Q.Q.Q.Q.Q.Q.Q.Q.Q.Q.Q.Q.Q.Q.Q.Q.Q.Q.Q.Q.Q.Q.Q.Q.Q.Q.Q.Q.Q.Q.Q.Q.Q.Q.Q.Q.Q.Q.Q.Q.",
"Q.Q.Q.Q.Q.Q.Q.Q.Q.Q.Q.Q.Q.Q.Q.Q.Q.Q.Q.Q.Q.Q.Q.Q.Q.Q.Q.Q.Q.Q.Q.Q.Q.Q.Q.Q.Q.Q.Q.Q.Q.Q.Q.Q.Q.Q.Q.Q.Q.Q.Q.Q.Q.Q.Q.Q.Q.Q.Q.Q.Q.Q.Q.Q.",
"Q.Q.Q.Q.Q.Q.Q.Q.Q.Q.Q.Q.Q.Q.Q.Q.Q.Q.Q.Q.Q.Q.Q.Q.Q.Q.Q.Q.Q.Q.Q.Q.Q.Q.Q.Q.Q.Q.Q.Q.Q.Q.Q.Q.Q.Q.Q.Q.Q.Q.Q.Q.Q.Q.Q.Q.Q.Q.Q.Q.Q.Q.Q.Q.",
"Q.Q.Q.Q.Q.o o < Q.Q.Q.Q.Q.Q.Q.Q.Q.Q.Q.Q.Q.Q.Q.Q.Q.Q.Q.Q.Q.Q.Q.Q.Q.Q.Q.Q.Q.Q.Q.Q.Q.Q.Q.Q.Q.Q.Q.Q.Q.Q.Q.Q.Q.Q.Q.Q.Q.Q.Q.Q.Q.Q.Q.Q.",
"Q.Q.Q.Q.Q.+ ; 1 5 H Q.Q.Q.Q.Q.Q.Q.Q.Q.Q.Q.Q.Q.Q.Q.Q.Q.Q.Q.Q.Q.Q.Q.Q.Q.Q.Q.Q.Q.Q.Q.Q.Q.Q.Q.Q.Q.Q.Q.Q.Q.Q.Q.Q.Q.Q.Q.Q.Q.Q.Q.Q.Q.Q.",
"Q.Q.Q.Q.Q.r k 2 8 U ! Q.Q.Q.Q.Q.Q.Q.Q.Q.Q.Q.Q.Q.Q.Q.Q.Q.Q.Q.Q.Q.Q.Q.Q.Q.Q.Q.Q.Q.Q.Q.Q.Q.Q.Q.Q.Q.Q.Q.Q.Q.Q.Q.Q.Q.Q.Q.Q.Q.Q.Q.Q.Q.",
"Q.Q.Q.Q.Q.! D q w G ! ! Q.Q.Q.Q.Q.Q.Q.Q.Q.Q.Q.Q.Q.Q.Q.Q.Q.Q.Q.Q.Q.Q.Q.Q.Q.Q.Q.Q.Q.Q.Q.Q.Q.7 0 5 Q.Q.Q.Q.Q.Q.Q.Q.Q.Q.Q.X 1 Q.Q.Q.",
"Q.Q.Q.Q.J J S v k k J ! ! Q.Q.Q.Q.Q.Q.Q.Q.Q.Q.Q.Q.Q.Q.Q.Q.Q.Q.Q.Q.Q.Q.Q.Q.Q.Q.Q.Q.Q.Q.Q.Q.1 1 2 7 Q.Q.Q.Q.Q.Q.Q.Q.U D 9 2 $ Q.Q.",
"Q.Q.Q.2 $ 1 k S k k k H ^ ! Q.Q.Q.Q.Q.Q.Q.Q.Q.Q.Q.Q.Q.Q.Q.Q.Q.Q.Q.Q.Q.Q.Q.Q.Q.Q.Q.Q.Q.Q.Q.$ # $ 2 Q.Q.Q.Q.Q.Q.Q.) ) ( ! 2 # 1 Q.",
"Q.Q.Q.$ + o 0 A k k w k H ! ^ Q.Q.Q.Q.Q.Q.Q.Q.Q.Q.Q.Q.Q.Q.Q.Q.Q.Q.Q.Q.Q.Q.Q.Q.Q.Q.Q.Q.Q.Q.J k + 2 Q.Q.Q.Q.) ) _ / I J b : o $ Q.",
"Q.Q.Q.+ + + Q.Q.S J G k k H ! ! Q.Q.Q.Q.Q.Q.Q.Q.Q.Q.Q.Q.Q.Q.Q.Q.Q.Q.Q.Q.Q.Q.Q.Q.Q.Q.Q.Q.! ! k X $ w Q.Q./ ' ~ ! E b w q % o + Q.",
"Q.Q.Q.# + Q.Q.Q.Q.^ U k k k D ! ) / / / / Q.Q.Q.Q.Q.Q.Q.Q.Q.Q.Q.Q.Q.Q.Q.Q.Q.Q.Q.Q.Q.Q./ / G 8 O o D _ ) ( / H k v k w Q.Q.o # Q.",
"Q.Q.Q.Q.Q.Q.Q.Q.9 G G k k k v M J H H H J ! ) / Q.Q.Q.Q.Q.Q.Q.Q.Q.Q.Q.Q.Q.Q.Q.Q.Q.Q./ ( / D w 2 X b ) I H b k k k v k Q.Q.Q.Q.Q.",
"Q.Q.Q.Q.Q.Q.Q.1 2 k k b k v k k k k k w b ! ! U Q.Q.Q.Q.Q.Q.Q.Q.Q.Q.Q.Q.Q.Q.Q.Q.Q.! ! ! ! S k v k J ! b w k k k k k Q.Q.Q.Q.Q.Q.",
"Q.Q.Q.Q.Q.Q.2 $ ; w S A A v v A k k k k k v k 9 d i p Q.Q.Q.Q.Q.Q.Q.Q.Q.Q.Q.Q.) ) ! G k b k k D ~ I v k k v k b k k b Q.Q.Q.Q.Q.",
"Q.Q.Q.Q.Q.Q.& # # 7 Q.Q.Q.Q.r k v v b v v w > > x z z W / / ) ) ) ^ Q.Q.Q.Q.) _ ! H k k k k k b H b k k v v v v k k J ! Q.Q.Q.Q.",
"Q.Q.Q.Q.Q.Q.# # $ Q.Q.Q.Q.Q.Q.k k r k A f u %.q.y.y.t.' C ' _ / ! _ ) Q.Q.) ( ! H k k v v v v k k k v k v v v v k k J ! ! Q.Q.Q.",
"Q.Q.Q.Q.Q.Q.Q.Q.Q.Q.Q.Q.Q.Q.Q.Q.Q.Q.Q.Q.h ` g.R.T.T.A.<.Q P / J G ! _ ) ) _ Q b k k k v v v v v v k k b v v v v k v k G ! U Q.Q.",
"Q.Q.Q.Q.Q.Q.Q.Q.Q.Q.Q.Q.Q.Q.Q.Q.Q.Q.Q.Q.Q.k.U.W.T.T.T.S.9.3 g D k G ! ( _ ! b b k k v v v v v v v v v v v v v v v k k k 9 8 8 Q.",
"Q.Q.Q.Q.Q.Q.Q.Q.Q.Q.Q.Q.Q.Q.Q.Q.Q.Q.Q.Q.k.S.J.v.L.T.T.T.M.7.K 3 k k E ' ' I k k v v v v v k v k v v v v v v k v k k k k 2 : 1 7 ",
"Q.Q.Q.Q.Q.Q.Q.Q.Q.Q.Q.Q.Q.Q.Q.Q.Q.Q.Q.m.U.Y.z.3.H.W.T.T.T.Z.+.* g k J / ( J k k v v v v k k S S A A S A k k k k b b b k k 8 $ 1 ",
"Q.Q.Q.Q.Q.Q.Q.Q.Q.Q.Q.Q.Q.Q.Q.Q.Q.Q.Q.M.Y.T.l.2.H.T.T.T.K.x.X.- k k b H G b k k k k v v k v A Q.Q.Q.Q.Q.A v A k D ! ! Q.Q.Q.Q.# ",
"Q.Q.Q.Q.Q.Q.Q.Q.Q.Q.Q.Q.Q.Q.Q.Q.Q.Q.Q.M.T.T.l.2.G.W.R.F.V.f.| - g k k k k k k v v v A k k Q.Q.Q.Q.Q.Q.Q.Q.k k k S J D Q.Q.Q.Q.+ ",
"Q.Q.Q.Q.Q.Q.Q.Q.Q.Q.Q.Q.Q.Q.Q.Q.Q.Q.Q.h.D.Y.c.6.P.Y.K.N.x.s...4 D b b k k v v k k S Q.Q.Q.Q.Q.Q.Q.Q.Q.Q.Q.Q.Q.Q.k 5 7 8 Q.Q.Q.o ",
"Q.Q.Q.Q.Q.Q.Q.Q.Q.Q.Q.Q.Q.Q.Q.Q.Q.Q.Q.Q.e.S.E.L.R.F.N.n.p. ./ Q / / J k k k v k k Q.Q.Q.Q.Q.Q.Q.Q.Q.Q.Q.Q.Q.Q.Q.Q.# 1 7 Q.Q.Q.Q.",
"Q.Q.Q.Q.Q.Q.Q.Q.Q.Q.Q.Q.Q.Q.Q.Q.Q.Q.Q.Q.{ 0.m.F.K.B.x.y.&.z Q Z d M J v k v k k Q.Q.Q.Q.Q.Q.Q.Q.Q.Q.Q.Q.Q.Q.Q.Q.Q.Q.$ 1 Q.Q.Q.Q.",
"Q.Q.Q.Q.Q.Q.Q.Q.Q.Q.Q.Q.Q.Q.Q.Q.Q.Q.Q.Q.1 6 -.d.d.x.i.O.N m E o.#.K f k k v k Q.Q.Q.Q.Q.Q.Q.Q.Q.Q.Q.Q.Q.Q.Q.Q.Q.Q.Q.# # Q.Q.Q.Q.",
"Q.Q.Q.Q.Q.Q.Q.Q.Q.Q.Q.Q.Q.Q.Q.Q.Q.Q.Q.Q.8 @ F X.) $.,.' m 3 7 e.m.+.= k b v k Q.Q.Q.Q.Q.Q.Q.Q.Q.Q.Q.Q.Q.Q.Q.Q.Q.Q.Q.+ + Q.Q.Q.Q.",
"Q.Q.Q.Q.Q.Q.Q.Q.Q.Q.Q.Q.Q.Q.Q.Q.Q.Q.Q.Q.> & :.e.Y ;.s.o.4.u.L *.w.T - k v v k Q.Q.Q.Q.Q.Q.Q.Q.Q.Q.Q.Q.Q.Q.Q.Q.Q.Q.Q.# # Q.Q.Q.Q.",
"Q.Q.Q.Q.Q.Q.Q.Q.Q.Q.Q.Q.Q.Q.Q.Q.Q.Q.Q.Q.Q.6 w.j.[ 8.j.[ 8.b.[ o # $ 8 v v k k Q.Q.Q.Q.Q.Q.Q.Q.Q.Q.Q.Q.Q.Q.Q.Q.Q.Q.Q.Q.$ Q.Q.Q.Q.",
"Q.Q.Q.Q.Q.Q.Q.Q.Q.Q.Q.Q.Q.Q.Q.Q.Q.Q.Q.Q.Q.Q.] ] 6 y ] 6 y ] 6 X X O 3 k v k Q.Q.Q.Q.Q.Q.Q.Q.Q.Q.Q.Q.Q.Q.Q.Q.Q.Q.Q.Q.Q.Q.Q.Q.Q.Q.",
"Q.Q.Q.Q.Q.Q.Q.Q.Q.Q.Q.Q.Q.Q.Q.Q.Q.Q.Q.Q.Q.Q..                 X O   * k k H Q.Q.Q.0 0 Q.Q.Q.Q.Q.Q.Q.Q.Q.Q.Q.Q.Q.Q.Q.Q.Q.Q.Q.Q.Q.",
"Q.Q.Q.Q.Q.Q.Q.Q.Q.Q.Q.Q.Q.Q.Q.Q.Q.Q.Q.Q.Q.Q.Q.t @.] e @.] e @.] e @.{ k c ! ) Q.w 2 2 2 Q.Q.Q.Q.Q.Q.Q.Q.Q.Q.Q.Q.Q.Q.Q.Q.Q.Q.Q.Q.",
"Q.Q.Q.Q.Q.Q.Q.Q.Q.Q.Q.Q.Q.Q.Q.Q.Q.Q.Q.Q.Q.Q.Q.=.j.w.} m.w.} m.w.} b.a.j Z ' _ ) D + o & Q.Q.Q.Q.Q.Q.Q.Q.Q.Q.Q.Q.Q.Q.Q.Q.Q.Q.Q.Q.",
"Q.Q.Q.Q.Q.Q.Q.Q.Q.Q.Q.Q.Q.Q.Q.Q.Q.Q.7 0 S ! Q.Q.t.<.O.t.<.O.t.<.O.t.1.c W Q J J S + o # Q.Q.Q.Q.Q.Q.Q.Q.Q.Q.Q.Q.Q.Q.Q.Q.Q.Q.Q.Q.",
"Q.Q.Q.Q.Q.Q.Q.Q.Q.Q.Q.Q.Q.Q.Q.Q.Q.7 1 w J ! ! J z Z E n Z W B Z W B h G / U k w Q.Q.o Q.Q.Q.Q.Q.Q.Q.Q.Q.Q.Q.Q.Q.Q.Q.Q.Q.Q.Q.Q.Q.",
"Q.Q.Q.Q.Q.Q.Q.Q.Q.Q.Q.Q.Q.Q.Q.Q.Q.1 # D ! J J ! c h c s h v a h b h g G / E k Q.Q.Q.Q.Q.Q.Q.Q.Q.Q.Q.Q.Q.Q.Q.Q.Q.Q.Q.Q.Q.Q.Q.Q.Q.",
"Q.Q.Q.Q.Q.Q.Q.Q.Q.Q.Q.Q.Q.Q.Q.Q.1 $ $ D J S D J S g Q.Q.k k k k k k k S J k 1 Q.Q.Q.Q.Q.Q.Q.Q.Q.Q.Q.Q.Q.Q.Q.Q.Q.Q.Q.Q.Q.Q.Q.Q.Q.",
"Q.Q.Q.Q.Q.Q.Q.Q.Q.Q.Q.Q.Q.Q.Q.Q.Q.+ Q.Q.w k v k A Q.Q.Q.k k v k k k k k 9 2 # Q.Q.Q.Q.Q.Q.Q.Q.Q.Q.Q.Q.Q.Q.Q.Q.Q.Q.Q.Q.Q.Q.Q.Q.Q.",
"Q.Q.Q.Q.Q.Q.Q.Q.Q.Q.Q.Q.Q.Q.Q.Q.Q.Q.Q.1 8 w S k Q.Q.Q.Q.A k b k k k k k ; $ 5 5 Q.Q.Q.Q.Q.Q.Q.Q.Q.Q.Q.Q.Q.Q.Q.Q.Q.Q.Q.Q.Q.Q.Q.Q.",
"Q.Q.Q.Q.Q.Q.Q.Q.Q.Q.Q.Q.Q.Q.Q.Q.Q.Q.5 1 1 0 Q.Q.Q.Q.Q.Q.A k v v k A Q.Q.Q.Q.Q.Q.Q.Q.Q.Q.Q.Q.Q.Q.Q.Q.Q.Q.Q.Q.Q.Q.Q.Q.Q.Q.Q.Q.Q.Q.",
"Q.Q.Q.Q.Q.Q.Q.Q.Q.Q.Q.Q.Q.Q.Q.Q.Q.Q.7 1 + Q.Q.Q.Q.Q.Q.Q.Q.k k v k Q.Q.Q.Q.Q.Q.Q.Q.Q.Q.Q.Q.Q.Q.Q.Q.Q.Q.Q.Q.Q.Q.Q.Q.Q.Q.Q.Q.Q.Q.Q.",
"Q.Q.Q.Q.Q.Q.Q.Q.Q.Q.Q.Q.Q.Q.Q.Q.Q.Q.Q.Q.Q.Q.Q.Q.Q.Q.Q.Q.Q.Q.k A S Q.Q.Q.Q.Q.Q.Q.Q.Q.Q.Q.Q.Q.Q.Q.Q.Q.Q.Q.Q.Q.Q.Q.Q.Q.Q.Q.Q.Q.Q.Q.",
"Q.Q.Q.Q.Q.Q.Q.Q.Q.Q.Q.Q.Q.Q.Q.Q.Q.Q.Q.Q.Q.Q.Q.Q.Q.Q.Q.Q.Q.Q.Q.k D ! Q.Q.Q.Q.Q.Q.Q.Q.Q.Q.Q.Q.Q.Q.Q.Q.Q.Q.Q.Q.Q.Q.Q.Q.Q.Q.Q.Q.Q.Q.",
"Q.Q.Q.Q.Q.Q.Q.Q.Q.Q.Q.Q.Q.Q.Q.Q.Q.Q.Q.Q.Q.Q.Q.Q.Q.Q.Q.Q.Q.Q.Q.k D ! J Q.Q.Q.Q.Q.Q.Q.Q.Q.Q.Q.Q.Q.Q.Q.Q.Q.Q.Q.Q.Q.Q.Q.Q.Q.Q.Q.Q.Q.",
"Q.Q.Q.Q.Q.Q.Q.Q.Q.Q.Q.Q.Q.Q.Q.Q.Q.Q.Q.Q.Q.Q.Q.Q.Q.Q.Q.Q.Q.Q.Q.Q.A A D Q.Q.Q.Q.Q.Q.Q.Q.Q.Q.Q.Q.Q.Q.Q.Q.Q.Q.Q.Q.Q.Q.Q.Q.Q.Q.Q.Q.Q.",
"Q.Q.Q.Q.Q.Q.Q.Q.Q.Q.Q.Q.Q.Q.Q.Q.Q.Q.Q.Q.Q.Q.Q.Q.Q.Q.Q.Q.Q.Q.Q.Q.k k J ! Q.Q.Q.Q.Q.Q.Q.Q.Q.Q.Q.Q.Q.Q.Q.Q.Q.Q.Q.Q.Q.Q.Q.Q.Q.Q.Q.Q.",
"Q.Q.Q.Q.Q.Q.Q.Q.Q.Q.Q.Q.Q.Q.Q.Q.Q.Q.Q.Q.Q.Q.Q.Q.Q.Q.Q.Q.Q.Q.Q.Q.Q.k J U Q.Q.Q.Q.Q.Q.Q.Q.Q.Q.Q.Q.Q.Q.Q.Q.Q.Q.Q.Q.Q.Q.Q.Q.Q.Q.Q.Q.",
"Q.Q.Q.Q.Q.Q.Q.Q.Q.Q.Q.Q.Q.Q.Q.Q.Q.Q.Q.Q.Q.Q.Q.Q.Q.Q.Q.Q.Q.Q.Q.Q.Q.k A k Q.Q.Q.Q.Q.Q.Q.Q.Q.Q.Q.Q.Q.Q.Q.Q.Q.Q.Q.Q.Q.Q.Q.Q.Q.Q.Q.Q.",
"Q.Q.Q.Q.Q.Q.Q.Q.Q.Q.Q.Q.Q.Q.Q.Q.Q.Q.Q.Q.Q.Q.Q.Q.Q.Q.Q.Q.Q.Q.Q.Q.Q.Q.Q.Q.Q.Q.Q.Q.Q.Q.Q.Q.Q.Q.Q.Q.Q.Q.Q.Q.Q.Q.Q.Q.Q.Q.Q.Q.Q.Q.Q.Q.",
"Q.Q.Q.Q.Q.Q.Q.Q.Q.Q.Q.Q.Q.Q.Q.Q.Q.Q.Q.Q.Q.Q.Q.Q.Q.Q.Q.Q.Q.Q.Q.Q.Q.Q.Q.Q.Q.Q.Q.Q.Q.Q.Q.Q.Q.Q.Q.Q.Q.Q.Q.Q.Q.Q.Q.Q.Q.Q.Q.Q.Q.Q.Q.Q.",
"Q.Q.Q.Q.Q.Q.Q.Q.Q.Q.Q.Q.Q.Q.Q.Q.Q.Q.Q.Q.Q.Q.Q.Q.Q.Q.Q.Q.Q.Q.Q.Q.Q.Q.Q.Q.Q.Q.Q.Q.Q.Q.Q.Q.Q.Q.Q.Q.Q.Q.Q.Q.Q.Q.Q.Q.Q.Q.Q.Q.Q.Q.Q.Q.",
"Q.Q.Q.Q.Q.Q.Q.Q.Q.Q.Q.Q.Q.Q.Q.Q.Q.Q.Q.Q.Q.Q.Q.Q.Q.Q.Q.Q.Q.Q.Q.Q.Q.Q.Q.Q.Q.Q.Q.Q.Q.Q.Q.Q.Q.Q.Q.Q.Q.Q.Q.Q.Q.Q.Q.Q.Q.Q.Q.Q.Q.Q.Q.Q.",
"Q.Q.Q.Q.Q.Q.Q.Q.Q.Q.Q.Q.Q.Q.Q.Q.Q.Q.Q.Q.Q.Q.Q.Q.Q.Q.Q.Q.Q.Q.Q.Q.Q.Q.Q.Q.Q.Q.Q.Q.Q.Q.Q.Q.Q.Q.Q.Q.Q.Q.Q.Q.Q.Q.Q.Q.Q.Q.Q.Q.Q.Q.Q.Q.",
"Q.Q.Q.Q.Q.Q.Q.Q.Q.Q.Q.Q.Q.Q.Q.Q.Q.Q.Q.Q.Q.Q.Q.Q.Q.Q.Q.Q.Q.Q.Q.Q.Q.Q.Q.Q.Q.Q.Q.Q.Q.Q.Q.Q.Q.Q.Q.Q.Q.Q.Q.Q.Q.Q.Q.Q.Q.Q.Q.Q.Q.Q.Q.Q.",
"Q.Q.Q.Q.Q.Q.Q.Q.Q.Q.Q.Q.Q.Q.Q.Q.Q.Q.Q.Q.Q.Q.Q.Q.Q.Q.Q.Q.Q.Q.Q.Q.Q.Q.Q.Q.Q.Q.Q.Q.Q.Q.Q.Q.Q.Q.Q.Q.Q.Q.Q.Q.Q.Q.Q.Q.Q.Q.Q.Q.Q.Q.Q.Q.",
"Q.Q.Q.Q.Q.Q.Q.Q.Q.Q.Q.Q.Q.Q.Q.Q.Q.Q.Q.Q.Q.Q.Q.Q.Q.Q.Q.Q.Q.Q.Q.Q.Q.Q.Q.Q.Q.Q.Q.Q.Q.Q.Q.Q.Q.Q.Q.Q.Q.Q.Q.Q.Q.Q.Q.Q.Q.Q.Q.Q.Q.Q.Q.Q.",
"Q.Q.Q.Q.Q.Q.Q.Q.Q.Q.Q.Q.Q.Q.Q.Q.Q.Q.Q.Q.Q.Q.Q.Q.Q.Q.Q.Q.Q.Q.Q.Q.Q.Q.Q.Q.Q.Q.Q.Q.Q.Q.Q.Q.Q.Q.Q.Q.Q.Q.Q.Q.Q.Q.Q.Q.Q.Q.Q.Q.Q.Q.Q.Q."
};
