/* XPM */
static char *result[] = {
/* columns rows colors chars-per-pixel */
"64 64 160 2 ",
"   c #050303",
".  c #0C0704",
"X  c #0D0906",
"o  c #0C0B0A",
"O  c #170C06",
"+  c #110D0A",
"@  c #190F08",
"#  c #15110D",
"$  c #1B140D",
"%  c #1B1612",
"&  c #1E1B18",
"*  c #2D1506",
"=  c #22160D",
"-  c #2F1608",
";  c #3A1805",
":  c #371D0D",
">  c #221711",
",  c #251B13",
"<  c #2A1E14",
"1  c #3A210C",
"2  c #2E2016",
"3  c #2E231A",
"4  c #332215",
"5  c #3C2515",
"6  c #31241B",
"7  c #3B2719",
"8  c #3D2A1A",
"9  c #2F2721",
"0  c #2C2927",
"q  c #342924",
"w  c #3C2B20",
"e  c #362E2C",
"r  c #3F3024",
"t  c #4D120A",
"y  c #4C2003",
"u  c #48290F",
"i  c #522606",
"p  c #512709",
"a  c #5F2D0C",
"s  c #442A14",
"d  c #4A2B14",
"f  c #442E1D",
"g  c #532E12",
"h  c #512C18",
"j  c #592F18",
"k  c #46301E",
"l  c #4A321E",
"z  c #563212",
"x  c #583312",
"c  c #53361E",
"v  c #583718",
"b  c #5A3B1F",
"n  c #693415",
"m  c #683A11",
"M  c #422F20",
"N  c #443021",
"B  c #4D3521",
"V  c #4C3B2F",
"C  c #513722",
"Z  c #543924",
"A  c #5C3E26",
"S  c #553E2C",
"D  c #6E431D",
"F  c #5E422A",
"G  c #44413E",
"H  c #57493F",
"J  c #6B4524",
"K  c #63452B",
"L  c #68472C",
"P  c #65482E",
"I  c #6B4A2E",
"U  c #714C2B",
"Y  c #654830",
"T  c #6C4C31",
"R  c #694E39",
"E  c #714E31",
"W  c #735133",
"Q  c #725339",
"!  c #464240",
"~  c #4A4440",
"^  c #4E4D4B",
"/  c #584B41",
"(  c #534D49",
")  c #5E5046",
"_  c #53504D",
"`  c #694F46",
"'  c #695647",
"]  c #6B564C",
"[  c #765142",
"{  c #7C5D46",
"}  c #76574E",
"|  c #665B53",
" . c #6B5D55",
".. c #7F6251",
"X. c #746359",
"o. c #7D6A61",
"O. c #716F6E",
"+. c #7C6E69",
"@. c #73706D",
"#. c #737270",
"$. c #7C7977",
"%. c #82644E",
"&. c #856652",
"*. c #8B6E5D",
"=. c #846D5C",
"-. c #89706A",
";. c #867F7A",
":. c #837B75",
">. c #F94A52",
",. c #F94F59",
"<. c #F95058",
"1. c #998277",
"2. c #998578",
"3. c #8D8A88",
"4. c #958682",
"5. c #948985",
"6. c #9D8B85",
"7. c #9A938F",
"8. c #969594",
"9. c #989796",
"0. c #9B9896",
"q. c #9C9A9A",
"w. c #A08E83",
"e. c #A09995",
"r. c #AE9C97",
"t. c #A39D9A",
"y. c #A4A09C",
"u. c #AFA49C",
"i. c #ABA7A5",
"p. c #B1A4A2",
"a. c #B6B5B4",
"s. c #B9B9B8",
"d. c #F58E93",
"f. c #F49094",
"g. c #C3BDBD",
"h. c #C9BCBB",
"j. c #F5ABAE",
"k. c #F1B1B3",
"l. c #C3C0BF",
"z. c #C5C3C2",
"x. c #CCC5C3",
"c. c #CFCBC7",
"v. c #D3CACA",
"b. c #D5D2D2",
"n. c #D5D8D7",
"m. c #DAD8D7",
"M. c #D7DCDC",
"N. c #DEDCDC",
"B. c #EDCECF",
"V. c #F1C2C4",
"C. c #E2DFDF",
"Z. c #EDD9D9",
"A. c #DDE0DF",
"S. c #E5E2E3",
"D. c #E9E3E3",
"F. c #E7E8E8",
"G. c #EAEBEB",
"H. c #F0E0E1",
"J. c #ECF3F3",
"K. c None",
/* pixels */
"K.K.K.K.K.K.K.K.K.K.K.K.K.K.K.K.K.K.K.K.K.K.K.K.K.K.K.K.K.K.K.K.K.K.K.K.K.K.K.K.K.K.K.K.K.K.K.K.K.K.K.K.K.K.K.K.K.K.K.K.K.K.K.K.",
"K.K.K.K.K.K.K.K.K.K.K.K.K.K.K.K.K.K.K.K.K.K.K.K.K.K.K.K.K.K.K.K.K.K.K.K.K.K.K.K.K.K.K.K.K.K.K.K.K.K.K.K.K.K.K.K.K.K.K.K.K.K.K.K.",
"K.K.K.K.K.K.K.K.K.K.K.K.K.K.K.K.K.K.K.K.K.K.K.K.K.K.K.K.K.K.K.K.K.K.K.K.K.K.K.K.K.K.K.K.K.K.K.K.K.K.K.K.K.K.K.K.K.K.K.K.K.K.K.K.",
"K.K.K.K.K.K.K.K.K.K.K.K.K.K.K.K.K.K.K.K.K.K.K.K.K.K.K.K.K.K.K.K.K.K.K.K.K.K.K.K.K.K.K.K.K.K.K.K.K.K.K.K.K.K.K.K.K.K.K.K.K.K.K.K.",
"K.K.K.K.K.K.K.K.K.K.K.K.K.K.K.K.K.K.K.K.K.K.K.K.K.K.K.K.K.K.K.K.K.K.K.K.K.K.K.K.K.K.K.K.K.K.K.K.K.K.K.K.K.K.K.K.K.K.K.K.K.K.K.K.",
"K.K.K.K.K.K.K.K.K.K.K.K.K.K.K.K.K.K.K.K.K.K.K.K.K.K.K.K.K.K.K.K.K.K.K.K.K.K.K.K.K.K.K.K.K.K.K.K.K.K.K.K.K.K.K.K.K.K.K.K.K.K.K.K.",
"K.K.K.K.K.K.K.K.K.K.K.K.K.K.K.K.K.K.K.K.K.K.K.K.K.K.K.K.K.K.K.K.K.K.K.K.K.K.K.K.K.K.K.K.K.K.K.K.K.K.K.K.K.K.K.K.K.K.K.K.K.K.K.K.",
"K.K.K.K.K.K.K.K.K.K.K.K.K.K.K.K.K.K.K.K.K.K.K.K.K.K.K.K.K.K.K.K.K.K.K.K.K.K.K.K.K.K.K.K.K.K.K.K.K.K.K.K.K.K.K.K.K.K.K.K.K.K.K.K.",
"K.K.K.K.K.K.K.K.K.K.K.K.K.K.K.K.K.K.K.K.K.K.K.K.K.K.K.K.K.K.K.K.K.K.K.K.K.K.K.K.K.K.K.K.K.K.K.K.K.K.K.K.K.K.K.K.K.K.K.K.K.K.K.K.",
"K.K.K.K.K.K.K.K.K.K.K.K.K.K.K.K.K.K.K.K.K.K.K.K.K.K.K.K.K.K.K.K.K.K.K.K.K.K.K.K.K.K.K.K.K.K.K.K.K.K.K.K.K.K.K.K.K.K.K.K.K.K.K.K.",
"K.K.K.K.K.K.K.K.K.K.K.K.K.K.K.K.K.K.K.K.K.K.K.K.K.K.K.K.K.K.K.K.K.K.K.K.K.K.K.K.K.K.K.K.K.K.K.K.K.K.K.K.K.K.K.K.K.K.K.K.K.K.K.K.",
"K.K.K.K.K.K.K.K.K.K.K.K.K.K.K.K.K.K.K.K.K.K.K.K.K.K.K.K.K.K.K.K.K.K.K.K.K.K.K.K.K.K.K.K.K.K.K.K.K.K.K.K.K.K.K.K.K.K.K.K.K.K.K.K.",
"K.K.K.K.K.K.K.K.K.K.K.K.K.K.K.K.K.K.K.K.K.K.K.K.K.K.K.K.K.K.K.K.K.K.K.K.K.K.K.K.K.K.K.K.K.K.K.K.K.K.K.K.K.K.K.K.K.K.K.K.K.K.K.K.",
"K.K.K.K.K.K.K.K.K.K.K.K.K.K.K.K.K.K.K.K.K.K.K.K.K.K.K.K.K.K.K.K.K.K.K.K.K.K.K.K.K.K.K.K.K.K.K.K.K.K.K.K.K.K.K.K.K.K.K.K.K.K.K.K.",
"K.K.K.K.K.K.K.K.K.K.K.K.K.K.K.K.K.K.K.K.K.K.K.K.K.K.K.K.K.K.K.K.K.K.K.K.K.K.K.K.K.K.K.K.K.K.K.K.K.K.K.K.K.K.K.K.K.K.K.K.K.K.K.K.",
"K.K.K.K.K.K.K.K.K.K.K.K.K.K.K.K.K.K.K.K.K.K.K.K.K.K.K.K.K.K.K.K.K.K.K.K.K.K.K.K.K.K.K.K.K.K.K.K.K.K.K.K.K.K.K.K.K.K.K.K.K.K.K.K.",
"K.K.K.K.K.K.K.K.K.K.K.K.K.K.K.K.K.K.K.K.K.K.K.K.t t j K F F K.K.K.K.K.K.K.K.K.K.K.K.K.K.K.K.K.K.K.K.K.K.K.K.K.K.K.K.K.K.K.K.K.K.",
"K.K.K.K.K.K.K.K.K.K.K.K.K.K.K.K.K.K.K.K.K.K.K.] [ [ E L T T I I T I K.K.K.K.K.K.K.K.K.K.K.K.K.K.K.K.K.K.K.K.K.K.K.K.K.K.K.K.K.K.",
"K.K.K.K.K.K.K.K.K.K.K.K.K.K.K.K.K.K.K.K.K.} i.l.x.x.w.n D W I A L E I K.K.K.K.K.K.K.K.K.K.K.K.K.K.K.K.K.K.K.K.K.K.K.K.K.K.K.K.K.",
"K.K.K.K.K.K.K.K.K.K.K.K.K.K.K.K.K.K.K.K.-.u.N.J.J.G.v.1.K g F l C L E I K.K.K.K.K.K.K.K.K.K.K.K.K.K.K.K.K.K.K.K.K.K.K.K.K.K.K.K.",
"K.K.K.K.K.K.K.K.K.K.K.K.K.K.K.K.K.K.K.K.s.C.D.D.F.G.G.b.+.w f f f C I I K.K.K.K.K.K.K.K.K.K.K.K.K.K.K.K.K.K.K.K.K.K.K.K.K.K.K.K.",
"K.K.K.K.K.K.K.K.K.K.K.K.K.K.K.K.K.K.K.z.M.Z.d.k.F.G.G.G.b.5.4 1 8 B I K c K K.K.K.K.K.K.K.K.K.K.K.K.K.K.K.K.K.K.K.K.K.K.K.K.K.K.",
"K.K.K.K.K.K.K.K.I K.K.K.K.K.K.K.K.K.1.b.J.B.>.d.G.G.G.G.S.t.4 : k l A Z B F F P Y L K.K.K.K.K.K.K.K.K.K.K.K.K.K.K.K.K.K.K.K.K.K.",
"K.K.K.K.K.K.M P T I I T I I I I I a *.m.J.B.,.d.G.G.F.C.v.4.4 1 k f k k f k F I T T I K.K.K.K.K.K.K.K.K.K.K.K.K.K.K.K.K.K.K.K.K.",
"K.K.K.K.# o , l Z C C Z Z C Z C c ; X.m.J.B.<.f.G.G.N.v.x.5.4 1 f f f f f f l C C L T I I I K.K.K.K.K.K.K.K.+ + % K.K.K.K.K.K.K.",
"K.K.K.K.k 7 2 8 f f f f f f f f s * / q.b.H.j.V.G.N.v.g.r.X.Z b F A l f f k f f f C K K F K K K.I L K.K.K.  $ 8 Z F K.K.K.K.K.K.",
"K.K.K.K.Y F k f k f k f k f f f f k 5 q 0.C.D.D.C.v.h.p.' j U J J L B f f k k k f k k k f l L I I I F K.< $ 4 L W P l 4 @ + K.K.",
"K.K.K.K.8 k k k f k k k f f f K.k N 5 $ G ;.z.b.v.x.r.%.J D I h d C l f k f f k k f f f f k C C C B F I L l l I P C l s 7 < K.K.",
"K.K.K.< % , 4 f k k k k k f K.K.K.d K.7 @ 9 +.4.6.w.*.m i ; ' q.:.7 5 k k k f 8 k k f k k f 8 f f f C K K Z B F C f f k N K.K.K.",
"K.K.K., # . , N l 8 M k f K.K.K.K.K.K.s = 9 | / V =...' ] e _ z.t.4 : k k f N K.f f k f k k k f f f f f k f f f k f k k f K.K.K.",
"K.K.K.% + . w P l = 3 K.K.K.K.K.K.K.K.K.. ( g.3.( l.7.| z.9.0 ^ G < 7 k k k K.K.K.M k k k k k k k f k f f f f f f k N M K.K.K.K.",
"K.K.K.K.K.K.K.Z k K.K.K.K.K.K.K.K.K.K.K.K.( 0.@.~ 0.O.V 0.$.$     , f k M f K.K.K.K.f w k f f k k k k k k k k k k f 4 2 K.K.K.K.",
"K.K.K.K.K.K.K.4 K.K.K.K.K.K.K.K.K.K.K.K.K.K.& # + % # + % # + O . O 5 N f K.K.K.K.K.K.K.K.N k f k k k k k k k k k s $ o K.K.K.K.",
"K.K.K.K.K.K.K.K.K.K.K.K.K.K.K.K.K.K.K.K.K.K.+ # % + # % + # % $ $ , 7 l f K.K.K.K.K.K.K.K.r N f k k k k k k f f N 8 $ o # K.K.K.",
"K.K.K.K.K.K.K.K.K.K.K.K.K.K.K.K.K.K.K.K.K.K.9 $.8.G @.q.G @.q.G O.t.) - k F K.K.K.6 K.K.K.K.M k k k k k f f k f N 8 % o # K.K.K.",
"K.K.K.K.K.K.K.K.K.K.K.K.K.K.K.K.K.K.K.K.K.K.K.q.a.| 8.z. .7.z. .7.x. .* Z T T K.2 , 2 K.K.K.f N f N M f k k f f 8 K.K.K.K.K.K.K.",
"K.K.K.K.K.K.K.K.K.K.K.K.K.K.K.K.K.K.K.K.K.K.K.K. .R { %.Q { &.Q { ..S c U U E K 2 . $ K.K.K.K.K.K.K.M f f N f = $ K.K.K.K.K.K.K.",
"K.K.K.K.K.K.K.K.K.K.K.K.K.K.K.K.K.K.3 7 Z K.K.K.v A x i Z z p b x t u K E K A Z 3 o o K.K.K.K.K.K.K.K.K.K.N 6 # o K.K.K.K.K.K.K.",
"K.K.K.K.K.K.K.K.K.K.K.K.K.K.K.K.K., 4 N K K A K K l s s f f f s u K.K.K T B 8 f K.K.+ K.K.K.K.K.K.K.K.K.K.K.K.+ K.K.K.K.K.K.K.K.",
"K.K.K.K.K.K.K.K.K.K.K.K.K.K.K.K.3 $ < L F Z P K l f K.K.s f f K.K.K.K.P L B 7 K.K.K.K.K.K.K.K.K.K.K.K.K.K.K.K.K.K.K.K.K.K.K.K.K.",
"K.K.K.K.K.K.K.K.K.K.K.K.K.K.K.K.% $ 6 A C k Z C f 8 K.K.K.f f K.K.K.K.Z C 4 , K.K.K.K.K.K.K.K.K.K.K.K.K.K.K.K.K.K.K.K.K.K.K.K.K.",
"K.K.K.K.K.K.K.K.K.K.K.K.K.K.K.K.+ K.K.8 f f f f f K.K.K.K.K.l K.K.K.k k 4 = % K.K.K.K.K.K.K.K.K.K.K.K.K.K.K.K.K.K.K.K.K.K.K.K.K.",
"K.K.K.K.K.K.K.K.K.K.K.K.K.K.K.K.K.K.K.2 7 k f f K.K.K.K.K.K.B P K.K.k 2 $ , 3 3 K.K.K.K.K.K.K.K.K.K.K.K.K.K.K.K.K.K.K.K.K.K.K.K.",
"K.K.K.K.K.K.K.K.K.K.K.K.K.K.K.K.K.K.< $ , w K.K.K.K.K.K.K.K.C T I K.K.K.K.K.K.K.K.K.K.K.K.K.K.K.K.K.K.K.K.K.K.K.K.K.K.K.K.K.K.K.",
"K.K.K.K.K.K.K.K.K.K.K.K.K.K.K.K.K.K.< % K.K.K.K.K.K.K.K.K.K.c I I K.K.K.K.K.K.K.K.K.K.K.K.K.K.K.K.K.K.K.K.K.K.K.K.K.K.K.K.K.K.K.",
"K.K.K.K.K.K.K.K.K.K.K.K.K.K.K.K.K.K.K.K.K.K.K.K.K.K.K.K.K.7 B I I K.K.K.K.K.K.K.K.K.K.K.K.K.K.K.K.K.K.K.K.K.K.K.K.K.K.K.K.K.K.K.",
"K.K.K.K.K.K.K.K.K.K.K.K.K.K.K.K.K.K.K.K.K.K.K.K.K.K.K.K.K.7 C I L K.K.K.K.K.K.K.K.K.K.K.K.K.K.K.K.K.K.K.K.K.K.K.K.K.K.K.K.K.K.K.",
"K.K.K.K.K.K.K.K.K.K.K.K.K.K.K.K.K.K.K.K.K.K.K.K.K.K.K.K.K.8 N F F K.K.K.K.K.K.K.K.K.K.K.K.K.K.K.K.K.K.K.K.K.K.K.K.K.K.K.K.K.K.K.",
"K.K.K.K.K.K.K.K.K.K.K.K.K.K.K.K.K.K.K.K.K.K.K.K.K.K.K.K.K.K.f f F I K.K.K.K.K.K.K.K.K.K.K.K.K.K.K.K.K.K.K.K.K.K.K.K.K.K.K.K.K.K.",
"K.K.K.K.K.K.K.K.K.K.K.K.K.K.K.K.K.K.K.K.K.K.K.K.K.K.K.K.K.K.8 f F T K.K.K.K.K.K.K.K.K.K.K.K.K.K.K.K.K.K.K.K.K.K.K.K.K.K.K.K.K.K.",
"K.K.K.K.K.K.K.K.K.K.K.K.K.K.K.K.K.K.K.K.K.K.K.K.K.K.K.K.K.K.K.f Z K K.K.K.K.K.K.K.K.K.K.K.K.K.K.K.K.K.K.K.K.K.K.K.K.K.K.K.K.K.K.",
"K.K.K.K.K.K.K.K.K.K.K.K.K.K.K.K.K.K.K.K.K.K.K.K.K.K.K.K.K.K.K.d l K.K.K.K.K.K.K.K.K.K.K.K.K.K.K.K.K.K.K.K.K.K.K.K.K.K.K.K.K.K.K.",
"K.K.K.K.K.K.K.K.K.K.K.K.K.K.K.K.K.K.K.K.K.K.K.K.K.K.K.K.K.K.K.K.K.K.K.K.K.K.K.K.K.K.K.K.K.K.K.K.K.K.K.K.K.K.K.K.K.K.K.K.K.K.K.K.",
"K.K.K.K.K.K.K.K.K.K.K.K.K.K.K.K.K.K.K.K.K.K.K.K.K.K.K.K.K.K.K.K.K.K.K.K.K.K.K.K.K.K.K.K.K.K.K.K.K.K.K.K.K.K.K.K.K.K.K.K.K.K.K.K.",
"K.K.K.K.K.K.K.K.K.K.K.K.K.K.K.K.K.K.K.K.K.K.K.K.K.K.K.K.K.K.K.K.K.K.K.K.K.K.K.K.K.K.K.K.K.K.K.K.K.K.K.K.K.K.K.K.K.K.K.K.K.K.K.K.",
"K.K.K.K.K.K.K.K.K.K.K.K.K.K.K.K.K.K.K.K.K.K.K.K.K.K.K.K.K.K.K.K.K.K.K.K.K.K.K.K.K.K.K.K.K.K.K.K.K.K.K.K.K.K.K.K.K.K.K.K.K.K.K.K.",
"K.K.K.K.K.K.K.K.K.K.K.K.K.K.K.K.K.K.K.K.K.K.K.K.K.K.K.K.K.K.K.K.K.K.K.K.K.K.K.K.K.K.K.K.K.K.K.K.K.K.K.K.K.K.K.K.K.K.K.K.K.K.K.K.",
"K.K.K.K.K.K.K.K.K.K.K.K.K.K.K.K.K.K.K.K.K.K.K.K.K.K.K.K.K.K.K.K.K.K.K.K.K.K.K.K.K.K.K.K.K.K.K.K.K.K.K.K.K.K.K.K.K.K.K.K.K.K.K.K.",
"K.K.K.K.K.K.K.K.K.K.K.K.K.K.K.K.K.K.K.K.K.K.K.K.K.K.K.K.K.K.K.K.K.K.K.K.K.K.K.K.K.K.K.K.K.K.K.K.K.K.K.K.K.K.K.K.K.K.K.K.K.K.K.K.",
"K.K.K.K.K.K.K.K.K.K.K.K.K.K.K.K.K.K.K.K.K.K.K.K.K.K.K.K.K.K.K.K.K.K.K.K.K.K.K.K.K.K.K.K.K.K.K.K.K.K.K.K.K.K.K.K.K.K.K.K.K.K.K.K.",
"K.K.K.K.K.K.K.K.K.K.K.K.K.K.K.K.K.K.K.K.K.K.K.K.K.K.K.K.K.K.K.K.K.K.K.K.K.K.K.K.K.K.K.K.K.K.K.K.K.K.K.K.K.K.K.K.K.K.K.K.K.K.K.K.",
"K.K.K.K.K.K.K.K.K.K.K.K.K.K.K.K.K.K.K.K.K.K.K.K.K.K.K.K.K.K.K.K.K.K.K.K.K.K.K.K.K.K.K.K.K.K.K.K.K.K.K.K.K.K.K.K.K.K.K.K.K.K.K.K.",
"K.K.K.K.K.K.K.K.K.K.K.K.K.K.K.K.K.K.K.K.K.K.K.K.K.K.K.K.K.K.K.K.K.K.K.K.K.K.K.K.K.K.K.K.K.K.K.K.K.K.K.K.K.K.K.K.K.K.K.K.K.K.K.K.",
"K.K.K.K.K.K.K.K.K.K.K.K.K.K.K.K.K.K.K.K.K.K.K.K.K.K.K.K.K.K.K.K.K.K.K.K.K.K.K.K.K.K.K.K.K.K.K.K.K.K.K.K.K.K.K.K.K.K.K.K.K.K.K.K."
};
