/* XPM */
static char *result[] = {
/* columns rows colors chars-per-pixel */
"64 64 157 2 ",
"   c #050303",
".  c #0B0704",
"X  c #0D0805",
"o  c #0D0B0A",
"O  c #160C07",
"+  c #110D0A",
"@  c #180F08",
"#  c #15110E",
"$  c #1A140E",
"%  c #171310",
"&  c #1B1612",
"*  c #1F1812",
"=  c #1E1B18",
"-  c #2A1406",
";  c #21150B",
":  c #2C1709",
">  c #2A1809",
",  c #351907",
"<  c #331F0E",
"1  c #241C14",
"2  c #291D14",
"3  c #251E19",
"4  c #36220E",
"5  c #39220C",
"6  c #2C2116",
"7  c #2D221A",
"8  c #322216",
"9  c #3A2616",
"0  c #3E2916",
"q  c #33261A",
"w  c #392719",
"e  c #36291C",
"r  c #3D2C1E",
"t  c #2E2721",
"y  c #2C2927",
"u  c #322924",
"i  c #3D2E21",
"p  c #352E2C",
"a  c #3E3024",
"s  c #46160E",
"d  c #472206",
"f  c #4C2509",
"g  c #4C2A0C",
"h  c #432B16",
"j  c #4C2F14",
"k  c #412E1E",
"l  c #4D2D1B",
"z  c #44311F",
"x  c #4F3019",
"c  c #523317",
"v  c #593012",
"b  c #53311C",
"n  c #53381E",
"m  c #623617",
"M  c #623C13",
"N  c #412F20",
"B  c #423121",
"V  c #4A3624",
"C  c #4E3926",
"Z  c #4E3A29",
"A  c #503720",
"S  c #533B25",
"D  c #533D2A",
"F  c #4A3C31",
"G  c #57402A",
"H  c #5B432D",
"J  c #44413F",
"K  c #5D4631",
"L  c #674527",
"P  c #684521",
"I  c #63462C",
"U  c #67492D",
"Y  c #694B2F",
"T  c #614730",
"R  c #654A33",
"E  c #694D34",
"W  c #654F3C",
"Q  c #6D5036",
"!  c #6C523C",
"~  c #715338",
"^  c #454240",
"/  c #494440",
"(  c #4F4D4A",
")  c #564A41",
"_  c #534E4B",
"`  c #52504E",
"'  c #5C5148",
"]  c #655047",
"[  c #66564A",
"{  c #69584F",
"}  c #715345",
"|  c #775E4A",
" . c #785F4A",
".. c #665D56",
"X. c #6D5E55",
"o. c #725950",
"O. c #7D654E",
"+. c #7C6453",
"@. c #72645B",
"#. c #7A6B62",
"$. c #716F6E",
"%. c #7A6E6A",
"&. c #72706E",
"*. c #737270",
"=. c #7C7977",
"-. c #806755",
";. c #836E5E",
":. c #867061",
">. c #86726B",
",. c #817B76",
"<. c #857F7B",
"1. c #E85758",
"2. c #E85C5D",
"3. c #E86062",
"4. c #968479",
"5. c #8D8A88",
"6. c #938783",
"7. c #938885",
"8. c #9B8D85",
"9. c #908B88",
"0. c #99938F",
"q. c #969594",
"w. c #999693",
"e. c #9C9996",
"r. c #9C9A9A",
"t. c #A29D9B",
"y. c #AB9D98",
"u. c #A3A09D",
"i. c #ADA49D",
"p. c #ADA6A4",
"a. c #B6B5B4",
"s. c #B9B9B8",
"d. c #E99596",
"f. c #E89898",
"g. c #C3BCBC",
"h. c #EBAFB0",
"j. c #E8B5B5",
"k. c #C2C0BF",
"l. c #C4C3C2",
"z. c #CBC5C3",
"x. c #CFCAC8",
"c. c #D2CBCB",
"v. c #D4D2D2",
"b. c #D6D8D7",
"n. c #D9D8D7",
"m. c #DCDCDC",
"M. c #EAC5C5",
"N. c #E8CECF",
"B. c #E9D0D0",
"V. c #E1DFDF",
"C. c #EADADA",
"Z. c #DEE0DF",
"A. c #E4E2E3",
"S. c #EAE3E3",
"D. c #EAEBEB",
"F. c #EEF3F3",
"G. c None",
/* pixels */
"G.G.G.G.G.G.G.G.G.G.G.G.G.G.G.G.G.G.G.G.G.G.G.G.G.G.G.G.G.G.G.G.G.G.G.G.G.G.G.G.G.G.G.G.G.G.G.G.G.G.G.G.G.G.G.G.G.G.G.G.G.G.G.G.",
"G.G.G.G.G.G.G.G.G.G.G.G.G.G.G.G.G.G.G.G.G.G.G.G.G.G.G.G.G.G.G.G.G.G.G.G.G.G.G.G.G.G.G.G.G.G.G.G.G.G.G.G.G.G.G.G.G.G.G.G.G.G.G.G.",
"G.G.G.G.G.G.G.G.G.G.G.G.G.G.G.G.G.G.G.G.G.G.G.G.G.G.G.G.G.G.G.G.G.G.G.G.G.G.G.G.G.G.G.G.G.G.G.G.G.G.G.G.G.G.G.G.G.G.G.G.G.G.G.G.",
"G.G.G.G.G.G.G.G.G.G.G.G.G.G.G.G.G.G.G.G.G.G.G.G.G.G.G.G.G.G.G.G.G.G.G.G.G.G.G.G.G.G.G.G.G.G.G.G.G.G.G.G.G.G.G.G.G.G.G.G.G.G.G.G.",
"G.G.G.G.G.G.G.G.G.G.G.G.G.G.G.G.G.G.G.G.G.G.G.G.G.G.G.G.G.G.G.G.G.G.G.G.G.G.G.G.G.G.G.G.G.G.G.G.G.G.G.G.G.G.G.G.G.G.G.G.G.G.G.G.",
"G.G.G.G.G.G.G.G.G.G.G.G.G.G.G.G.G.G.G.G.G.G.G.G.G.G.G.G.G.G.G.G.G.G.G.G.G.G.G.G.G.G.G.G.G.G.G.G.G.G.G.G.G.G.G.G.G.G.G.G.G.G.G.G.",
"G.G.G.G.G.G.G.G.G.G.G.G.G.G.G.G.G.G.G.G.G.G.G.G.G.G.G.G.G.G.G.G.G.G.G.G.G.G.G.G.G.G.G.G.G.G.G.G.G.G.G.G.G.G.G.G.G.G.G.G.G.G.G.G.",
"G.G.G.G.G.G.G.G.G.G.G.G.G.G.G.G.G.G.G.G.G.G.G.G.G.G.G.G.G.G.G.G.G.G.G.G.G.G.G.G.G.G.G.G.G.G.G.G.G.G.G.G.G.G.G.G.G.G.G.G.G.G.G.G.",
"G.G.G.G.G.G.G.G.G.G.G.G.G.G.G.G.G.G.G.G.G.G.G.G.G.G.G.G.G.G.G.G.G.G.G.G.G.G.G.G.G.G.G.G.G.G.G.G.G.G.G.G.G.G.G.G.G.G.G.G.G.G.G.G.",
"G.G.G.G.G.G.G.G.G.G.G.G.G.G.G.G.G.G.G.G.G.G.G.G.G.G.G.G.G.G.G.G.G.G.G.G.G.G.G.G.G.G.G.G.G.G.G.G.G.G.G.G.G.G.G.G.G.G.G.G.G.G.G.G.",
"G.G.G.G.G.G.G.G.G.G.G.G.G.G.G.G.G.G.G.G.G.G.G.G.G.G.G.G.G.G.G.G.G.G.G.G.G.G.G.G.G.G.G.G.G.G.G.G.G.G.G.G.G.G.G.G.G.G.G.G.G.G.G.G.",
"G.G.G.G.G.G.G.G.G.G.G.G.G.G.G.G.G.G.G.G.G.G.G.G.G.G.G.G.G.G.G.G.G.G.G.G.G.G.G.G.G.G.G.G.G.G.G.G.G.G.G.G.G.G.G.G.G.G.G.G.G.G.G.G.",
"G.G.G.G.G.G.G.G.G.G.G.G.G.G.G.G.G.G.G.G.G.G.G.G.G.G.G.G.G.G.G.G.G.G.G.G.G.G.G.G.G.G.G.G.G.G.G.G.G.G.G.G.G.G.G.G.G.G.G.G.G.G.G.G.",
"G.G.G.G.G.G.G.G.G.G.G.G.G.G.G.G.G.G.G.G.G.G.G.G.G.G.G.G.G.G.G.G.G.G.G.G.G.G.G.G.G.G.G.G.G.G.G.G.G.G.G.G.G.G.G.G.G.G.G.G.G.G.G.G.",
"G.G.G.G.G.G.G.G.G.G.G.G.G.G.G.G.G.G.G.G.G.G.G.G.G.G.G.G.G.G.G.G.G.G.G.G.G.G.G.G.G.G.G.G.G.G.G.G.G.G.G.G.G.G.G.G.G.G.G.G.G.G.G.G.",
"G.G.G.G.G.G.G.G.G.G.G.G.G.G.G.G.G.G.G.G.G.G.G.G.G.G.G.G.G.G.G.G.G.G.G.G.G.G.G.G.G.G.G.G.G.G.G.G.G.G.G.G.G.G.G.G.G.G.G.G.G.G.G.G.",
"G.G.G.G.G.G.G.G.G.G.G.G.G.G.G.G.G.G.G.G.G.G.G.G.G.G.G.G.G.G.G.G.G.G.H K H l s s G.G.G.G.G.G.G.G.G.G.G.G.G.G.G.G.G.G.G.G.G.G.G.G.",
"G.G.G.G.G.G.G.G.G.G.G.G.G.G.G.G.G.G.G.G.G.G.G.G.G.G.G.G.G.G.E E E E E Y U ! } } [ G.G.G.G.G.G.G.G.G.G.G.G.G.G.G.G.G.G.G.G.G.G.G.",
"G.G.G.G.G.G.G.G.G.G.G.G.G.G.G.G.G.G.G.G.G.G.G.G.G.G.G.G.G.E E T G E ~ P m 8.z.z.k.p.o.G.G.G.G.G.G.G.G.G.G.G.G.G.G.G.G.G.G.G.G.G.",
"G.G.G.G.G.G.G.G.G.G.G.G.G.G.G.G.G.G.G.G.G.G.G.G.G.G.G.G.E E R V V G j H 4.x.F.D.F.Z.i.>.G.G.G.G.G.G.G.G.G.G.G.G.G.G.G.G.G.G.G.G.",
"G.G.G.G.G.G.G.G.G.G.G.G.G.G.G.G.G.G.G.G.G.G.G.G.G.G.G.G.R R C N r k e %.v.D.D.D.S.S.m.s.G.G.G.G.G.G.G.G.G.G.G.G.G.G.G.G.G.G.G.G.",
"G.G.G.G.G.G.G.G.G.G.G.G.G.G.G.G.G.G.G.G.G.G.G.G.G.G.T V H R V r 8 8 9.v.D.D.D.D.j.f.C.m.l.G.G.G.G.G.G.G.G.G.G.G.G.G.G.G.G.G.G.G.",
"G.G.G.G.G.G.G.G.G.G.G.G.G.G.G.G.G.G.G.G.G.G.T R K K H V S H V N < 8 t.A.D.D.D.D.d.1.N.F.v.4.G.G.G.G.G.G.G.G.G.R G.G.G.G.G.G.G.G.",
"G.G.G.G.G.G.G.G.G.G.G.G.G.G.G.G.G.G.G.G.G.R R R R D k N B B k B 4 8 6.c.A.A.D.D.f.3.N.F.n.:.v Y R R E R R R E R R B G.G.G.G.G.G.",
"G.G.G.G.G.G.G.& o o G.G.G.G.G.G.G.G.R Q R Q T S C V r a N k k N 4 8 7.z.x.V.D.D.d.2.B.F.n.@., V C C C C C S C C V 1 o % G.G.G.G.",
"G.G.G.G.G.G.H Z i $ . G.G.G.T R G.K H K I H Z r r B z z N V D H S S #.y.g.c.m.D.M.h.S.n.t.) : k i z i i i i i z e 6 e B G.G.G.G.",
"G.G.+ @ 8 V T Q T 6 # 3 G.K T E E T V i B z B N z z z a N V R L L E b ] p.g.z.V.D.S.m.e.u 9 N N z z i z z z z i N B D K G.G.G.G.",
"G.G.3 e r B C T E V V I R G C C C C B r r i B B i a z z B B V h h E L L -.y.z.c.v.g.<.J $ 9 B N G.z z z i z a z B B B B G.G.G.G.",
"G.G.G.B B N r C G V C H I C r r r r B B z B B B i i B B B 9 w ,.t.[ < f M ;.8.8.8.%.q @ w G.k G.G.G.B B B B B a r q 1 & 3 G.G.G.",
"G.G.G.N B B N B i z z z B B z B B B B z i B B N G.z B B B 4 8 u.z.` p { E -.;.Z J ..t ; r G.G.G.G.G.G.i B a r V B * . # 3 G.G.G.",
"G.G.G.G.i B B B k B z a a z B B B z B z B B i G.G.G.B B B w 2 J ( y q.l...w.g._ 5.l._ . G.G.G.G.G.G.G.G.G.7 ; V K i . + & G.G.G.",
"G.G.G.G.6 q i B B B B B z B B B B B B a a z G.G.G.G.i B B r 1     % =.w.J $.q.^ &.w._ G.G.G.G.G.G.G.G.G.G.G.G.i D G.G.G.G.G.G.G.",
"G.G.G.G.o $ e V z a B B B B B B B B B G.G.G.G.G.G.G.G.N B w @ X O . + & o + & o # = G.G.G.G.G.G.G.G.G.G.G.G.G.G.8 G.G.G.G.G.G.G.",
"G.G.G.# o $ r B k z V B B B B B B a a G.G.G.G.G.G.G.G.N B w = % $ & % + & % + & # + G.G.G.G.G.G.G.G.G.G.G.G.G.G.G.G.G.G.G.G.G.G.",
"G.G.G.# o * e B B B B B B B B B B B G.G.G.G.7 G.G.G.H B : ' t.*.^ r.*.^ r.*.^ q.=.t G.G.G.G.G.G.G.G.G.G.G.G.G.G.G.G.G.G.G.G.G.G.",
"G.G.G.G.G.G.G.e r B B B B B a B a B G.G.G.3 1 6 G.E R S - ..l.0...l.w...l.w...a.r.G.G.G.G.G.G.G.G.G.G.G.G.G.G.G.G.G.G.G.G.G.G.G.",
"G.G.G.G.G.G.G.% 1 r B B B i G.G.G.G.G.G.G.& . 6 K E Q E n D +.O.! +.O.! -.| W X.G.G.G.G.G.G.G.G.G.G.G.G.G.G.G.G.G.G.G.G.G.G.G.G.",
"G.G.G.G.G.G.G.o + q a G.G.G.G.G.G.G.G.G.G.+ o 7 D D H E H h d b S g c S g c S n G.G.G.D e 7 G.G.G.G.G.G.G.G.G.G.G.G.G.G.G.G.G.G.",
"G.G.G.G.G.G.G.G.+ G.G.G.G.G.G.G.G.G.G.G.G.o G.G.r r V E K G.G.h k k k r h 0 V H K H T H V 7 1 G.G.G.G.G.G.G.G.G.G.G.G.G.G.G.G.G.",
"G.G.G.G.G.G.G.G.G.G.G.G.G.G.G.G.G.G.G.G.G.G.G.G.G.e V R T G.G.G.G.k N k G.G.k V H T Z H H 6 % 6 G.G.G.G.G.G.G.G.G.G.G.G.G.G.G.G.",
"G.G.G.G.G.G.G.G.G.G.G.G.G.G.G.G.G.G.G.G.G.G.G.G.G.1 8 C C G.G.G.G.B N G.G.G.r i C D B C D 7 # 1 G.G.G.G.G.G.G.G.G.G.G.G.G.G.G.G.",
"G.G.G.G.G.G.G.G.G.G.G.G.G.G.G.G.G.G.G.G.G.G.G.G.G.& $ q r z G.G.G.B G.G.G.G.G.N r N z k r G.G.+ G.G.G.G.G.G.G.G.G.G.G.G.G.G.G.G.",
"G.G.G.G.G.G.G.G.G.G.G.G.G.G.G.G.G.G.G.G.G.G.G.G.7 7 3 % 8 B G.G.R V G.G.G.G.G.G.i B B e 6 G.G.G.G.G.G.G.G.G.G.G.G.G.G.G.G.G.G.G.",
"G.G.G.G.G.G.G.G.G.G.G.G.G.G.G.G.G.G.G.G.G.G.G.G.G.G.G.G.G.G.G.R R V G.G.G.G.G.G.G.G.i 3 $ 3 G.G.G.G.G.G.G.G.G.G.G.G.G.G.G.G.G.G.",
"G.G.G.G.G.G.G.G.G.G.G.G.G.G.G.G.G.G.G.G.G.G.G.G.G.G.G.G.G.G.G.T R V G.G.G.G.G.G.G.G.G.G.$ 3 G.G.G.G.G.G.G.G.G.G.G.G.G.G.G.G.G.G.",
"G.G.G.G.G.G.G.G.G.G.G.G.G.G.G.G.G.G.G.G.G.G.G.G.G.G.G.G.G.G.G.R R V e G.G.G.G.G.G.G.G.G.G.G.G.G.G.G.G.G.G.G.G.G.G.G.G.G.G.G.G.G.",
"G.G.G.G.G.G.G.G.G.G.G.G.G.G.G.G.G.G.G.G.G.G.G.G.G.G.G.G.G.G.G.R R V w G.G.G.G.G.G.G.G.G.G.G.G.G.G.G.G.G.G.G.G.G.G.G.G.G.G.G.G.G.",
"G.G.G.G.G.G.G.G.G.G.G.G.G.G.G.G.G.G.G.G.G.G.G.G.G.G.G.G.G.G.G.H H V r G.G.G.G.G.G.G.G.G.G.G.G.G.G.G.G.G.G.G.G.G.G.G.G.G.G.G.G.G.",
"G.G.G.G.G.G.G.G.G.G.G.G.G.G.G.G.G.G.G.G.G.G.G.G.G.G.G.G.G.G.R H B B G.G.G.G.G.G.G.G.G.G.G.G.G.G.G.G.G.G.G.G.G.G.G.G.G.G.G.G.G.G.",
"G.G.G.G.G.G.G.G.G.G.G.G.G.G.G.G.G.G.G.G.G.G.G.G.G.G.G.G.G.G.E H k e G.G.G.G.G.G.G.G.G.G.G.G.G.G.G.G.G.G.G.G.G.G.G.G.G.G.G.G.G.G.",
"G.G.G.G.G.G.G.G.G.G.G.G.G.G.G.G.G.G.G.G.G.G.G.G.G.G.G.G.G.G.K D k G.G.G.G.G.G.G.G.G.G.G.G.G.G.G.G.G.G.G.G.G.G.G.G.G.G.G.G.G.G.G.",
"G.G.G.G.G.G.G.G.G.G.G.G.G.G.G.G.G.G.G.G.G.G.G.G.G.G.G.G.G.G.G.z k G.G.G.G.G.G.G.G.G.G.G.G.G.G.G.G.G.G.G.G.G.G.G.G.G.G.G.G.G.G.G.",
"G.G.G.G.G.G.G.G.G.G.G.G.G.G.G.G.G.G.G.G.G.G.G.G.G.G.G.G.G.G.G.G.G.G.G.G.G.G.G.G.G.G.G.G.G.G.G.G.G.G.G.G.G.G.G.G.G.G.G.G.G.G.G.G.",
"G.G.G.G.G.G.G.G.G.G.G.G.G.G.G.G.G.G.G.G.G.G.G.G.G.G.G.G.G.G.G.G.G.G.G.G.G.G.G.G.G.G.G.G.G.G.G.G.G.G.G.G.G.G.G.G.G.G.G.G.G.G.G.G.",
"G.G.G.G.G.G.G.G.G.G.G.G.G.G.G.G.G.G.G.G.G.G.G.G.G.G.G.G.G.G.G.G.G.G.G.G.G.G.G.G.G.G.G.G.G.G.G.G.G.G.G.G.G.G.G.G.G.G.G.G.G.G.G.G.",
"G.G.G.G.G.G.G.G.G.G.G.G.G.G.G.G.G.G.G.G.G.G.G.G.G.G.G.G.G.G.G.G.G.G.G.G.G.G.G.G.G.G.G.G.G.G.G.G.G.G.G.G.G.G.G.G.G.G.G.G.G.G.G.G.",
"G.G.G.G.G.G.G.G.G.G.G.G.G.G.G.G.G.G.G.G.G.G.G.G.G.G.G.G.G.G.G.G.G.G.G.G.G.G.G.G.G.G.G.G.G.G.G.G.G.G.G.G.G.G.G.G.G.G.G.G.G.G.G.G.",
"G.G.G.G.G.G.G.G.G.G.G.G.G.G.G.G.G.G.G.G.G.G.G.G.G.G.G.G.G.G.G.G.G.G.G.G.G.G.G.G.G.G.G.G.G.G.G.G.G.G.G.G.G.G.G.G.G.G.G.G.G.G.G.G.",
"G.G.G.G.G.G.G.G.G.G.G.G.G.G.G.G.G.G.G.G.G.G.G.G.G.G.G.G.G.G.G.G.G.G.G.G.G.G.G.G.G.G.G.G.G.G.G.G.G.G.G.G.G.G.G.G.G.G.G.G.G.G.G.G.",
"G.G.G.G.G.G.G.G.G.G.G.G.G.G.G.G.G.G.G.G.G.G.G.G.G.G.G.G.G.G.G.G.G.G.G.G.G.G.G.G.G.G.G.G.G.G.G.G.G.G.G.G.G.G.G.G.G.G.G.G.G.G.G.G.",
"G.G.G.G.G.G.G.G.G.G.G.G.G.G.G.G.G.G.G.G.G.G.G.G.G.G.G.G.G.G.G.G.G.G.G.G.G.G.G.G.G.G.G.G.G.G.G.G.G.G.G.G.G.G.G.G.G.G.G.G.G.G.G.G.",
"G.G.G.G.G.G.G.G.G.G.G.G.G.G.G.G.G.G.G.G.G.G.G.G.G.G.G.G.G.G.G.G.G.G.G.G.G.G.G.G.G.G.G.G.G.G.G.G.G.G.G.G.G.G.G.G.G.G.G.G.G.G.G.G.",
"G.G.G.G.G.G.G.G.G.G.G.G.G.G.G.G.G.G.G.G.G.G.G.G.G.G.G.G.G.G.G.G.G.G.G.G.G.G.G.G.G.G.G.G.G.G.G.G.G.G.G.G.G.G.G.G.G.G.G.G.G.G.G.G.",
"G.G.G.G.G.G.G.G.G.G.G.G.G.G.G.G.G.G.G.G.G.G.G.G.G.G.G.G.G.G.G.G.G.G.G.G.G.G.G.G.G.G.G.G.G.G.G.G.G.G.G.G.G.G.G.G.G.G.G.G.G.G.G.G."
};
