/* XPM */
static char *result[] = {
/* columns rows colors chars-per-pixel */
"64 64 160 2 ",
"   c #040200",
".  c #0A0704",
"X  c #0D0A06",
"o  c #0D0B09",
"O  c #120C07",
"+  c #110E0B",
"@  c #14110D",
"#  c #1B150E",
"$  c #151210",
"%  c #1C1611",
"&  c #1E1812",
"*  c #241204",
"=  c #241309",
"-  c #2A1A0F",
";  c #331D0D",
":  c #241B14",
">  c #291F15",
",  c #331D15",
"<  c #3A230D",
"1  c #2D2117",
"2  c #26211C",
"3  c #2C221A",
"4  c #332215",
"5  c #3D2715",
"6  c #3E2A16",
"7  c #32251A",
"8  c #36281B",
"9  c #3D2D1E",
"0  c #3E2E21",
"q  c #302C28",
"w  c #3E3022",
"e  c #35302B",
"r  c #3A3532",
"t  c #431F0C",
"y  c #47290D",
"u  c #4A2B0A",
"i  c #4D2713",
"p  c #432B15",
"a  c #4A2B15",
"s  c #43261B",
"d  c #412F1E",
"f  c #492D19",
"g  c #572C15",
"h  c #552F19",
"j  c #43301E",
"k  c #4A321C",
"l  c #5E3810",
"z  c #54301A",
"x  c #5A3519",
"c  c #5A3A1E",
"v  c #633A16",
"b  c #412F20",
"n  c #423121",
"m  c #4A3624",
"M  c #4D3926",
"N  c #41342C",
"B  c #493728",
"V  c #4E3B2A",
"C  c #513A27",
"Z  c #5D3E22",
"A  c #543D29",
"S  c #453D38",
"D  c #57412D",
"F  c #5B432D",
"G  c #4E4037",
"H  c #42403E",
"J  c #4D453F",
"K  c #5D4631",
"L  c #62462D",
"P  c #69452A",
"I  c #674A2E",
"U  c #69492C",
"Y  c #634424",
"T  c #614730",
"R  c #644A33",
"E  c #6A4E34",
"W  c #6E5136",
"Q  c #705237",
"!  c #715239",
"~  c #494643",
"^  c #56514E",
"/  c #5E524B",
"(  c #545250",
")  c #5B5753",
"_  c #634E45",
"`  c #6D4E40",
"'  c #625146",
"]  c #62544C",
"[  c #6E5C4D",
"{  c #705D4F",
"}  c #665C56",
"|  c #6B5D56",
" . c #615E5B",
".. c #725F52",
"X. c #7C6147",
"o. c #7C6656",
"O. c #74675D",
"+. c #686766",
"@. c #6D6966",
"#. c #7C726C",
"$. c #7B7774",
"%. c #8A7A6E",
"&. c #867B72",
"*. c #E85B5C",
"=. c #E86566",
"-. c #89817A",
";. c #958174",
":. c #8B8785",
">. c #8E8D8C",
",. c #968C86",
"<. c #9E9085",
"1. c #93918F",
"2. c #9D958E",
"3. c #959493",
"4. c #9E9693",
"5. c #9C9895",
"6. c #9F9C9B",
"7. c #A4978E",
"8. c #A79C93",
"9. c #AA9D96",
"0. c #A09D9B",
"q. c #AC9E9A",
"w. c #A5A29F",
"e. c #ACA39C",
"r. c #ABA1A0",
"t. c #B3A9A8",
"y. c #B9AFAE",
"u. c #BAB3AE",
"i. c #B3B4B5",
"p. c #B8B4B1",
"a. c #B9B8B7",
"s. c #BFBFBF",
"d. c #E98384",
"f. c #E89596",
"g. c #E89B9C",
"h. c #C3BABA",
"j. c #EBADAE",
"k. c #E8BDBD",
"l. c #C5C5C5",
"z. c #CDC5C5",
"x. c #C8C8C7",
"c. c #CDCCCC",
"v. c #D6CFCF",
"b. c #D1D0CF",
"n. c #D7D5D3",
"m. c #D8D7D5",
"M. c #D8D8D7",
"N. c #D7D8D8",
"B. c #DDDBDB",
"V. c #E9CFCF",
"C. c #E8CFD0",
"Z. c #EAD3D3",
"A. c #E0DDDD",
"S. c #E9DCDC",
"D. c #E1E1E1",
"F. c #ECE5E5",
"G. c #E7E8E8",
"H. c #EAEBEB",
"J. c #EAF0F0",
"K. c None",
/* pixels */
"K.K.K.K.K.K.K.K.K.K.K.K.K.K.K.K.K.K.K.K.K.K.K.K.K.K.K.K.K.K.K.K.K.K.K.K.K.K.K.K.K.K.K.K.K.K.K.K.K.K.K.K.K.K.K.K.K.K.K.K.K.K.K.K.",
"K.K.K.K.K.K.K.K.K.K.K.K.K.K.K.K.K.K.K.K.K.K.K.K.K.K.K.K.K.K.K.K.K.K.K.K.K.K.K.K.K.K.K.K.K.K.K.K.K.K.K.K.K.K.K.K.K.K.K.K.K.K.K.K.",
"K.K.K.K.K.K.K.K.K.K.K.K.K.K.K.K.K.K.K.K.K.K.K.K.K.K.K.K.K.K.K.K.K.K.K.K.K.K.K.K.K.K.K.K.K.K.K.K.K.K.K.K.K.K.K.K.K.K.K.K.K.K.K.K.",
"K.K.K.K.K.K.K.K.K.K.K.K.K.K.K.K.K.K.K.K.K.K.K.K.K.K.K.K.K.K.K.K.K.K.K.K.K.K.K.K.K.K.K.K.K.K.K.K.K.K.K.K.K.K.K.K.K.K.K.K.K.K.K.K.",
"K.K.K.K.K.K.K.K.K.K.K.K.K.K.K.K.K.K.K.K.K.K.K.K.K.K.K.K.K.K.K.K.K.K.K.K.K.K.K.K.K.K.K.K.K.K.K.K.K.K.K.K.K.K.K.K.K.K.K.K.K.K.K.K.",
"K.K.K.K.K.K.K.K.K.K.K.K.K.K.K.K.K.K.K.K.K.K.K.K.K.K.K.K.K.K.K.K.K.K.K.K.K.K.K.K.K.K.K.K.K.K.K.K.K.K.K.K.K.K.K.K.K.K.K.K.K.K.K.K.",
"K.K.K.K.K.K.K.K.K.K.K.K.K.K.K.K.K.K.K.K.K.K.K.K.K.K.K.K.K.K.K.K.K.K.K.K.K.K.K.K.K.K.K.K.K.K.K.K.K.K.K.K.K.K.K.K.K.K.K.K.K.K.K.K.",
"K.K.K.K.K.K.K.K.K.K.K.K.K.K.K.K.K.K.K.K.K.K.K.K.K.K.K.K.K.K.K.K.K.K.K.K.K.K.K.K.K.K.K.K.K.K.K.K.K.K.K.K.K.K.K.K.K.K.K.K.K.K.K.K.",
"K.K.K.K.K.K.K.K.K.K.K.K.K.K.K.K.K.K.K.K.K.K.K.K.K.K.K.K.K.K.K.K.K.K.K.K.K.K.K.K.K.K.K.K.K.K.K.K.K.K.K.K.K.K.K.K.K.K.K.K.K.K.K.K.",
"K.K.K.K.K.K.K.K.K.K.K.K.K.K.K.K.K.K.K.K.K.K.K.K.K.K.K.K.K.K.K.K.K.K.K.K.K.K.K.K.K.K.K.K.K.K.K.K.K.K.K.K.K.K.K.K.& o o K.K.K.K.K.",
"K.K.K.K.K.K.K.K.K.K.K.K.K.K.K.K.K.K.K.K.K.K.K.K.K.K.K.K.K.K.K.K.K.K.K.K.K.K.K.K.K.K.K.K.K.K.K.K.K.K.K.K.K.K.C 3 : # @ K.K.K.K.K.",
"K.K.K.K.K.K.K.K.K.K.K.K.K.K.K.K.K.K.K.K.K.K.K.K.K.K.K.K.K.K.K.K.K.K.K.K.K.K.K.K.K.K.K.K.K.K.K.K.K.K.K.K.K.T F 1 > 0 0 K.K.K.K.K.",
"K.K.K.& o K.K.K.K.K.K.K.K.K.K.K.3 8 3 K.K.K.K.K.K.K.K.K.K.K.K.K.K.K.K.K.K.K.K.K.K.K.K.K.K.K.K.K.K.K.K.K.T K C 8 8 m K K.K.K.K.K.",
"K.K.& > 8 m F K.K.K.K.K.K.K.K.3 : : & K.K.K.K.K.K.K.K.K.K.K.K.K.K.K.K.K.K.K.K.K.K.K.K.K.K.K.K.K.K.K.K.K L A 0 n n m D C K.K.K.K.",
"K.: + > F E R E K.K.K.K.K.K.K.> @ @ & K.K.K.K.K.K.K.K.K.K.K.K.K.K.K.K.K.K.K.K.K.K.K.K.K.K.K.K.K.K.K.K T B n 0 n n 0 : # > K.K.K.",
"K.# X : B A F E W R R K.K.K.K.: @ 9 D K.K.K.K.K.K.K.K.K.K.K.K.K.K.K.K.K.K.K.K.K.K.K.K.K.K.K.K.K.K.T K A n 9 b n n 3 o o # K.K.K.",
"K.+ X # 8 8 n F L R E E K.K.w # X n T F K.K.K.K.K.K.K.K.K.K.K.K.K.K.K.K.K.K.K.K.K.K.K.K.K.K.K.K.K K A 9 d M C m K.K.+ + + K.K.K.",
"K.+ + K.K.0 n n n M R E E E n X X 1 M R R K.K.K.K.K.K.K.K.K.K.K.K.K.K.K.K.K.K.K.K.K.K.R E R R E T M w j j D T K.K.K.K.+ + K.K.K.",
"K.K.K.K.K.0 n n 9 n M C D E M O 1 8 m E W R K.K.K.K.K.K.K.K.K.K.K.K.K.K.K.K.K.K.R R K D A A A C M n d n n M B 8 K.K.K.K.K.K.K.K.",
"K.K.K.K.K.K.n n n n d d n F A d j n m F L K K K.K.K.K.K.K.K.K.K.K.K.K.K.K.K.K.K.F T F n 9 9 0 0 b j n n n n 9 > : K.K.K.K.K.K.K.",
"K.K.K.K.K.n n n n n n n b n F T M 9 n n n m T E R K.K.K.K.K.K.K.K.K.K.K.K.u u p 6 s j n n n n n n n n n 0 n 0 % % > K.K.K.K.K.K.",
"K.K.K.K.T A n n n n n n n d m C n n n j 0 n M T W R K.K.K.K.R R R R R E Y x g i > - 9 b n n n w n 0 K.K.K.K.3 $ @ % K.K.K.K.K.K.",
"K.K.K.T F A n n n n n n n n b b n n n n n b 9 M T W R K.K.R E T R Q W v ! <.q.8.2.O.t 5 n 0 0 b 0 K.K.K.K.K.K.$ @ + K.K.K.K.K.K.",
"K.K.F K M d b n n n n n n d n n n n n n n n n b M T W R W W T M A R Y P ;.m.H.G.G.p.! f K.K.K.K.K.K.K.K.K.K.K.K.K.K.K.K.K.K.K.K.",
"K.7 7 8 9 n n n n n n n n n n n n n n n n n n j n M F Q Q L k j m p , ,.n.H.H.J.J.D.p.K.K.K.K.K.K.K.K.K.K.K.K.K.K.K.K.K.K.K.K.K.",
"3 : = > d n d n n n j n n n n n n j n n n n n n 9 9 D Q Q D j 9 ; S :.v.H.H.H.S.k.Z.B.i.K.K.K.K.K.K.K.K.K.K.K.K.K.K.K.K.K.K.K.K.",
": # 3 w n n m n b n n n n w w n n n n j n n n n d d D E R D j 9 * | b.H.H.H.H.Z.=.g.G.D.x.K.K.K.K.K.K.K.K.K.K.K.K.K.K.K.K.K.K.K.",
"# K.K.K.K.F T m 9 b n 0 K.K.K.K.K.w n n n n b n n d m M M m j d * ] h.D.H.H.H.Z.*.f.H.G.c.K.K.K.K.K.K.K.K.K.K.K.K.K.K.K.K.K.K.K.",
"o K.K.K.K.B A n w 0 b K.K.K.K.K.K.K.K.0 0 w n n n j d 0 9 d 0 9 * / y.v.M.H.J.V.*.f.F.H.c.K.K.K.K.K.K.K.K.K.K.K.K.K.K.K.K.K.K.K.",
"o K.K.K.3 1 3 9 K.K.K.K.K.K.K.K.K.K.K.K.K.K.n n n n b n n n M n < _ r.h.z.A.H.Z.d.j.G.m.a.K.K.K.K.K.K.K.K.K.K.K.K.K.K.K.K.K.K.K.",
"K.K.K.K.3 : # K.K.K.K.K.K.K.K.K.K.K.K.K.K.K.K.w b n b b n A E I I T _ 7.z.z.B.G.S.F.M.4.K.K.K.K.K.K.K.K.K.K.K.K.K.K.K.K.K.K.K.K.",
"K.K.K.K.: % K.K.K.K.K.K.K.K.K.K.K.K.K.K.K.K.K.K.b n n n n A Z i Z U h o.8.h.v.A.D.x.1.) K.K.K.K.K.K.K.K.K.K.K.K.K.K.K.K.K.K.K.K.",
"K.K.K.K.# + K.K.K.K.K.K.K.K.K.K.K.K.K.K.K.K.K.K.K.n n n n 5 V | ..F c l { 7.t.h.t.#.2 : K.K.K.K.K.K.K.K.K.K.K.K.K.K.K.K.K.K.K.K.",
"K.K.K.K.o + K.K.K.K.K.K.K.K.K.K.K.K.K.K.K.K.K.K.K.n n n d * } x.0.> > Z Q %.{ T ' r # 4 K.K.K.K.K.K.K.K.K.K.K.K.K.K.K.K.K.K.K.K.",
"K.K.K.K.$ @ K.K.K.K.K.K.K.K.K.K.K.K.K.K.K.K.K.K.K.n n n b = J 3.+.S 6.-.| e.#.S 5.$.% - K.K.K.K.K.K.K.K.K.K.K.K.K.K.K.K.K.K.K.K.",
"K.K.K.K.$ K.K.K.K.K.K.K.K.K.K.K.K.K.K.K.K.K.K.K.K.0 b n b 8 # + . ^ l.>.^ h.>.^ s.3.2 K.K.K.K.K.K.K.K.K.K.K.K.K.K.K.K.K.K.K.K.K.",
"K.K.K.K.K.K.K.K.K.K.K.K.K.K.K.K.K.K.K.K.K.K.K.K.K.K.0 n n 4 O X X 2 ~ r 2 ~ r 2 ~ ~ K.K.K.K.K.K.K.K.K.K.K.K.K.K.K.K.K.K.K.K.K.K.",
"K.K.K.K.K.K.K.K.K.K.K.K.K.K.K.K.K.K.K.K.K.3 7 K.K.K.B n d =   O .                 X K.K.K.K.K.K.K.K.K.K.K.K.K.K.K.K.K.K.K.K.K.K.",
"K.K.K.K.K.K.K.K.K.K.K.K.K.K.K.K.K.K.K.K.3 : 3 8 K.E T k 9 ) ) q ~  .q ~  .q ~  .e K.K.K.K.K.K.K.K.K.K.K.K.K.K.K.K.K.K.K.K.K.K.K.",
"K.K.K.K.K.K.K.K.K.K.K.K.K.K.K.K.K.K.K.K.% + + n E E W Z s r.x.) 3.x.) 3.x.) >.l.@.K.K.K.K.K.K.K.K.K.K.K.K.K.K.K.K.K.K.K.K.K.K.K.",
"K.K.K.K.K.K.K.K.K.K.K.K.K.K.K.K.K.K.K.K.@ o + m A A R Y m &.7...%.7.{ %.7.{ %.7.K.K.K n 3 3 K.K.K.K.K.K.K.K.K.K.K.K.K.K.K.K.K.K.",
"K.K.K.K.K.K.K.K.K.K.K.K.K.K.K.K.K.K.K.K.K.o K.K.9 9 F E M a x Y Z x Y Z x L c z C K T A 0 : 2 K.K.K.K.K.K.K.K.K.K.K.K.K.K.K.K.K.",
"K.K.K.K.K.K.K.K.K.K.K.K.K.K.K.K.K.K.K.K.K.K.K.K.K.9 F R M p p m j p m f y k p k L F C T B # : K.K.K.K.K.K.K.K.K.K.K.K.K.K.K.K.K.",
"K.K.K.K.K.K.K.K.K.K.K.K.K.K.K.K.K.K.K.K.K.K.K.K.K.- d A n d 0 9 d b d 9 K.K.9 n A M n A n $ % : K.K.K.K.K.K.K.K.K.K.K.K.K.K.K.K.",
"K.K.K.K.K.K.K.K.K.K.K.K.K.K.K.K.K.K.K.K.K.K.K.K.K.# : 8 b n b n b n n 0 K.K.K.b 0 j 0 8 K.K.+ K.K.K.K.K.K.K.K.K.K.K.K.K.K.K.K.K.",
"K.K.K.K.K.K.K.K.K.K.K.K.K.K.K.K.K.K.K.K.K.K.K.K.3 3 : # 8 n n b n j n 0 K.K.K.K.0 n 0 8 > K.K.K.K.K.K.K.K.K.K.K.K.K.K.K.K.K.K.K.",
"K.K.K.K.K.K.K.K.K.K.K.K.K.K.K.K.K.K.K.K.K.K.K.K.K.K.K.K.K.K.0 n n j n 0 K.K.K.K.K.K.7 % : > K.K.K.K.K.K.K.K.K.K.K.K.K.K.K.K.K.K.",
"K.K.K.K.K.K.K.K.K.K.K.K.K.K.K.K.K.K.K.K.K.K.K.K.K.K.K.K.K.K.K.b n n n K.K.K.K.K.K.K.K.@ : 3 K.K.K.K.K.K.K.K.K.K.K.K.K.K.K.K.K.K.",
"K.K.K.K.K.K.K.K.K.K.K.K.K.K.K.K.K.K.K.K.K.K.K.K.K.K.K.K.K.K.K.n n n K.K.K.K.K.K.K.K.K.K.K.K.K.K.K.K.K.K.K.K.K.K.K.K.K.K.K.K.K.K.",
"K.K.K.K.K.K.K.K.K.K.K.K.K.K.K.K.K.K.K.K.K.K.K.K.K.K.K.K.K.K.K m 0 K.K.K.K.K.K.K.K.K.K.K.K.K.K.K.K.K.K.K.K.K.K.K.K.K.K.K.K.K.K.K.",
"K.K.K.K.K.K.K.K.K.K.K.K.K.K.K.K.K.K.K.K.K.K.K.K.K.K.K.K.K.D F m 8 K.K.K.K.K.K.K.K.K.K.K.K.K.K.K.K.K.K.K.K.K.K.K.K.K.K.K.K.K.K.K.",
"K.K.K.K.K.K.K.K.K.K.K.K.K.K.K.K.K.K.K.K.K.K.K.K.K.K.K.K.K.m n 0 K.K.K.K.K.K.K.K.K.K.K.K.K.K.K.K.K.K.K.K.K.K.K.K.K.K.K.K.K.K.K.K.",
"K.K.K.K.K.K.K.K.K.K.K.K.K.K.K.K.K.K.K.K.K.K.K.K.K.K.K.K.R A 0 0 K.K.K.K.K.K.K.K.K.K.K.K.K.K.K.K.K.K.K.K.K.K.K.K.K.K.K.K.K.K.K.K.",
"K.K.K.K.K.K.K.K.K.K.K.K.K.K.K.K.K.K.K.K.K.K.K.K.K.K.K.K.F A b K.K.K.K.K.K.K.K.K.K.K.K.K.K.K.K.K.K.K.K.K.K.K.K.K.K.K.K.K.K.K.K.K.",
"K.K.K.K.K.K.K.K.K.K.K.K.K.K.K.K.K.K.K.K.K.K.K.K.K.K.K.K.n n b K.K.K.K.K.K.K.K.K.K.K.K.K.K.K.K.K.K.K.K.K.K.K.K.K.K.K.K.K.K.K.K.K.",
"K.K.K.K.K.K.K.K.K.K.K.K.K.K.K.K.K.K.K.K.K.K.K.K.K.K.K.K.K.K.K.K.K.K.K.K.K.K.K.K.K.K.K.K.K.K.K.K.K.K.K.K.K.K.K.K.K.K.K.K.K.K.K.K.",
"K.K.K.K.K.K.K.K.K.K.K.K.K.K.K.K.K.K.K.K.K.K.K.K.K.K.K.K.K.K.K.K.K.K.K.K.K.K.K.K.K.K.K.K.K.K.K.K.K.K.K.K.K.K.K.K.K.K.K.K.K.K.K.K.",
"K.K.K.K.K.K.K.K.K.K.K.K.K.K.K.K.K.K.K.K.K.K.K.K.K.K.K.K.K.K.K.K.K.K.K.K.K.K.K.K.K.K.K.K.K.K.K.K.K.K.K.K.K.K.K.K.K.K.K.K.K.K.K.K.",
"K.K.K.K.K.K.K.K.K.K.K.K.K.K.K.K.K.K.K.K.K.K.K.K.K.K.K.K.K.K.K.K.K.K.K.K.K.K.K.K.K.K.K.K.K.K.K.K.K.K.K.K.K.K.K.K.K.K.K.K.K.K.K.K.",
"K.K.K.K.K.K.K.K.K.K.K.K.K.K.K.K.K.K.K.K.K.K.K.K.K.K.K.K.K.K.K.K.K.K.K.K.K.K.K.K.K.K.K.K.K.K.K.K.K.K.K.K.K.K.K.K.K.K.K.K.K.K.K.K.",
"K.K.K.K.K.K.K.K.K.K.K.K.K.K.K.K.K.K.K.K.K.K.K.K.K.K.K.K.K.K.K.K.K.K.K.K.K.K.K.K.K.K.K.K.K.K.K.K.K.K.K.K.K.K.K.K.K.K.K.K.K.K.K.K.",
"K.K.K.K.K.K.K.K.K.K.K.K.K.K.K.K.K.K.K.K.K.K.K.K.K.K.K.K.K.K.K.K.K.K.K.K.K.K.K.K.K.K.K.K.K.K.K.K.K.K.K.K.K.K.K.K.K.K.K.K.K.K.K.K.",
"K.K.K.K.K.K.K.K.K.K.K.K.K.K.K.K.K.K.K.K.K.K.K.K.K.K.K.K.K.K.K.K.K.K.K.K.K.K.K.K.K.K.K.K.K.K.K.K.K.K.K.K.K.K.K.K.K.K.K.K.K.K.K.K.",
"K.K.K.K.K.K.K.K.K.K.K.K.K.K.K.K.K.K.K.K.K.K.K.K.K.K.K.K.K.K.K.K.K.K.K.K.K.K.K.K.K.K.K.K.K.K.K.K.K.K.K.K.K.K.K.K.K.K.K.K.K.K.K.K."
};
