/* XPM */
static char *right_idle1676416044[] = {
/* columns rows colors chars-per-pixel */
"64 64 243 2 ",
"   c None",
".  c #010101",
"X  c #0C0905",
"o  c #0A0B0C",
"O  c #07070A",
"+  c #13130D",
"@  c #0B0D13",
"#  c #0C1415",
"$  c #0A1819",
"%  c #131A14",
"&  c #141919",
"*  c #0D110D",
"=  c #271A09",
"-  c #291A0E",
";  c #1C231D",
":  c #12241A",
">  c #09211F",
",  c #39270A",
"<  c #292517",
"1  c #37321A",
"2  c #312712",
"3  c #141A25",
"4  c #151B26",
"5  c #091732",
"6  c #0B2828",
"7  c #142421",
"8  c #1E2A22",
"9  c #1A2528",
"0  c #19362A",
"q  c #0A2933",
"w  c #1D2533",
"e  c #1D2A36",
"r  c #0D3634",
"t  c #043537",
"y  c #113635",
"u  c #13393D",
"i  c #173835",
"p  c #0E322D",
"a  c #212C24",
"s  c #272B27",
"d  c #392A26",
"f  c #233B2D",
"g  c #243429",
"h  c #373625",
"j  c #212B3B",
"k  c #242A37",
"l  c #273C32",
"z  c #3F3633",
"x  c #482C09",
"c  c #57340B",
"v  c #463817",
"b  c #5A3919",
"n  c #453311",
"m  c #483728",
"M  c #53382B",
"N  c #1B4438",
"B  c #254132",
"V  c #2A4434",
"C  c #2A483A",
"Z  c #344A39",
"A  c #334D39",
"S  c #4D421D",
"D  c #594716",
"F  c #67541B",
"G  c #755518",
"H  c #474837",
"J  c #54502C",
"K  c #655928",
"L  c #7B4A32",
"P  c #704E30",
"I  c #776525",
"U  c #796C31",
"Y  c #7F7238",
"T  c #76601E",
"R  c #083946",
"E  c #143D42",
"W  c #193943",
"Q  c #112C4A",
"!  c #2A374A",
"~  c #333D54",
"^  c #2E3B4F",
"/  c #0F2D59",
"(  c #1B424C",
")  c #154548",
"_  c #1B4955",
"`  c #114F54",
"'  c #2A4745",
"]  c #334D42",
"[  c #2C564A",
"{  c #335345",
"}  c #3A5B4C",
"|  c #395747",
" . c #234D5B",
".. c #234753",
"X. c #394359",
"o. c #27545A",
"O. c #3A5E53",
"+. c #3A6356",
"@. c #2A6359",
"#. c #1B5A69",
"$. c #0C4C67",
"%. c #244F61",
"&. c #3C4863",
"*. c #255364",
"=. c #2A566A",
"-. c #255A6B",
";. c #295B6D",
":. c #275468",
">. c #295E72",
",. c #196876",
"<. c #2E6B7C",
"1. c #2B6476",
"2. c #336B7B",
"3. c #326B6F",
"4. c #475947",
"5. c #505948",
"6. c #68574B",
"7. c #446454",
"8. c #47695A",
"9. c #59735B",
"0. c #566850",
"q. c #6E6F4D",
"w. c #434D67",
"e. c #46526E",
"r. c #4C5874",
"t. c #505A77",
"y. c #436A64",
"u. c #4C7363",
"i. c #4A7668",
"p. c #567A67",
"a. c #5C6570",
"s. c #6C756E",
"d. c #8C7418",
"f. c #895630",
"g. c #947927",
"h. c #847737",
"j. c #90712B",
"k. c #975E2E",
"l. c #9D7755",
"z. c #916B4A",
"x. c #B77545",
"c. c #AA7447",
"v. c #8B6A52",
"b. c #5B836E",
"n. c #62836D",
"m. c #668A73",
"M. c #6D937A",
"N. c #738053",
"B. c #9A8028",
"V. c #A88929",
"C. c #B69A2A",
"Z. c #B79637",
"A. c #AA9133",
"S. c #A99318",
"D. c #D2B82D",
"F. c #CAB030",
"G. c #DCC234",
"H. c #E2C835",
"J. c #958B50",
"K. c #B19C47",
"L. c #B9A94E",
"P. c #84986C",
"I. c #B99770",
"U. c #A8B370",
"Y. c #CA8B59",
"T. c #D18B53",
"R. c #D89763",
"E. c #D39A6C",
"W. c #D6A47A",
"Q. c #C0BC63",
"!. c #E8AC7B",
"~. c #E0975D",
"^. c #DFC54E",
"/. c #2D7987",
"(. c #337C8A",
"). c #347684",
"_. c #5D6988",
"`. c #467394",
"'. c #626E91",
"]. c #6A738E",
"[. c #178291",
"{. c #33818F",
"}. c #2A8593",
"|. c #348593",
" X c #368A96",
".X c #368D9A",
"XX c #3B8B97",
"oX c #3D939E",
"OX c #32939E",
"+X c #29808B",
"@X c #3B9AA4",
"#X c #2B96A6",
"$X c #4A8D9B",
"%X c #48939E",
"&X c #778C93",
"*X c #7AA488",
"=X c #429CA3",
"-X c #4B9BA5",
";X c #499BA6",
":X c #509DA7",
">X c #7B85A4",
",X c #4AA4AA",
"<X c #52A4AD",
"1X c #54A9B2",
"2X c #58A9B2",
"3X c #5DB3BB",
"4X c #5EBABD",
"5X c #55B7B7",
"6X c #46B3B7",
"7X c #65B7BB",
"8X c #7CBABB",
"9X c #69C3BB",
"0X c #63BCC1",
"qX c #5CCAC4",
"wX c #67C9C7",
"eX c #64D3CA",
"rX c #68D3CB",
"tX c #74D4CC",
"yX c #88AE8D",
"uX c #8E96B2",
"iX c #92B0B8",
"pX c #AAB3AC",
"aX c #A4A29F",
"sX c #CBAA86",
"dX c #EEB383",
"fX c #F2BB8C",
"gX c #D2B6A5",
"hX c #98CABD",
"jX c #AFC9B8",
"kX c #F8CB9D",
"lX c #EEC296",
"zX c #D0D4BC",
"xX c #FBDAAE",
"cX c #F9D4A6",
"vX c #F0CCA6",
"bX c #9EA8C6",
"nX c #A9B3D2",
"mX c #87D3C8",
"MX c #B5DFC7",
"NX c #B7E4CB",
"BX c #C9CCC3",
"VX c #C4CEE7",
"CX c #D3E0C3",
/* pixels */
"                                                                                                                                ",
"                                          y ..*.*.2.(.(.+X+X{.2.*.=._                                                           ",
"                                      ! ( #.).$X$X-X1X5XqX5X5X5X<X$X2.#.#.o.!   e                                               ",
"                                  ( -.2.).oX<X7X7X3X3XwXeXeX9XeXwX9X2X,XoX$X).2.3.o._                                           ",
"                                ( -./.-X2X3X<X%X%XoX%XoX,X=X=X=X,X3XwXeXeXeX9X5X2X<XXX<.*.                                      ",
"                              ( -.(.-X<X1X<X=X X}.|.|.|.|.}.|.}.XX;X3XrXeXrXrX2X:X$X2.o.W                                       ",
"                              *.(.;X3X1X X X X X X X XXX X X X X|.|.,X0X0X3X<XXX1._ q # #                                       ",
"                            y -.;X4XrX5X|.|. X X X XXX X X X X X}. X:X0XeX5XXX2._ y * *                                         ",
"                            ( (.2XwXrX5X[.}. X X|. X X X|.oX<X<X;X@X6XtXNXmX,X/.*.) > :                                         ",
"                          E *.$X3X4XrX0X:X-X.X XoX.X}.oX XXX1X0XwXbX7X8XBXNXeX,X(.-.( i                                         ",
"                          u o.$X3X;X5XMXzX8XOXoX1X;X@X1X$X2. X6XmXCXpX-X8XtXrX4X-X(.=.(                                         ",
"                          W  .:X3XoX=XhXMX8X X@XqXhXpX0X$X>./.6XtXMXhX}.#XqXtXwX<X{.1._ y                                       ",
"                          E %.$X2X@X X5XeX@X/.oXqXNXCX8X|.#./.;X7XeX5X(.}.5XrX7X:X{.;.(                                         ",
"                          E *.).oX.X|.<X5X@X1.(.qXmX8X:X,.E =.(.,X4X-X1.(.<X0X;XoX(._ e                                         ",
"                          E %.).|.).(.=X:X.X1.).4X5X@X#Xy.d ! #.(.;XXX;.{.=X;X.X{.1.)                                           ",
"                          E %.).(.1.<. X X.X<.).2X1X}.{.s.L m / -.(.<.1.|. X X|.<. .E                                           ",
"                          ) *.>.1.=.). X X X<.).2X1X[.,.l.x.f.m ) -.=.>.(..X|.2. .E                                             ",
"                          6 ( %.:.=.)..X X).*.=.;X;X}.>.6.f.b - 6 R $.). X|.<. .W                                               ",
"                          * p _ =.=.).|.|.1.E ) /..X(.=.^ a o . o 9 W #.(./._ y 9                                               ",
"                          o p _ =.;.=.<.|.)._ ) #.(./.` a.s.s . = M z ` #.%.y # %                                               ",
"                          # > u  .=.:.1.|.(. .u W 1.,.R &XaX6.= b k.c.L ! e d +                                                 ",
"                            o > E :.:.-.(.<. .y q ` ..4.aXBXv.x f.Y.~.Y.6.6.L =                                                 ",
"                            o $ u =. ._ >.o.E y q t H c.gXBXq.x U W.dXdXW.R.x.,                                                 ",
"                              $ p ( E E *...r r t 5 5.Y.vXvXsXI.sXfXlXkXkXfXY.m o                                               ",
"                                # 6 p ) o._ r y i 5 5.W.kXxXxXxXxXcXxXxXxXkXW.m                                                 ",
"                                  # 6 y N u t t M k 5.W.kXxXxXxXxXxXxXxXxXkXW.M                                                 ",
"                                    $ 6 r r t t M f.c.R.dXkXxXxXxXxXxXxXkXW.v.M                                                 ",
"                                    % $ y r r t d f.x.x.R.dXkXcXcXcXcXkXW.v.&                                                   ",
"                                ; ; a l B B B 7 4 m L f.x.T.~.!.fXfX!.Y.P < @ &                                                 ",
"                              a f C { O.9.8.8.5.' 4 m m L f.f.z.l.l.z.G - # l ] A                                               ",
"                            a f { 8.8.8.b.m.m.m.9.l 0 0 i & X X X X X X % 0 A 8.} C                                             ",
"                          8 l { 7.8.8.y.u.p.m.n.p.O.C l i p % o . . $ p ; g ] +.} V                                             ",
"                          a V } 8.8.u.b.b.M.M.*Xb.{ l C | { ' i ; : B [ { l l { C f                                             ",
"                          ; f } 8.7.8.b.n.M.yX*Xp.0 % { u.i.p.+.' N @.b.u.{ ; f g ;                                             ",
"                          8 V } +.{ A A A 4.7.u.7.g : 4.M.*X*X&Xu.@.m.*Xm.4.% ; 8 ;                                             ",
"                          8 B { } A B B B B B { V f C b.yX*X*XU.L.L.Q.U.p.u ; ; ;                                               ",
"                          8 B V B B B B B V V V 8 0 O.m.yXyXP.K.G.G.G.D.Y Z 1 1                                                 ",
"                          % B f ; 8 8 8 0 l C V g g O.i.J.K.L.Z.F J I S.D.C.K                                                   ",
"                          & 7 < < - < < < 8 0 f a z 5.U I g.d.U u u 0 K B.d.v                                                   ",
"                            # = , , , , , 2 < ; a h F F J Z C } 8.u.+.N $ X X                                                   ",
"                              2 , , n c c x 2 ; 8 < 1 2 Z } u.p.n.m.i.O.u $ o                                                   ",
"                                , , c c c x , + # 7 y y C { 8.b.i.+.7.5.J S <                                                   ",
"                                , c c D b v - + % a f i f A H 8.9.q.U d.T S s C                                                 ",
"                              2 , , 1 A 7.| l 1 1 s % # 1 F K U A.F.D.V.c + l O.}                                               ",
"                              % = 1 A +.u.@.r g s < $ D g.V.C.C.g.B.A.U = D h.9.[                                               ",
"                              o * B [ +.p.q.H < # 7 h j.A.C.F.F.S 5 Q R # d.K.q.[ ]                                             ",
"                            : * * N C ` p.l.x.n O < F F n , S 4.o.$.$.$.6 d.Z.h.5.7.                                            ",
"                          1 S 1 $ : P z.I.E.R.m $ 5.g.K 5 q / / -.=. ._ q v g.V.q.+.                                            ",
"                          = F F & X f.~.fXfXE.H t 9.Z.B.$.$.=.#.*.( p q 6 > J Z.J.7.                                            ",
"                          = F J @ O f.~.!.!.Y.0.$.9.K.J.$.#.%.E E u 9 w f N A Z.V.K                                             ",
"                          , g.I $ 7 P k.c.l.v.n.M.K.h.0.#.>.^ 4 ! e.r.! : 0 A Y I n                                             ",
"                          n A.g.8 N p 6 i [ i.p.L.H.0./ =.:.q @ X._.'.^ o % f 0 7 +                                             ",
"                          1 C.V.D Z ) +.u.b.p.6.F.H.yX`.e.! @ 3 &.r.e.! 4   % # #                                               ",
"                          v I g.V.K | +.3.9.q.C.C.J.uXbXuX'.! 5 ! X.!                                                           ",
"                            < I V.g.q.9.N.B.V.D.S.X.uXVXnX>Xw.w w w 9                                                           ",
"                              1 F A.Z.L.G.H.F.h.- X.uXbX].w.j j w k 4 @                                                         ",
"                              X = I d.d.V.A.A.~ Q w.]._.! $ @ w w w.r.k X                                                       ",
"                            . . . X X X @ & Q &.w.~ 4 3 @ O 3 w w t.'.~ & 4                                                     ",
"                          . . . . . . O 5 5 Q w.e.X.k 3 @ O 3 w w X.r.! ^ ~ 4                                                   ",
"                          . . . . . @ 4 k w k ~ _.uXbX].~ 3 O 4 e ! ! j ^ ~ & o                                                 ",
"                          . . . . . 3 j j k ! e.].nXVXnXw.4 . o 4 w 4 w w 4 o @                                                 ",
"                          . . . . . 3 e ! ~ e.'.uXbX].t.X.4 . . o o @ @ o O .                                                   ",
"                          * . . . . @ 3 3 w w.].]._.r._.a.k . . . . . . . . @                                                   ",
"                            o . . . . . . O ! '.r.! _.uX].k . . . . X X . *                                                     "
};
