/* XPM */
static char *right_move_021676416044[] = {
/* columns rows colors chars-per-pixel */
"64 64 246 2 ",
"   c None",
".  c #010101",
"X  c #0B0602",
"o  c #0A0B0C",
"O  c #090A09",
"+  c #0C110E",
"@  c #191307",
"#  c #0B1717",
"$  c #151D1A",
"%  c #171917",
"&  c #0F0E0D",
"*  c #271B08",
"=  c #261D12",
"-  c #2A0F0F",
";  c #0C221D",
":  c #1C231D",
">  c #16251C",
",  c #35240A",
"<  c #3C290A",
"1  c #272419",
"2  c #352A17",
"3  c #2D2812",
"4  c #141D2A",
"5  c #0B1B26",
"6  c #0A2827",
"7  c #1C2B23",
"8  c #162726",
"9  c #0A322C",
"0  c #1D3226",
"q  c #19352B",
"w  c #062A36",
"e  c #1B2532",
"r  c #172C33",
"t  c #0D3433",
"y  c #053638",
"u  c #103634",
"i  c #13393D",
"p  c #183A36",
"a  c #262B21",
"s  c #2B2B22",
"d  c #23342B",
"f  c #243B2D",
"g  c #2A3527",
"h  c #363525",
"j  c #242C3A",
"k  c #283936",
"l  c #333534",
"z  c #492E0A",
"x  c #5A3609",
"c  c #483B16",
"v  c #553518",
"b  c #4A2A10",
"n  c #463624",
"m  c #5A3629",
"M  c #4F3732",
"N  c #683928",
"B  c #0C4337",
"V  c #294434",
"C  c #2C4B3C",
"Z  c #274436",
"A  c #324D3D",
"S  c #36473E",
"D  c #364C34",
"F  c #584919",
"G  c #4A411B",
"H  c #685719",
"J  c #6E5112",
"K  c #7B641E",
"L  c #4B4427",
"P  c #4A5537",
"I  c #55583A",
"U  c #504C31",
"Y  c #6C5F29",
"T  c #6B5132",
"R  c #716B34",
"E  c #153C43",
"W  c #1A3E46",
"Q  c #09324E",
"!  c #2A374A",
"~  c #313D53",
"^  c #2A364A",
"/  c #001D4C",
"(  c #18454A",
")  c #1D4954",
"_  c #174A57",
"`  c #0C4C53",
"'  c #2C4945",
"]  c #344945",
"[  c #295346",
"{  c #355444",
"}  c #3A5B4D",
"|  c #385648",
" . c #234D5C",
".. c #284857",
"X. c #38435B",
"o. c #24555A",
"O. c #395854",
"+. c #3D6255",
"@. c #38685B",
"#. c #29615A",
"$. c #1A576A",
"%. c #0E4D63",
"&. c #254E61",
"*. c #265364",
"=. c #29556A",
"-. c #2A5A6D",
";. c #25576A",
":. c #36566E",
">. c #2B6374",
",. c #2D6B7B",
"<. c #246776",
"1. c #346A7B",
"2. c #2C6A6A",
"3. c #146872",
"4. c #534F4A",
"5. c #426455",
"6. c #45695C",
"7. c #4A6A5B",
"8. c #546B53",
"9. c #6C714C",
"0. c #434D67",
"q. c #475469",
"w. c #4A5673",
"e. c #505C76",
"r. c #496F61",
"t. c #4D7363",
"y. c #527564",
"u. c #5B7D6A",
"i. c #567A68",
"p. c #596473",
"a. c #6A7669",
"s. c #8D701B",
"d. c #86542D",
"f. c #885935",
"g. c #8F5532",
"h. c #887323",
"j. c #967032",
"k. c #A8673B",
"l. c #956A47",
"z. c #95774F",
"x. c #AC754B",
"c. c #9C7F62",
"v. c #835B4A",
"b. c #C27E47",
"n. c #5D8471",
"m. c #64856E",
"M. c #668972",
"N. c #688A73",
"B. c #71967C",
"V. c #AC8D33",
"C. c #AC902F",
"Z. c #BBA42E",
"A. c #918428",
"S. c #C8AC30",
"D. c #C29B2B",
"F. c #DDC132",
"G. c #DDC12B",
"H. c #E3C834",
"J. c #8D8F52",
"K. c #B98352",
"L. c #B9AF54",
"P. c #939F69",
"I. c #BC956F",
"U. c #8EA67C",
"Y. c #B1B264",
"T. c #CA8955",
"R. c #D48E55",
"E. c #D29A6E",
"W. c #DCA77C",
"Q. c #E8AB78",
"!. c #E2A36E",
"~. c #C3B247",
"^. c #C3C36C",
"/. c #0F7587",
"(. c #2E7787",
"). c #317484",
"_. c #337B89",
"`. c #377A86",
"'. c #5A6887",
"]. c #4C6F83",
"[. c #677190",
"{. c #626D91",
"}. c #38808D",
"|. c #2C8694",
" X c #338592",
".X c #368A96",
"XX c #368D98",
"oX c #3C8C98",
"OX c #3E939D",
"+X c #33919C",
"@X c #3B97A1",
"#X c #2696A4",
"$X c #478997",
"%X c #4A949E",
"&X c #59959C",
"*X c #76928D",
"=X c #7AA589",
"-X c #439CA3",
";X c #489AA5",
":X c #5B9EA0",
">X c #7986A8",
",X c #4AA2A9",
"<X c #53A4AD",
"1X c #46ABB2",
"2X c #54ABB3",
"3X c #5AABB4",
"4X c #56A9B2",
"5X c #5DB2BA",
"6X c #55B8B7",
"7X c #46BAB8",
"8X c #64B3B9",
"9X c #71AEAE",
"0X c #6DC1B8",
"qX c #5EBEC0",
"wX c #64BCC2",
"eX c #5FCAC5",
"rX c #64CBC7",
"tX c #63D4C9",
"yX c #6AD2CC",
"uX c #77D1C9",
"iX c #85B193",
"pX c #A7A29A",
"aX c #8A93AF",
"sX c #99A2BA",
"dX c #9D9B98",
"fX c #F1BB8D",
"gX c #EEB98B",
"hX c #DEB68D",
"jX c #AEC8B9",
"kX c #98C0B9",
"lX c #F6C89A",
"zX c #EEC093",
"xX c #D2CDB3",
"cX c #F9D3A5",
"vX c #FBDAAE",
"bX c #FAD6A8",
"nX c #F7D8B2",
"mX c #A7B0CB",
"MX c #8ECBC3",
"NX c #B6D4CC",
"BX c #89E0D0",
"VX c #AEE1CA",
"CX c #B9C3E0",
"ZX c #CCC8C6",
"AX c #D3E2C4",
"SX c #CBD5F0",
/* pixels */
"                                                                                                                                ",
"                                              p E &.=.-.`._.`.}._._.2.=. .W u                                                   ",
"                                          ..W _ >.$X%X&X;X6X6X6X6X6X<X%X}.2.$.*...^ ^                                           ",
"                                         .>.1.`.;X3X5X3X3XeXtXtXtXtXtXrX5X,X-X%X`.1.1.o.o.)                                     ",
"                                    E  .<.oX4X5X3X;XOX%XOX-X-X,X-X-X-X2XrXrXtXtXrX6X3X4X%X(.-.                                  ",
"                                  W  .,.oX<X<X<X,XoX|..X X X X X X X|.%X<XrXyXyXyXqX<X:X}.2.)                                   ",
"                                  ) ,.oX3X5X-X X.X.X.XXX.X.X.X.X.X X X|.@X3XwX5X3X;X_.$.E 6                                     ",
"                                i ;.oX3XrXtX@X|..X.X.X.XXX.X.X.X.X.X.X XOX5XrXtX,X).;.E 5 O                                     ",
"                                 .`.4XwXrXrX#X/. X.X.X X.X.X XoX;X<X,X;X1XwXMXVX0X@X<.) t                                       ",
"                              E &.&XwXwXrXyX9X&XOX.XOXOX|.XXOX X;X5XwXuX9X8XjXAXBX6XXX1. .E                                     ",
"                              E &.%X5X;X,XMXxXjX2X+X;X<X+X,X<X).(.-XrXNXxX:X<XuXuXrX2XoX,. .                                    ",
"                              E ..;X5X@X|.8XNXMX;XXX1XuXjXkX3X1.<.@XeXVXNX<X|.1XtXyX8X-X).*.W                                   ",
"                              E &.$X;XoX|.@XtX6X|._.7XBXAXNX,X<.3.oX4XrXrXOX(.@XtXrX4XOX). .                                    ",
"                              E *.)..X.X X@X5X1X_.<.1XyXMX9X|.` _ ,.oX2X3X`.<.%XwX3X@XXX>.E                                     ",
"                              E &.). X,.).oX;X-X_.-.:XeX1X#X`.4.s _ <.-X;X1.,.XX;X;X X(. .t                                     ",
"                              ( *.,.,.-.).XXXXXX_.>.%X5XOX|.].v.N !  .1._.>.)..XXX.X(.-.(                                       ",
"                              E  .=.=.=.).XX.XXX X>.$X5XOX/.p.K.l.m k %.>.-.(..XXX).;...                                        ",
"                              ; i  .=.=.).XX.X X,. .`.<XoX/.q.f.J b $ y ` *.).XX_.-.(                                           ",
"                              + 6 ) -.-.>._..X). .i ;..X.X). .j - O . $ j _ <. X-.E u                                           ",
"                                9 ( =.=.=.>. X).o.i _ ,. X3.O.a.q.o . b m W %.;.` 6                                             ",
"                                # 6 ( *.=.>. X).*.i i  .).Q &.pXdX< , d.x.k.4.Q l -                                             ",
"                                . # E ;.&.*.,.>.) i t i  .! a.ZXdXx x x.R.R.x.4.T v                                             ",
"                                  ; E  .) E *. .u u t y y f.E.ZXpXn z x.gXQ.Q.E.T.g.                                            ",
"                                    # i p i *.) u t y w r z.hXnXxXI.E.gXlXlXlXlXQ.l.                                            ",
"                                      ; 9 E ) ( t u k u w c.fXbXvXvXvXvXvXvXvXbXfXc.                                            ",
"                                        6 t t t y y M m r c.fXbXvXvXvXvXvXvXvXbXfXc.                                            ",
"                                          # 9 p u y M T j.T.Q.lXcXvXvXvXvXnXbXzXK.T                                             ",
"                                          > q p p e s N k.T.T.!.zXcXcXbXbXlXgXE.n O                                             ",
"                                    k f S { { A Z d ; 1 N d.g.R.!.!.gXlXgX!.x.n % ; V                                           ",
"                                V | +.O.7.m.m.8.} Z 7 : 1 s m f.g.g.l.z.z.g.z . 8 C | }                                         ",
"                              k { +.6.6.i.M.M.M.M.6.C 0 r 0 8 ; @ X O O X O & : V | 7.7.5.                                      ",
"                            f C 5.6.6.7.u.m.N.iX=Xy.' V Z ' Z u ; + . . + 9 7 : V } t.u.y.5.                                    ",
"                            d { +.6.r.n.m.N.=XiX=X5.7 d } 5.+.} { V > > 0 A { C k { t.i.7.|                                     ",
"                            0 C 5.+.} 8.8.y.m.B.N.A ; g 7.i.i.n.i.t.| B [ r.y.5.d Z 5.O.]                                       ",
"                            d C +.} A A A A A +.5.D > k u.M.B.=X=X=Xn.@.2.=X*Xy.g $ d d                                         ",
"                            > a f V V Z Z V V C C 0 7 D m.B.iXiX=X=XY.L.L.^.P.[ r % % *                                         ",
"                              + + > Z f f f f 0 > > f } i.M.B.U.P.P.S.G.G.G.Z.P h 2 1 3                                         ",
"                              X X @ : : : : $ % & : A 5.7.5.9.V.D.C.R F Y h.Z.S.h.c , , ,                                       ",
"                              * * * 3 , 1 $ & % 1 s h P Y I Y Y Y R { Q p D A.A.H < , , ,                                       ",
"                              , , < z z < = X % h g a 2 F F F C [ @.y.t.6.C 0 O X * , , 2 2                                     ",
"                              , < z x x x , X + 7 1 : : s g V { t.u.u.i.i.6.( 7 O @ , 1 0 V                                     ",
"                              z x x x x z * X + > : > 8 q Z Z C +.t.r.#.O.8.I U 2 1 1 ; 9 B B                                   ",
"                              h L U U n c 3 = : a a 1 g 0 8 > L P R 9.m.A.h.K H h 1 : 1 L 4.I                                   ",
"                              C 5.7.7.] g h h h h h h s + * G K h.s.C.G.F.D.K * s a = m k.b.T.l.                                ",
"                            f C @.n.y.C 0 a a a 1 a a 7 = K j.V.S.D.K I R 9.L @ G P ] M g.x.x.g.                                ",
"                            V C #.@.@.B # # d q 0 0 ; : n h.s.s.C.C.] / Q Q 6 * J 9.O.q b N N                                   ",
"                              A 8.y.y.5.h + q V Z C q h K H 2 h D | *.%.%.%.w * J 9.@.q & -                                     ",
"                              c x.E.W.W.z.& 9 | +.+.( I V.R w Q _ %.=. .( ( w O c Y I g                                         ",
"                              v b.Q.Q.Q.x.; B 5.y.y.( P V.J.` $.-.-.-.) t 6 # o 4 F H L                                         ",
"                              F x.E.Q.R.f.[ @.n.N.N.8.R V.J.$.$.;.=.;.( 9 o & 5 > F H                                           ",
"                                T T U v I +.y.m.n.M.Y.Z.R O.;.=.-.=...i t o O + $ h F                                           ",
"                                  @ 3 # ` r.m.N.n.9.L.G.4./ $.=.:.].:...r 5 o X &                                               ",
"                                    H D C @.t.n.m.R D.S.P Q ;.>.{.>X>X'.e 8                                                     ",
"                                    F H P ` #.2.u.C.A.G p y  .'.>XmXSXaXj                                                       ",
"                                      c K R J.J.J.j.F X # ; ..[.sXmXCX>Xj                                                       ",
"                                      o K S.G.S.C.< . . . O ^ '.aXsX[.q.e                                                       ",
"                                    . X , F H H c @ . . O % ^ ~ w.e.'.0.~ j                                                     ",
"                                  . . . . . . . . . . O # 4 4 5 5 ^ X.{.>XsXaX'.                                                ",
"                                  . . . . . . . . . . o e j j j ~ X.:.[.mXZXsXe.                                                ",
"                                  . . . . . . . . . . o e ~ 0.0.X.'.{.aXmX[.w.X.e                                               ",
"                                        . . . . . . . o e ~ ~ X.~ 0.[.aX[.w.e.'.X.                                              ",
"                                                  . . o 4 e e e 4 ! '.0.^ '.aXaX                                                ",
"                                                        5 % % # X 4 ~ j % ~ 0.p.                                                ",
"                                                                                                                                "
};
