/* XPM */
static char *_651a29d4b014185aae8c956615d77bbAkqWvQODScpRJXFs[] = {
/* columns rows colors chars-per-pixel */
"64 64 134 2 ",
"   c #4E2713",
".  c #4E2813",
"X  c #532D16",
"o  c #532E1A",
"O  c #55311B",
"+  c #59351D",
"@  c #5C391F",
"#  c #593620",
"$  c #5D3B23",
"%  c #5E3F29",
"&  c #613E25",
"*  c #613F29",
"=  c #60451F",
"-  c #67571E",
";  c #68571E",
":  c #695D1C",
">  c #646B17",
",  c #6C661A",
"<  c #6E6B1B",
"1  c #716D1D",
"2  c #72751B",
"3  c #5F432D",
"4  c #624127",
"5  c #654A23",
"6  c #684E26",
"7  c #64442B",
"8  c #68472D",
"9  c #66492E",
"0  c #694B2E",
"q  c #654731",
"w  c #654B35",
"e  c #6A4C32",
"r  c #654E3A",
"t  c #6B4E39",
"y  c #6D5134",
"u  c #67533F",
"i  c #6C513C",
"p  c #715637",
"a  c #73563B",
"s  c #76593D",
"d  c #795B3F",
"f  c #767122",
"g  c #787B21",
"h  c #6B5643",
"j  c #6E5945",
"k  c #6F5C49",
"l  c #745741",
"z  c #745A44",
"x  c #7A5E43",
"c  c #725E4B",
"v  c #795E48",
"b  c #7D6145",
"n  c #73614E",
"m  c #7E644B",
"M  c #746452",
"N  c #7A6552",
"B  c #776956",
"V  c #7C6956",
"C  c #7D6B59",
"Z  c #7F705E",
"A  c #A2783C",
"S  c #82674C",
"D  c #836A4D",
"F  c #866E51",
"G  c #886F53",
"H  c #816E5A",
"J  c #897255",
"K  c #83715F",
"L  c #8D7559",
"P  c #8E795C",
"I  c #917B5D",
"U  c #847462",
"Y  c #897665",
"T  c #897768",
"R  c #877968",
"E  c #8B7C6B",
"W  c #957F64",
"Q  c #937D61",
"!  c #8D7F70",
"~  c #7F8226",
"^  c #7F8226",
"/  c #A2814F",
"(  c #958063",
")  c #958064",
"_  c #948065",
"`  c #958065",
"'  c #958165",
"]  c #968064",
"[  c #968165",
"{  c #968166",
"}  c #978166",
"|  c #978266",
" . c #988367",
".. c #8E8271",
"X. c #8F8373",
"o. c #8F8472",
"O. c #8F8274",
"+. c #8E8170",
"@. c #918070",
"#. c #908072",
"$. c #928172",
"%. c #918273",
"&. c #918473",
"*. c #918574",
"=. c #928474",
"-. c #918675",
";. c #938776",
":. c #938779",
">. c #948778",
",. c #948779",
"<. c #958879",
"1. c #96897A",
"2. c #978A7D",
"3. c #988B7D",
"4. c #988C7D",
"5. c #988D7D",
"6. c #998C7E",
"7. c #998E7E",
"8. c #C6A740",
"9. c #9A8E80",
"0. c #9A8E81",
"q. c #9C8F82",
"w. c #9B9082",
"e. c #9C9083",
"r. c #9D9183",
"t. c #9D9184",
"y. c #9C9285",
"u. c #9D9486",
"i. c #9F9588",
"p. c #A09589",
"a. c #A09789",
"s. c #A1978A",
"d. c #9CA8AD",
"f. c #B3B0A9",
/* pixels */
"2 2 2 2 2 2 2 2 2 2 2 2 2 2 2 2 2 2 2 2 2 2 2 2 2 2 2 2 2 2 2 2 2 2 2 2 2 2 2 2 2 2 2 2 2 2 2 2 2 2 2 2 2 2 2 2 2 2 2 2 2 2 2 2 ",
"2 2 2 2 2 2 2 2 2 2 2 2 2 2 2 2 2 2 2 2 2 2 2 2 2 2 2 2 2 2 2 2 2 2 2 2 2 2 2 2 2 2 2 2 2 2 2 2 2 2 2 2 2 2 2 2 2 2 2 2 2 2 2 2 ",
"2 2 2 2 2 2 2 2 2 2 2 2 2 2 2 2 2 2 2 2 2 2 2 2 2 2 2 2 2 2 2 2 2 2 2 2 2 2 2 2 2 2 2 2 2 2 2 2 2 2 2 2 2 2 2 2 2 2 2 2 2 2 2 2 ",
"2 2 2 2 2 2 2 2 2 2 2 2 2 2 2 2 2 2 2 2 2 2 2 2 2 2 2 2 2 2 2 2 2 2 2 2 2 2 2 2 2 2 2 2 2 2 2 2 2 2 2 2 2 2 2 2 2 2 2 2 2 2 2 2 ",
"2 2 2 2 2 2 2 2 2 2 2 2 2 2 2 2 2 2 2 2 2 2 2 2 2 2 2 2 2 2 2 2 2 2 2 2 2 2 2 2 2 2 2 2 2 2 2 2 2 2 2 2 2 2 2 2 2 2 2 2 2 2 2 2 ",
"2 2 2 2 2 2 2 2 2 2 2 2 2 2 2 2 2 2 2 2 2 2 2 2 ^ 2 2 2 2 2 2 2 2 2 2 2 2 2 2 2 2 2 2 2 2 2 2 2 2 2 2 2 2 2 2 2 2 2 2 2 2 2 2 2 ",
"2 2 2 2 2 2 2 2 2 2 2 2 2 2 2 2 2 2 2 2 2 2 2 2 2 g g ^ 2 2 2 2 2 2 2 2 2 2 2 2 2 2 2 2 2 2 2 2 2 2 2 2 2 2 2 2 2 2 2 2 2 2 2 2 ",
"2 2 2 2 2 2 2 2 2 2 2 2 2 2 2 2 2 2 2 2 2 2 2 2 2 2 > > 2 2 2 2 2 2 2 2 2 2 2 2 2 2 2 2 2 2 2 2 2 2 2 2 2 2 2 2 2 2 2 2 2 2 2 2 ",
"2 2 2 2 2 2 2 2 2 2 2 2 2 2 2 2 2 2 2 2 2 2 2 2 2 2 2 2 2 2 2 2 2 2 2 2 2 2 2 2 2 2 2 2 2 2 2 2 2 2 2 2 2 2 2 2 2 2 2 2 2 2 2 2 ",
"2 2 2 2 2 2 2 2 2 2 ~ 2 2 2 2 2 2 2 2 2 2 2 2 2 2 2 2 2 2 2 2 2 2 2 2 2 2 2 2 2 2 2 2 2 2 2 2 2 2 2 2 2 2 2 2 2 2 2 2 2 2 2 2 2 ",
"2 2 2 g ~ ~ 2 2 2 ~ 2 2 2 2 2 2 2 2 2 2 2 2 2 2 2 2 2 2 2 2 2 2 2 2 2 2 2 2 2 2 2 2 2 2 2 2 2 2 2 2 2 2 2 2 2 2 2 2 2 2 2 2 2 2 ",
"2 2 2 2 ~ g g 2 ~ ~ 2 2 2 2 2 2 2 2 2 2 2 2 2 2 2 2 2 2 2 2 2 2 2 2 2 2 2 2 2 2 2 2 2 2 2 2 2 2 2 2 2 2 2 2 2 2 2 2 2 2 2 2 2 2 ",
"2 2 2 2 > g g 2 f.f.2 2 2 2 2 2 2 2 2 2 2 2 2 2 2 2 2 2 2 2 2 2 2 2 2 2 2 2 2 2 2 2 2 2 2 2 2 2 2 2 2 2 2 2 2 2 2 2 2 2 2 2 2 2 ",
"2 2 2 2 2 > g f./ / f.2 2 2 2 2 2 2 2 2 2 2 2 2 2 2 2 2 2 2 2 2 2 2 2 2 2 2 2 2 2 2 2 2 2 2 2 2 2 2 2 2 2 2 2 2 2 2 2 2 2 2 2 2 ",
"2 2 2 2 2 2 > > f.f.> 2 2 2 2 2 2 2 2 2 2 2 2 2 2 2 2 2 2 2 2 2 2 2 2 2 2 2 2 2 2 2 2 2 2 2 2 2 2 2 2 2 2 2 2 2 2 2 2 2 2 2 2 2 ",
"2 2 2 2 2 2 2 2 > > 2 2 2 2 2 2 2 2 2 2 2 2 2 2 2 2 2 2 2 2 2 2 2 2 2 2 2 2 2 2 2 2 2 2 g g 2 2 2 2 2 2 2 2 2 2 2 2 2 2 2 2 2 2 ",
"2 2 2 2 2 2 2 2 2 2 2 2 2 2 2 2 2 2 2 2 2 2 2 2 2 2 2 2 2 2 2 2 2 2 2 2 2 2 2 2 2 2 > A g 2 2 2 2 2 2 2 2 2 2 2 2 2 2 2 2 2 2 2 ",
"2 2 2 2 2 2 2 2 2 2 2 2 2 2 2 2 2 2 2 2 2 2 2 2 2 2 2 2 2 2 2 2 2 2 2 2 2 2 2 2 2 > ^ g > 2 2 2 2 2 2 2 2 2 2 2 2 2 2 2 2 2 2 2 ",
"2 2 2 2 2 2 2 2 2 2 2 2 2 2 2 2 , 8 * $ = : , , , , , 2 , , , , , , , < < , 2 f 2 > 5 $ * 8 , 2 2 2 2 2 2 2 2 2 2 2 2 2 2 2 2 2 ",
"2 2 2 2 2 2 2 2 2 2 2 2 2 2 2 2 $ C C c 4 @ @ @ @ & 6 - & @ @ @ @ @ $ - 5 $ @ @ @ + q c C B # 2 2 2 2 2 2 2 2 2 2 2 2 2 2 2 2 2 ",
"2 2 2 2 2 2 2 2 2 2 2 2 2 2 2 2 q U U N e y s s d b s 8 S s s s s s d 9 d b s s s y i N U U * 2 2 2 2 2 2 2 2 2 2 2 2 2 2 2 2 2 ",
"2 2 2 2 2 2 2 2 2 2 2 2 2 2 2 2 t &.&.K l x D D D F S p G D D D D D J p m D D D D b l U %.! q 2 2 2 2 2 2 2 2 2 2 2 2 ^ 2 2 2 2 ",
"2 2 2 2 2 2 2 2 2 2 2 2 2 2 2 2 t 1.1.Y l b J L L I J d L J J L J J L p S J J J J D z U ,.,.q 2 2 2 2 2 g ^ ^ 2 2 2 ^ 2 2 2 2 2 ",
"2 2 2 2 2 2 2 2 2 2 2 2 2 2 2 2 t 6.7.E l m L P I I L b I L P P P P I a D L P P P F n T 6.0.q 2 2 2 2 2 2 ^ d.d.2 ^ ^ 2 2 2 2 2 ",
"2 2 2 2 2 2 2 2 2 2 2 2 2 2 2 2 e r.s.! x D Q W W  .Q v ] ] ] W ) ) ) x G ( Q W W J N $.p.q.q 2 2 2 2 2 2 d./ / d.g g 2 2 2 2 2 ",
"2 2 2 2 2 2 2 2 2 2 2 2 2 2 2 2 t t.s.! x S Q W W  .L S  .] | | ) )  .l J _ _ _ W J N ! p.q.t 2 2 2 2 2 2 > d.d.> f.f.2 2 2 2 2 ",
"2 2 2 2 2 2 2 2 2 2 2 2 2 2 2 2 e 9.p.W a S I I W W J x ] I I ( Q Q ) s J Q Q Q Q J m ! t.0.e 2 2 2 2 2 2 2 > > 2 / f.2 2 2 2 2 ",
"2 2 2 2 2 2 2 2 2 2 2 2 2 2 2 2 8 6.9.T a S I I I I G S ] I I L P P Q a G Q P P P F x T 6.6.q 2 2 2 2 2 2 2 2 2 2 > > 2 2 2 2 2 ",
"2 2 2 2 2 2 2 2 2 2 2 2 2 2 2 2 * ,.;.H a b L I I I G S L L L L P P Q p F Q P P P F z U =.,.q 2 2 2 2 2 2 2 2 2 2 2 2 2 2 2 2 2 ",
"2 2 2 2 2 2 2 2 2 2 2 2 2 2 2 2 * $.! H e x G G G J S s L G F F G G L t m J D J G m l K O.;.q 2 2 2 2 2 2 2 2 2 2 2 2 2 2 2 2 2 ",
"2 2 2 2 2 2 2 2 2 2 2 2 2 2 2 2 * ! E H 8 a S D D G S 0 G S S S D D G 8 b F D D S x a C E ! 7 2 2 2 2 2 2 2 2 2 2 2 2 2 2 2 2 2 ",
"2 2 2 2 2 2 2 2 2 2 2 2 2 2 2 2 & T E N 8 a S F D D s 8 S S S s x x S 4 x D S D F x i C R R * 2 2 2 2 2 2 2 2 2 2 2 2 2 2 2 2 2 ",
"2 2 2 2 2 2 2 2 2 2 2 2 2 2 2 2 + e t 8 @ 7 0 9 8 e 8 + 4 7 i i t * 7 @ 4 8 8 8 9 7 & q e e $ 2 2 2 2 2 2 2 2 2 2 2 2 2 2 2 2 2 ",
"2 2 2 2 2 2 2 2 2 2 2 2 2 2 2 2 # E O.C & + + O + + O X + e K m K t @ X + + + + O O 4 C ! E $ 2 2 2 2 2 2 2 2 2 2 2 2 2 2 2 2 2 ",
"2 2 2 2 2 2 2 2 2 2 2 2 2 2 2 2 & K C c * & 8 8 8 8 4 O $ q j O i 7 $ o 9 e 8 q 9 4 3 k C Z $ 2 2 2 2 2 2 2 2 2 2 2 2 2 2 2 2 2 ",
"2 2 2 2 2 2 2 2 2 2 2 2 2 2 2 2 & C V j & 8 y p p p 0 O 4 % n 3 r % # X 9 y e y e 5 3 j B C # 2 2 2 2 2 2 2 2 2 2 2 2 2 2 2 2 2 ",
"2 2 2 2 2 2 2 2 2 2 2 2 2 2 2 2 $ M M h % 7 0 y e p 0 X 3 $ h u h 3 @ X 9 y y 0 e 9 3 u M M o 2 2 2 2 2 2 2 2 2 2 2 2 2 2 2 2 2 ",
"2 2 2 2 2 2 2 2 2 2 2 2 2 2 2 2 O n c h # 4 0 y 0 p 0 + 9 @ X X . # 5 + 0 y 0 y y 5 # u n k X 2 2 2 2 2 2 2 2 2 2 2 2 2 2 2 2 2 ",
"2 2 2 2 2 2 2 2 2 2 2 2 2 2 2 2 . j j r # 4 9 0 9 p 0 + 9 9 4 4 3 9 0 + 9 y 0 0 9 3 # r h j . 2 2 2 2 2 2 2 2 2 2 2 2 2 2 2 2 2 ",
"2 2 2 2 2 2 2 2 2 2 2 2 2 2 2 2 . j j w + & 9 9 9 0 0 + e 0 e 9 0 9 0 + 9 y 0 0 9 3 # r j j   2 2 2 2 2 2 2 2 2 2 2 2 2 2 2 2 2 ",
"2 2 2 2 2 2 2 2 2 2 2 2 2 2 2 2 . r r 3 # % 7 7 7 e 9 + 9 8 8 8 9 9 9 O 9 0 8 7 7 3 @ 3 r w   2 2 2 2 2 2 2 2 2 2 2 2 2 2 2 2 2 ",
"2 2 2 2 2 2 2 2 2 2 2 2 2 2 2 2   w w w 3 $ O @ # % & X + + @ @ @ @ @ X 3 % + + @ @ 3 q w q   2 2 2 2 2 2 2 2 2 2 2 2 2 2 2 2 2 ",
"2 2 2 2 2 2 2 2 2 2 2 2 2 2 2 2   M M B k r i h j z k c n m M n n n n n k c k j u w k B M M   2 2 2 2 2 2 2 2 2 2 2 2 2 2 2 2 2 ",
"2 2 2 2 2 2 2 2 2 2 2 2 2 2 2 2   r h h u w u k k k k n n n M M n n n n n n k k u r u h u r   2 2 2 2 2 2 2 2 2 2 2 2 2 2 2 2 2 ",
"2 2 2 2 2 2 2 2 2 2 2 2 2 2 2 2   o o o O X O O o o o # O O O # O O O O O O o o O o O O O X . 2 2 2 2 2 2 2 2 2 2 2 2 2 2 2 2 2 ",
"2 2 2 2 2 2 2 2 2 2 2 2 2 2 2 2 2 2 2 2 8.8.2 > > 2 2 A 8.2 2 2 2 2 2 2 2 2 2 2 ^ 2 2 2 2 2 2 2 2 2 2 2 2 2 2 2 2 2 2 2 2 2 2 2 ",
"2 2 2 2 2 2 2 2 2 2 2 2 2 2 2 2 2 2 2 8.A A 8.2 2 2 2 > > 2 2 2 2 2 2 ~ g 2 2 g ^ > 2 2 2 2 2 2 2 2 2 2 2 2 2 2 2 2 2 2 2 2 2 2 ",
"2 2 2 2 2 2 2 2 2 2 2 2 2 2 2 2 2 2 2 > 8.8.> 2 2 2 2 2 2 2 2 2 2 2 2 > g g 2 g ^ 2 2 2 2 2 2 2 2 2 2 2 2 2 2 2 2 2 2 2 2 2 2 2 ",
"2 2 2 2 2 2 2 2 2 2 2 2 2 2 2 2 2 2 2 2 > > 2 2 2 2 2 2 2 2 2 2 2 2 2 2 > g g g > 2 2 2 2 2 2 2 2 2 2 2 2 2 2 2 2 2 2 2 2 2 2 2 ",
"2 2 2 2 2 2 2 2 2 2 2 2 2 2 2 2 2 2 2 2 2 2 2 2 2 2 2 2 2 2 2 2 2 2 2 2 > g g > 2 2 2 2 2 2 2 2 2 2 2 2 2 2 2 2 2 2 2 2 2 2 2 2 ",
"2 2 2 2 2 2 2 2 2 2 2 2 2 2 2 2 2 2 2 2 2 2 2 2 2 2 2 2 2 2 2 2 2 2 2 2 2 > g 2 2 2 2 2 2 2 2 2 2 2 2 2 2 2 2 2 2 2 2 2 2 2 2 2 ",
"2 2 2 2 2 2 2 2 2 2 2 2 2 2 2 2 2 2 2 2 2 2 2 2 2 2 2 2 2 2 2 2 2 2 2 2 2 2 2 2 2 2 2 2 2 2 2 2 2 2 2 2 2 2 2 2 2 2 2 2 2 2 2 2 ",
"2 2 2 2 2 2 2 2 2 2 2 2 2 2 2 2 2 2 2 2 2 2 2 2 2 2 2 2 2 2 2 2 2 2 2 2 2 2 2 2 2 2 2 2 2 2 2 2 2 2 2 2 2 2 2 2 2 2 2 2 2 2 2 2 ",
"2 2 2 2 2 2 2 2 2 2 2 2 2 2 2 2 2 2 2 2 2 2 2 2 2 2 2 2 2 2 2 2 2 2 2 2 2 2 2 2 2 2 2 2 2 2 2 2 2 2 2 2 2 2 2 2 2 2 2 2 2 2 2 2 ",
"2 2 2 2 2 2 2 2 2 ~ ~ 2 2 2 2 2 2 2 2 2 2 2 2 2 2 2 2 2 2 2 2 2 2 2 2 2 2 2 2 2 2 2 2 2 2 2 2 2 2 2 2 2 2 2 2 2 g ^ ^ 2 2 2 2 2 ",
"2 2 2 g 2 2 2 g g ~ 2 2 2 2 2 2 2 2 2 2 2 2 2 2 2 2 2 2 2 2 2 2 2 2 2 2 2 2 2 2 2 2 2 2 2 2 2 2 2 2 2 2 2 2 2 f g ^ 2 2 2 2 2 2 ",
"2 2 2 2 ^ ^ 2 g g > 2 2 2 2 2 2 2 2 2 2 2 2 2 2 2 2 2 2 2 2 2 2 2 2 2 2 2 2 2 2 2 2 2 2 2 2 2 2 2 2 2 2 2 2 2 g g > 2 2 2 2 2 2 ",
"2 2 2 2 ^ g g > > 2 2 2 2 2 2 2 2 2 2 2 2 2 2 2 2 2 2 2 2 2 2 2 2 2 2 2 2 2 2 2 2 2 2 2 2 2 2 2 2 2 2 2 2 2 2 > > 2 2 2 2 2 2 2 ",
"2 2 2 2 > g g 2 2 2 2 2 2 2 2 2 2 2 2 2 2 2 2 2 2 2 2 2 2 2 2 2 2 2 2 2 2 2 2 2 2 2 2 2 2 2 2 2 2 2 2 2 2 2 2 2 2 2 2 2 2 2 2 2 ",
"2 2 2 2 2 > 2 2 2 2 2 2 2 2 2 2 2 2 2 2 2 2 2 2 2 2 2 2 2 2 2 2 2 2 2 2 2 2 2 2 2 2 2 2 2 2 2 2 2 2 2 2 2 2 2 2 2 2 2 2 2 2 2 2 ",
"2 2 2 2 2 2 2 2 2 2 2 2 2 2 2 2 2 2 2 2 2 2 2 2 2 2 2 2 2 2 2 2 2 2 2 2 2 2 2 2 2 2 2 2 2 2 2 2 2 2 2 2 2 2 2 2 2 2 2 2 2 2 2 2 ",
"2 2 2 2 2 2 2 2 2 2 2 2 2 2 2 2 2 2 2 2 2 2 2 2 2 2 2 2 2 2 2 2 2 2 2 2 2 2 2 2 2 2 2 2 2 2 2 2 2 2 2 2 2 2 2 2 2 2 2 2 2 2 2 2 ",
"2 2 2 2 2 2 2 2 2 2 2 2 2 2 2 2 2 2 2 2 2 2 2 2 2 2 2 2 2 2 2 2 2 2 2 2 2 2 2 2 2 2 2 2 2 2 2 2 2 2 2 2 2 2 2 2 2 2 2 2 2 2 2 2 ",
"2 2 2 2 2 2 2 2 2 2 2 2 2 2 2 2 2 2 2 2 2 2 2 2 2 2 2 2 2 2 2 2 2 2 2 2 2 2 2 2 2 2 2 2 2 2 2 2 2 2 2 2 2 2 2 2 2 2 2 2 2 2 2 2 "
};
