/* XPM */
static char *result[] = {
/* columns rows colors chars-per-pixel */
"64 64 82 1 ",
"  c #4F2713",
". c #4F2913",
"X c #502713",
"o c #522A15",
"O c #552F19",
"+ c #56321B",
"@ c #59351D",
"# c #5C391F",
"$ c #5B3721",
"% c #5D3C22",
"& c #603D25",
"* c #633E28",
"= c #646B17",
"- c #72751B",
"; c #5F4024",
": c #5F4531",
"> c #614126",
", c #64442A",
"< c #68442B",
"1 c #66492C",
"2 c #694C2E",
"3 c #6B502F",
"4 c #644732",
"5 c #684731",
"6 c #6C4D32",
"7 c #644D39",
"8 c #6D4E39",
"9 c #6E5334",
"0 c #66513D",
"q c #68533F",
"w c #715536",
"e c #725837",
"r c #745739",
"t c #755B3B",
"y c #795F3F",
"u c #787B21",
"i c #79603F",
"p c #6A5542",
"a c #6D5A44",
"s c #795F40",
"d c #715E49",
"f c #795F4C",
"g c #6F604E",
"h c #7B6242",
"j c #74624D",
"k c #766552",
"l c #796752",
"z c #776854",
"x c #796955",
"c c #7D6D5B",
"v c #7F705F",
"b c #816647",
"n c #846B4A",
"m c #886F4F",
"M c #88704F",
"N c #886F50",
"B c #826F5C",
"V c #8B7454",
"C c #81715D",
"Z c #8D7758",
"A c #8F7959",
"S c #927D5E",
"D c #837563",
"F c #857966",
"G c #897A66",
"H c #877B6A",
"J c #8A7D6C",
"K c #937F60",
"L c #7F8226",
"P c #A2814F",
"I c #8E806E",
"U c #8F8270",
"Y c #928574",
"T c #958876",
"R c #958979",
"E c #998E7D",
"W c #9A8F80",
"Q c #9D9283",
"! c #A09687",
"~ c #A49989",
"^ c #9CA8AD",
"/ c #B3B0A9",
/* pixels */
"----------------------------------------------------------------",
"----------------------------------------------------------------",
"----------------------------------------------------------------",
"----------------------------------------------------------------",
"----------------------------------------------------------------",
"------------------------Luu-------------------------------------",
"-------------------u-----uuu------------------------------------",
"----------------u<*<*--u--==---------------<<<<-----------------",
"----------------6QTT*<**<****<**<******<*<<*TTE6----------------",
"----------L-----w!TT*bnmVVASAAAAVVVVVVVnnbb<TT!6----------------",
"---uLL---L------w~~~<bmVASSKS#&&**#ASAAVnnb,~~~6----------------",
"----Luu-LL------oCllO66w6rtrroUfKKorrrrwr66*llBo----------------",
"----=uu-//------oBjl+oOoooooooTR8JoooooooooohlBo----------------",
"-----=u/PP/-----ocjjo#;#&&&&&oEEQQo&&&&%##&offco----------------",
"------==//=-----Xxfho&#>###&%ojkflo&##%####odjlo----------------",
"--------==------Xldyo;>><<><,,oooo**&*>%*&#oddlX----------------",
"---------------- kadX&&>>,>,>>>>,;,;;>&%%%#odakX----------------",
"----------------XjaaX&>>>>>>>>>>;;;%>&&%%%$oapko----------------",
"---------------- kpaX>>,,,1121,1111111111;>XapjX----------------",
"---------------- dppX>,,11111211151511111>>Xqpd ----------------",
"---------------- jqq.;,122,22222252222121;;.ppd ----------------",
"---------------- dq0.>1122222262622522221,,.0pd -----------L----",
"---------------- a00 2wewweeeeee9eeewww9966 00d -----LL---L-----",
"---------------- a07 2eeetetttettttttrtww96.77p -----L^^-LL-----",
"---------------- p77 5tetttttttttttteteee3wX77p -----^PS^uu-----",
"---------------- 7:4 2etetttttyttttttteyew2o4,7 -----=/^=//-----",
"----------------%*%%+9tttshsiiyiiiyiiihiyreX.   ------==-S/-----",
"----------------$YJJO$%%;;;;,>,1,1,,,,,,,&&XYUU ---------==-----",
"----------------OappXX. ....XoXooooooooooXooapa&----------------",
"----------------O$$$@w9tttttssiiihiiyytrewwX&&&&----------------",
"----------------ODxxo11,11,1,1111111,22<2,2ojlCO----------------",
"----------------OHxxo1,,,,,1,,1,,1,1,,,1,2<oxxAo----------------",
"----------------@ICC.:;:;::;1;1;,,;11;11,1,ovCI@----------------",
"----------------%YDD+;;;;%%%%#;##;%%%%%%;%%OCDU$----------------",
"----------------&TGG+;;%;%%;%%%%#%%%%%%%%$%+IDY%----------------",
"----------------,TGI@;;;%%%#%%%%%%#%%%#%%%%@IGT,----------------",
"----------------,RJJ;;;;%;%%#;#%#%#%####%%%$JJR*----------------",
"----------------,WYY##++++++@@+++++++++++++$YYW*----------------",
"----------------<EYU#+#++#+++@@+++++++++OOO%YJE4----------------",
"----------------4EYY;%+#++++++++++.++++++OO&YYE<----------------",
"----------------<WRY*$@@@+@@+++++++++++++o+;YTW4----------------",
"----------------5QRR*XXo...#........@......;TTQ4----------------",
"----------------5!QW*rmnnnl.nbnbnMlh.nMhnnn&QQQ4----------------",
"----------------oJCvo9tyiiiOiieiiiih+iiettiOcvI%----------------",
"----------------oHcvO2ryithoheeieeei+ieitit+ccH%----------------",
"----------------oDzzO1ryttiohteeieii+heittiollD@----------------",
"----------------ovjzo1ewe9toi999399ioi9ew9eokjv+----------------",
"----------------Ozgjo,w999iot999999ioi999ww.jjz+----------------",
"----------------Okdd.:9999e.e999999i.i99999.aak.----------------",
"---------------- kaa.>9222to9223222eot33939.aak ----------------",
"----------------.kaa.,6232eo92222329.e32332.aak ----------------",
"----------------.$%$+;;,;;io2,::1:12.9:1,>:O+$$.----------------",
"----------------.HHvF...ooO.ooO.......O....DvvH.----------------",
"----------------.gggz.zcvvvvIIHHIIvIHvFvvc.zgdg.----------------",
"---------LL----- :0:k.07q0ppqpppppaapppppp.k777.--------uLL-----",
"---u---uuL------  . ................       .  ..-------uuL------",
"----LL-uu=---------------------------------------------uu=------",
"----Luu==----------------------------------------------==-------",
"----=uu---------------------------------------------------------",
"-----=----------------------------------------------------------",
"----------------------------------------------------------------",
"----------------------------------------------------------------",
"----------------------------------------------------------------",
"----------------------------------------------------------------"
};
