/* XPM */
static char *result[] = {
/* columns rows colors chars-per-pixel */
"64 64 138 2 ",
"   c #4C2611",
".  c #4E2A12",
"X  c #4F2D18",
"o  c #512E14",
"O  c #512E18",
"+  c #533214",
"@  c #573E13",
"#  c #51321D",
"$  c #563C1A",
"%  c #583B1C",
"&  c #543622",
"*  c #5E3720",
"=  c #563926",
"-  c #5A3A25",
";  c #563C2B",
":  c #5A3D2B",
">  c #594015",
",  c #5D4916",
"<  c #5C451E",
"1  c #5D481E",
"2  c #604C17",
"3  c #635617",
"4  c #64551A",
"5  c #656C17",
"6  c #6B6519",
"7  c #6D691C",
"8  c #706E1F",
"9  c #72751B",
"0  c #5E4125",
"q  c #57402F",
"w  c #5B402D",
"e  c #564130",
"r  c #5B4433",
"t  c #5F4837",
"y  c #5C4638",
"u  c #5D4C3C",
"i  c #614427",
"p  c #614E27",
"a  c #62452A",
"s  c #644A2E",
"d  c #665723",
"f  c #685723",
"g  c #695A27",
"h  c #665228",
"j  c #6B5C29",
"k  c #624632",
"l  c #634A36",
"z  c #644C3B",
"x  c #694E3C",
"c  c #685334",
"v  c #65513F",
"b  c #69523E",
"n  c #6C6123",
"m  c #6F6B20",
"M  c #756F22",
"N  c #787B21",
"B  c #797528",
"V  c #5D4E41",
"C  c #5E5143",
"Z  c #5E5348",
"A  c #634F40",
"S  c #635444",
"D  c #6A5543",
"F  c #665844",
"G  c #6D5846",
"H  c #635649",
"J  c #695749",
"K  c #655A4C",
"L  c #6B5C4C",
"P  c #715A46",
"I  c #725E4D",
"U  c #655D53",
"Y  c #6B5E51",
"T  c #6E614F",
"R  c #75604D",
"E  c #676056",
"W  c #6C6255",
"Q  c #6C655A",
"!  c #6F685C",
"~  c #736454",
"^  c #756857",
"/  c #7A6957",
"(  c #726759",
")  c #736A5C",
"_  c #7A6D5D",
"`  c #6F6A60",
"'  c #746E62",
"]  c #7A6F61",
"[  c #767165",
"{  c #7A7365",
"}  c #777468",
"|  c #7A7669",
" . c #7D796D",
".. c #7F7C71",
"X. c #817566",
"o. c #81776A",
"O. c #827A6D",
"+. c #887C6E",
"@. c #827E72",
"#. c #897E70",
"$. c #7F8226",
"%. c #A2814F",
"&. c #858275",
"*. c #888477",
"=. c #878479",
"-. c #89867A",
";. c #8C897C",
":. c #908C7F",
">. c #7E928D",
",. c #7E9D9B",
"<. c #7CA6A9",
"1. c #7EA9AC",
"2. c #79AFB6",
"3. c #7BB1B7",
"4. c #75B6BF",
"5. c #7EB4BA",
"6. c #76B7C0",
"7. c #77B9C2",
"8. c #7ABBC4",
"9. c #71C8D9",
"0. c #848C83",
"q. c #8E8C81",
"w. c #918E83",
"e. c #879087",
"r. c #82948E",
"t. c #8B9289",
"y. c #939186",
"u. c #959388",
"i. c #98958B",
"p. c #839590",
"a. c #869994",
"s. c #809F9D",
"d. c #82A19F",
"f. c #86A5A4",
"g. c #88A7A6",
"h. c #82ADAF",
"j. c #83ADB0",
"k. c #B3B0A9",
/* pixels */
"9 9 9 9 9 9 9 9 9 9 9 9 9 9 9 9 9 9 9 9 9 9 9 9 8 G G D D G P P P G G G b b n 9 9 9 9 9 9 9 9 9 9 9 9 9 9 9 9 9 9 9 9 9 9 9 9 9 ",
"9 9 9 9 9 9 9 9 9 9 9 9 9 9 9 9 9 9 9 9 9 9 9 9 g { O.#.@.*.*.=.-.*.*.-.*.O.G m 9 9 9 9 9 9 9 9 9 9 9 9 9 9 9 9 9 9 9 9 9 9 9 9 ",
"9 9 9 9 9 9 9 9 9 9 9 9 9 9 9 9 9 9 9 9 9 9 9 9 g X.&.-.=.-.0.d.,.d.*.*.*.&.^ j 9 9 9 9 9 9 9 9 9 9 9 9 9 9 9 9 9 9 9 9 9 9 9 9 ",
"9 9 9 9 9 9 9 9 9 9 9 9 9 9 9 9 9 9 9 9 9 9 9 9 g X.=.*.*.*.a.8.8.9.-.-.*.*._ j 9 9 9 9 9 9 9 9 9 9 9 9 9 9 9 9 9 9 9 9 9 9 9 9 ",
"9 9 9 9 9 9 9 9 9 9 9 9 9 9 9 9 9 9 9 9 9 0 i i s X.*.-.-.-.a.8.9.9.;.*.-.-.o.% + 0 0 9 9 9 9 9 9 9 9 9 9 9 9 9 9 9 9 9 9 9 9 9 ",
"9 9 9 9 9 9 9 9 9 9 9 9 9 9 9 9 9 9 9 s s ~ ^ ) I X.-.-.*.-.d.5.d.g.*.;.-.-.o.v z ~ ( 0 i 9 9 9 9 9 9 9 9 9 9 9 9 9 9 9 9 9 9 9 ",
"9 9 9 9 9 9 9 9 9 9 9 9 9 9 9 9 9 s l ] _ O.@.@._ X.-.*.-.-.d.d.j.9.-.-.*.;.o.G ~ @. .( _ i i 9 9 9 9 9 9 9 9 9 9 9 9 9 9 9 9 9 ",
"9 9 9 9 9 9 9 9 9 9 9 9 9 9 9 9 c &.&.&.@.- * 2 : X.-.-.;.-.;.;.:.:.-.;.;.;.o.a 0 0 : &.&.*.*.i 9 9 9 9 9 9 9 9 9 9 9 9 9 9 9 9 ",
"9 9 9 9 9 9 9 9 9 9 9 9 9 9 c l ] *.&.) - -.*.*.X._ &.;.*.;.-.;.:.*.;.;.;.;.X.{ *.-.-.- _ &.&.i 9 9 9 9 9 9 9 9 9 9 9 9 9 9 9 9 ",
"9 9 9 9 9 9 9 9 9 9 $.m g I | -. ./ G T &.*.&.*._ X.*.*.;.*.-.-.:.:.:.*.-.-.+._ -.*.*.-.^ R ] I b x c d n 9 9 9 9 9 9 9 9 9 9 9 ",
"9 9 9 N $.$.9 9 9 $.9 c I -.-.O.] b ( | &.&.&.&.&./ ;.;.*.;.;.;.;.*.*.:.-.:.] | *.*.=.=.-. .T { _ | I D c 9 9 9 9 9 9 9 9 9 9 9 ",
"9 9 9 9 $.N N 9 $.B d ^ -.&.&.~ b &. .| &.&.&.&.*.R :.*.;.:.:.:.:.:.:.:.-.w.J @.@.&.=.=.-.-.-.F G  .| @.~ 4 7 9 9 9 9 9 9 9 9 9 ",
"9 9 9 9 5 9 N 9 k.G { @.-.{ D ] &.&.&.&.*.*.*.*.&.k u.y.*.[ | | { o. .q.u.u.D @.@.@.=.=.=.=.=.=.{ k ) O.@.) l 9 9 9 9 9 9 9 9 9 ",
"9 9 9 9 9 9 N k.+.D q.q.q.J ] #.&.&.&.&.*.*.*.X.j - { { ) W Q ! ! ) ! | @.@.J w.q.&.@.=.=.&.@.=.*.^ v &.=.#.l 9 9 9 9 9 9 9 9 9 ",
"9 9 9 9 9 9 6 i c X.Y q.^ ] @.&.&.&.*.*.*.-.;.Q u = K W W W T T T T T ) ' ' J @.@.q.=.&.&... .@.&.&.] L @.W ~ % < 9 9 9 9 9 9 9 ",
"9 9 9 9 9 9 4 X.:.+.w.k ) &.&.&.&.&.*.*.;. .U U U q K L u . . + $ = - v W ' A } } } ;.q.@.@.@.@.&.&.@.~ : y.-.q.] 4 9 9 9 9 9 9 ",
"9 9 9 9 9 9 P -.@.@.@.D @.@.@.@.=.-.@.w.) H U U E e     $ F G G G G J l ; ; z } } { ` ..i.@.@.@.@.@.@.@.l @.@.-.-.x 9 9 9 9 9 9 ",
"9 9 9 9 9 s -.@.@.o.I =.@.0.q.@.&.-.@.Z Z V y & > F T T W ! ) ) ) ' [ } Y H z u J ( ` [ ` #.0.@.@.@.@.@.@.z @.@.@.-.% 9 9 9 9 9 ",
"9 9 9 9 7 b &.@.@.Y { q.#.=.-.q.-.@.Y Z u ; & U j ` ) ) ) ) ) ) [ [ [ { } Y C L [ D J Y ` } @.@.........@.] L #.@.-.l 6 9 9 9 9 ",
"9 9 9 9 4 ) ..O...D =.@.q.=.q.@.q.) Z V ; r L ( ! ! ) ) ) ) ' ' [ { { [ ] Q W [ } { Y S Q ` | q.&.@...@.@.@.l @.@.@.~ 2 9 9 9 9 ",
"9 9 9 9 k o.O...I | -.q.-.q.w.w.[ u ; q K Q ( ) ) ' ) ) ` ` [ [ [ { } { ! } | [ [ ' [ ' A S Q ..q.-.@.@.&.&.] W @.@.| a 9 9 9 9 ",
"9 h s k k D D D k J Y ] w.w.y.@.Z e q v Q ( ( ) ! ' ! [ ' ' [ [ [ [ } W [ [ [ [ ' [ ' [ _ U K Q -.-.=.&.' Y I x D P P k s s s n ",
"g / ] ] _ ) ) ^ ( ( ` ( W ' ) o.u ; v W ( ( ( ) }  .}  .}  . . ... .[ H .. . .....' } ] | ] A U @.Y Y Y ] { o.] _ _ ] _ _ ] X.P ",
"I :.q.@.@.@.@.....| O...@.+.H V # C W ' ! ) ) ) u u u u u C F F H H F H H H H Z H ..[ [ } } o.= U w.q.;.@.@.@.@.&.#.#.*.*.#.;.I ",
"R =.&.@.@.@.@.@.@.@.@...@.=.y.y r T ` ` ! ) ) F F F K K j E U F K K T T T T K T Y Q [ [ [ } } I z y.q.@.@.@.@.-.*.&.@.-.*.&.;.I ",
"I -.&.&.@.@.@.&.@.@...@.@.@.@.; u ) ` Q ! ! [ u K ! ' ' _ [ [ [ [ } [ [ [ [  .! Y Y [ [ [ } } ) y -.@.@.@.&.#.@.@.*.*.#.#.&.:.I ",
"R =.&.@.>.>.>.......=...@.=.' = v [ ) Q ! [ [ Z E ' ' [ ) [ [ [ { [ [ [ [ } } [ Q L ( [ } } } | : [ -.@.&.@.#.&.*.r.,.0.*.*.;.I ",
"I -.&.&.<.6.2.>.=.&.&.&.@.&.Q : T ) ) } ! ! ' K E [ ' [ [ [ [ } [ { { } } } } [ ~ Y ` [ [ } } } D ( q.@.@.-.-.-.*.4.6.r.r.*.:.I ",
"~ -.&.=.7.1.,.,.=.&.&.&.=.q.l S E [ ) ` [ ! K K T [ [ [ [ [ [ { } | } { } { } [ ( Y ` [ [ [ [ [ [ z #.@.@.*.;.#.-.6.a.4.4.*.w.I ",
"I ;.=.&.6.a.,.,.=.=.=.&.0.q.l S E [ [ [ [ [ F K W [ [ } [ [ } { } { { } { } [ { ( Y ` { [ } [ [ [ z q.@.@.-.-.-.-.6.q.f.6.;.w.I ",
"I ;.&.-.1.7.2.e.=.=.=.&.&.w.z A ! [ [ [ [ | E T W } } }  . .{ | { | | } } { { { ( Q ` } } [ [ [ [ z q.@.@.-.*.-.-.4.4.a.a.;.:.I ",
"R q.-.-.q.q.q.=.=.=.-.=.&.q.z S ! [ } [ [ | ) T ! } }  .O. .| { | | |  .{ { } { ` Q } [ } [ { [ [ A q.#.-.-.*.-.-.:.:.:.;.:.:.I ",
"I w.-.-.-.-.-.-.-.-.-.-.-.;.l S ! [ } } } } ..T ! | }  . . .| | | | {  .{ | { [ ) ! | } } } [ [ [ z ;.&.#.q.=.@.q.q.;.;.;.;.q.I ",
"I w.q.-.;.;.-.-.-.-.-.-.-.;.l S ! } } } } } } W ! | |  .| |  .| |  . . . .|  . .) ) } } [ [ [ ' ` z -.-.=.#.q.q.q.-.q.q.-.;.w.I ",
"I y.q.-.-.;.;.-.-.-.-.-.| ] k y ! }  . ...} } W ) } | | |  .|  . . . . . . . . .[ ! | } [ [ [ ` Y z { o.-.q.q.q.-.q.*.#.O.-.w.I ",
"I u.w.w.q.q.;.w.w.{ { o.~ D S = )  . . . . .| W ) | | | |  . . . . . . . . . . .) ' | } [ ` ! ! : W Y ^ { { | o.@.w.;.#.#.;.w.I ",
"l @.@.| } } } | ) @.o.O.&.&.=.J ^  ... . .| } W ) |  .} |  . .|  . . . . . . . .' ) | } } } ' W J @.@.O.| ) D Y ` } } { { [ | z ",
": [ ` Y Q E Q E A ] ;.-.=.@.@. .T }  .....|  .! [ | }  . .} |  . . . . . . . .O.' ) | | | { } J { @...@.#.@.J ( Y U U U Y Q ` : ",
": ` U U L D J A l I -.@.&.@.&.&. .^  ... . .| ! !  ..... .@.@.@.&.&.@.@.&.&.&.{ ) ' | } | | Y ~ O.@...O.O.@.Y Y J J J J L U Q ; ",
": U A ] @.@.| ' ] ; @.-.&.&.&.&.&.{ ) .. . .} W ! W T T E T T T T T T F K U j T ! ' } | | ~ J ' O.@...| O.@.; | @.@.@.q.{ V ` : ",
": ` u _ @.@.| { _ : @.=.&.=.&.&.*.-.T  .....| &.| ! ( ! ( ) ^ ) ! ) ) ) ) ( ( ( ( @.} } | D ~ q.0.@.@.@.@.@.= } @.@.q.=.] V Y : ",
"4 O o y ;.@.@. . .Y t @.=.=.=.&.&.;.;.T ^  ...|  ...@.@.&.....&..... .[ ( | @...@.}  .T J [ @.@.@.&.=.=.@.e L @.@.@.@.q.V . # 4 ",
"9 9 4 q @.&.@. . .) t ~ -.&.=.-.-.-.;.=.^ ^ |  . . .|  .|  . . . . . .&.[ } |  .| { Q ~ =.@.@.0.-.-.&.&.L : Y @.@.=.=.@.r 4 9 9 ",
"9 9 9 O E @.@.@.@. .L S  .q.0.&.=.=.=.=.&.T T ^ '  .|  .|  . . . . . . .&. .| ) ( W G *.#.0.#.@.-.@.&.' y A { ..@.q.@.U + 9 9 9 ",
"9 9 9 3 y @.@.@.O...) y Q } ) ;.=.=.-.*.&.&.{ ^ T c | | { &. .|  . . . .| | ) I / | q.-.-.@.@.q.-.q.' V = A ] @.&.=. .; 4 9 9 9 ",
"9 9 9 9 ; ' =.@.&.W D r T Q T  .;.;.=.-.&.&.&.&.] R G G G b T R T j G T R | G | &.-.@.q.q.q.q.@.q.@.H V l D L &.=.;.U & 9 9 9 9 ",
"9 9 9 9 - H  .] ~ O. .t q ` ^  .:.;.;.-.*.&.&.O.&.&.b X.X.X.X.X.} [ ] ] ^ c [ @.*.-.-.-.@.q.q.q.| Y S y Y ] ) Y ' | r $ 9 9 9 9 ",
"9 9 9 9 9 O U O.w.=.&.w.:.w ) ) ;.e.*.;.*.&.&.&.&./ :.*.;.;.;.*.*.*.&.&.&.;.T *.*.-.-.-.q.@.q.@.H S ; ' o.| { #.{ A + 9 9 9 9 9 ",
"9 9 9 9 9 + U Q #.&.0.@.@.( * ] ) | u.-.*.&.&.*.*./ -.*.;.-.*.&.*.&.&.&.&.;.L *.*.=.=.*.-.u.' F H & ( O.@.| | { y u + 9 9 9 9 9 ",
"9 9 9 9 9 9 & Y ` =.#.@.@.@.#.A L ) ( -.*.;.;.*.] +.*.*.*.*.*.*.*.&.*.&.&.&.O.] *.;.;.&.&.K H u V | ..O. ...| A r O 9 9 9 9 9 9 ",
"9 9 9 9 9 9 4 S Q [ =.0.@.q.q.{ b D W Q W &.&.:.X.+.*.*.-.*.e.;.*.r.&.*.&.&.+.{ ;.&.*.K H Z v t ) | O...@.O.K y ; 3 9 9 9 9 9 9 ",
"9 9 9 9 9 9 9 2 u !  .@.@.-.@.q.w.k D J Q T L &.X.o.;.*.-.-.a.h.s.3.*.*.&.*.O._ &.G F K C v r  .{ | O...} ! V ; 0 9 9 9 9 9 9 9 ",
"9 9 9 9 9 9 9 9 4 u ` ` =.q.q.q.| O.{ D 0 r T J c o.;.*.;.:.a.j.f.5.*.-.-.*.+.t F G w = T {  .{ @.O.@.| H V ; 3 9 9 9 9 9 9 9 9 ",
"9 9 9 9 9 9 9 9 9 - ; ` [ ..q.@.{ &.@.o.~ v - - 0 +.;.:.:.*.t.5.8.h.-.;.-.*.+.0 & - D T  .-.;.{ | #.' U Z & $ 9 9 9 9 9 9 9 9 9 ",
"9 9 9 9 9 9 9 9 9 M 2 A Q ` { ` &.&.&.@.@.) I I D +.;.;.:.;.t.h.f.5.;.;.;.-.O.v v W |  .*.*.=.=.;.` K Z ; , 6 9 N $.$.9 9 9 9 9 ",
"9 9 9 9 9 9 9 N N $.M 2   ` Q J ;.y.=.&.@.@.| | ) +.:.:.:.;.:.:.:.:.:.*.-.*.&.G T &.&.*.*.;.t. .: U Z   < 9 9 N N $.9 9 9 9 9 9 ",
"9 9 9 9 $.$.9 N N 5 9 9 9 . A H ! E &.i.u...} | ^ #.q.;.q.;.;.;.;.;.;.-.-.-.+.L T @.@.:.y. .u u e u   9 9 9 9 N N 5 9 9 9 9 9 9 ",
"9 9 9 9 $.N N 5 5 9 9 9 9 9 > : H E E U U @.....~ ] q.q.;.=.=.&.&.&.&.&.-.;.] D G &...F C v u q # @ 9 9 9 9 9 5 5 9 9 9 9 9 9 9 ",
"9 9 9 9 5 N N 9 9 9 9 9 9 9 9 4 + V K E U U H S y J ' ` Q Q Q Q Q W E ! ` ' J ; r F F F F u e + 3 9 9 9 9 9 9 9 9 9 9 9 9 9 9 9 ",
"9 9 9 9 9 5 9 9 9 9 9 9 9 9 9 9 9 + r u u U U Z y J ` Q Q Q Q E W W E E U Q D - r F C r r q + 9 9 9 9 9 9 9 9 9 9 9 9 9 9 9 9 9 ",
"9 9 9 9 9 9 9 9 9 9 9 9 9 9 9 9 9 9 4 2 , = = & # J Q Q E E E U E E E E U U H X # & # , , 3 9 9 9 9 9 9 9 9 9 9 9 9 9 9 9 9 9 9 ",
"9 9 9 9 9 9 9 9 9 9 9 9 9 9 9 9 9 9 9 9 9 , , , + J E Y Z U U U U U E U U U F + , , , 9 9 9 9 9 9 9 9 9 9 9 9 9 9 9 9 9 9 9 9 9 ",
"9 9 9 9 9 9 9 9 9 9 9 9 9 9 9 9 9 9 9 9 9 9 9 9 , F K H Z U Z U U U U U K U S , 9 9 9 9 9 9 9 9 9 9 9 9 9 9 9 9 9 9 9 9 9 9 9 9 ",
"9 9 9 9 9 9 9 9 9 9 9 9 9 9 9 9 9 9 9 9 9 9 9 9 7 & # # # # # # # # # # X O & 6 9 9 9 9 9 9 9 9 9 9 9 9 9 9 9 9 9 9 9 9 9 9 9 9 "
};
