/* XPM */
static char *_2a2d82c72bf4f34e6650cc72946ce282FnDxPwpEOpPzCl0[] = {
/* columns rows colors chars-per-pixel */
"64 64 56 1 ",
"  c #4F2A13",
". c #512F19",
"X c #4F311A",
"o c #54321C",
"O c #553720",
"+ c #553923",
"@ c #5A3C25",
"# c #646B17",
"$ c #72751B",
"% c #5C422C",
"& c #5F4632",
"* c #5D4935",
"= c #534A3D",
"- c #5F4C38",
"; c #604732",
": c #604E3A",
"> c #787B21",
", c #5F5648",
"< c #615749",
"1 c #635A4B",
"2 c #685E4E",
"3 c #665E50",
"4 c #695F50",
"5 c #676051",
"6 c #6B6354",
"7 c #6E6857",
"8 c #6E6758",
"9 c #6F6958",
"0 c #746E5E",
"q c #75705F",
"w c #766F60",
"e c #767060",
"r c #7B7464",
"t c #7C7866",
"y c #7D7668",
"u c #A2783C",
"i c #817C6E",
"p c #837E70",
"a c #7F8226",
"s c #A2814F",
"d c #84806F",
"f c #868271",
"g c #898576",
"h c #8D8877",
"j c #8B8778",
"k c #8D8979",
"l c #928D7D",
"z c #C6A740",
"x c #8F8C80",
"c c #918E82",
"v c #959184",
"b c #96948A",
"n c #9A968E",
"m c #9B988F",
"M c #9CA8AD",
"N c #B3B0A9",
/* pixels */
"$$$$$$$$$$$$$$$$$$$$$$$$$$$$$$$$$$$$$$$$$$$$$$$$$$$$$$$$$$$$$$$$",
"$$$$$$$$$$$$$$$$$$$$$$$$$$$$$$$$$$$$$$$$$$$$$$$$$$$$$$$$$$$$$$$$",
"$$$$$$$$$$$$$$$$$$$$$$$$$$$$$$$$$$$$$$$$$$$$$$$$$$$$$$$$$$$$$$$$",
"$$$$$$$$$$$$$$$$$$$$$$$$$$$$$$$$$$$$$$$$$$$$$$$$$$$$$$$$$$$$$$$$",
"$$$$$$$$$$$$$$$$$$$$$$$$$$$$$$$$$$$$$$$$$$$$$$$$$$$$$$$$$$$$$$$$",
"$$$$$$$$$$$$$$$$$$$$$$$$u>a$$$$$$$$$$$$$$$$$$$$$$$$$$$$$$$$$$$$$",
"$$$$$$$$$$$$$$$$$$$$$$$$#$a$$$$$$$$$$$$$$$$$$$$$$$$$$$$$$$$$$$$$",
"$$$$$$$$$$$$$$$$$$$$$$$$$$##$$$$$$$$$$$$$$$$$$$$$$$$$$$$$$$$$$$$",
"$$$$$$$$$$$$$$$$$$$$$$$$$$$$$$$$$$$$$$$$$$$$$$$$$$$$$$$$$$$$$$$$",
"$$$$$$$$$$a$$$$$$$$$$$$$$$$$$$$$$$$$$$$$$$$$$$$$$$$$$$$$$$$$$$$$",
"$$$>aa$$$a$$$$$$$$$$$$$$$$$$$$$$$$$$$$$$$$$$$$$$$$$$$$$$$$$$$$$$",
"$$$$a>>$aa$$$$$$$$$$$$$$$$$$$;*&&&&&*$$$$$$$$$$$$$$$$$$$$$$$$$$$",
"$$$$#>>$NN$$$$$$$$;%;;;;;@,&&iiitypyp-$$$$$$$$$$$$$$$$$$$$$$$$$$",
"$$$$$#>NssN$$$$$$%wwwpipppppppiyydypyy*$$$$$$$$$$$$$$$$$$$$$$$$$",
"$$$$$$##NN#$$$$$%0wwwippppppiiiippiyp65*$$$$$$$$$$$$$$$$$$$$$$$$",
"$$$$$$$$##$$$$$%00wwpippppppiiiipyy8666*$$$$>>$$$$$$$$$$$$$$$$$$",
"$$$$$$$$$$$$$$%00qqpppkkkpppipiii<<<4684%$$au$$$$$$$$$$$$$$$$$$$",
"$$$$$$$$$$$$$%000qqppkkkkkfffiipi<<<2866;#a$#$$$$$$$$$$$$$$$$$$$",
"$$$$$$$$$$$$$%q0q0qiihkkkkkggfiii<<<<4487&aa##$$$$$$$$$$$$$$$$$$",
"$$$$$$$$$$$$$%qq0qqqvhkkkkkkfgiiii0iii2:6;;;%@$$$$$$$$$$$$$$$$$$",
"$$$$$$$$$$$$%e0qwwwwwcvvcklkkjkhpiiiii9iqiqii9@$$$$$$$$$$$$$$$$$",
"$$$$$$$$$$$%iyqe0wwr48848ckkkkhkpliii0iidqiqi9i%$$$$$$$$$$$a$$$$",
"$$$$$$$$$$%iiiydewr3844886vkkkkhhhipiiiqqiqiiiii&;*;;ua#$$a$$$$$",
"$$$$$$$$$%idtddiyx484484eeqbvkkjlhlppiiiiiqi0i0irrrrr;MM$aa$$$$$",
"$$$$$$$$$%iidiiixxjjjjjjeerervkjhhhkkhphfiiipdffgddrrr&sMa$$$$$$",
"$$$$$$$$%iipiidlcjjjjjjjjeerervvhlhlkpphggppfdfhhhhjjre&#NN$$$$$",
"$$$$$$$%pppiiikcxjjjjjjkhjkreeerlhlklhhpgfgffhlhhhjhjkrr%sN$$$$$",
"$$$$$$%qqqq78ccxxjjjjjjjkkjkgjjjhlhlllllgghglhhhhhhhjj331%#$$$$$",
"$$$$$$%wi4769lccjjjjjjjjjkjjjgjklllllllllghlkkkkhkhhgg533%$$$$$$",
"$$$$$$%e77799ccgjjjjjjjjhjjgggllllllllllllkkkkkkhhkhl5553%$$$$$$",
"$$$$$$%w777900ljjjjjjjjjjfjggklclllllllllllkllkklhhc,53333%$$$$$",
"$$$$$$**;799900ljjjjjjjjfgjggxlkllllllllllllklklhhl11,,3331%$$$$",
"$$$$$=ggg;w8800wcjjjjjjjfgggjvlllllllllllllllllkkn2<1,1,===+$$$$",
"$$$>@gggpj;80088wccxxcxcjgggjvlklllllvlllllllllnn1121,,,===+$$$$",
"$$$+fgfgjjp,808w013,3,,3xbjggvvllllllllllmmmbvb22211,11:===X$$$$",
"$$$+0vggjppp,00w1,,,3,1115bbvvvvlllllnlnmq00000222:21,1==== $$$$",
"$$$+webjggggg@w1,,3,3,,,56667bbvlllllnlmq0000q22222:221===X$$$$$",
"$$$+ee0xcggggg=,113,,,3566666qqbmlnlnlliqq0qqq@@@@@@111== a$$$$$",
"$$$+ee866vxxxxxo,1,,565566666e0qipffph4424qq0@qii:76@21*X$$$$$$$",
"$$$Oe868668611,o=11555556666600q7ifff444722q%qqiqi265@1X$$$$$$$$",
"$$$$O668888,111o=,5555555685000099ii4444466@qttqtqe66=o$$$$$$$$$",
"$$$$$ooX4811111X=+555555445000q0i79i42445@@trtqtttte6=o$$$$$$$$$",
"$$$$$$$$o6,,,,O$X3355555469999q00wu,2444@fffdrtrqted==o$$$$$$$$$",
"$$$$$$$$$oOoOX$$#+X53333499999900w93224@ifdpdddittd=,=X$$$$$$$$$",
"$$$$$$$$$$$$$$$$$$$o+33649989999000222@cfddffppfdl3==,X$$$$$$$$$",
"$$$$$$$$$$$$$$$$$$$$zXXOo898699986232@xxpdfiddfpg111===X$$$$$$$$",
"$$$$$$$$$$$$$$$$$$$zuuz$$oooo69966331@00llcchkkv11111== $$$$$$$$",
"$$$$$$$$$$$$$$$$$$$#zz#$$$$$$oooO6313@0000qqckv1,11,,==X$$$$$$$$",
"$$$$$$$$$$$$$$$$$$$$##$$$$$$$$$$$oooo@00000q7v111111,XX$$$$$$$$$",
"$$$$$$$$$$$$$$$$$$$$$$$$$$$$$$$$$$$$#o0000q7711,1,,  $$$$$$$$$$$",
"$$$$$$$$$$$$$$$$$$$$$$$$$$$$$$$$$$$$$ 00007771,,1  $$$$$$$$$$$$$",
"$$$$$$$$$$$$$$$$$$$$$$$$$$$$$$$$$$$$$$ 900777<,  $$$$$$$$$$$$$$$",
"$$$$$$$$$$$$$$$$$$$$$$$$$$$$$$$$$$$$$$$        $$$$$$$$$$$$$$$$$",
"$$$$$$$$$$$$$$$$$$$$$$$$$$$$$$$$$$$$$$$$$$$$$$$$$$$$$$$$$$$$$$$$",
"$$$$$$$$$aa$$$$$$$$$$$$$$$$$$$$$$$$$$$$$$$$$$$$$$$$$$$$$$aa$$$$$",
"$$$>$$$>>a$$$$$$$$$$$$$$$$$$$$$$$$$$$$$$$$$$$$$$$$$$$$$aaa$$$$$$",
"$$$$aa$>>#$$$$$$$$$$$$$$$$$$$$$$$$$$$$$$$$$$$$$$$$$$$$$a$#$$$$$$",
"$$$$a>>##$$$$$$$$$$$$$$$$$$$$$$$$$$$$$$$$$$$$$$$$$$$$$$##$$$$$$$",
"$$$$#>>$$$$$$$$$$$$$$$$$$$$$$$$$$$$$$$$$$$$$$$$$$$$$$$$$$$$$$$$$",
"$$$$$#$$$$$$$$$$$$$$$$$$$$$$$$$$$$$$$$$$$$$$$$$$$$$$$$$$$$$$$$$$",
"$$$$$$$$$$$$$$$$$$$$$$$$$$$$$$$$$$$$$$$$$$$$$$$$$$$$$$$$$$$$$$$$",
"$$$$$$$$$$$$$$$$$$$$$$$$$$$$$$$$$$$$$$$$$$$$$$$$$$$$$$$$$$$$$$$$",
"$$$$$$$$$$$$$$$$$$$$$$$$$$$$$$$$$$$$$$$$$$$$$$$$$$$$$$$$$$$$$$$$",
"$$$$$$$$$$$$$$$$$$$$$$$$$$$$$$$$$$$$$$$$$$$$$$$$$$$$$$$$$$$$$$$$"
};
