/* XPM */
static char *down_move_011676416189[] = {
/* columns rows colors chars-per-pixel */
"64 64 247 2 ",
"   c None",
".  c #010102",
"X  c #0E0904",
"o  c #080908",
"O  c #120A03",
"+  c #140907",
"@  c #0B120C",
"#  c #15140C",
"$  c #0C1412",
"%  c #0C181A",
"&  c #1D1B1B",
"*  c #161914",
"=  c #060C15",
"-  c #28180B",
";  c #331D08",
":  c #291713",
">  c #33170F",
",  c #1A251C",
"<  c #172519",
"1  c #10230C",
"2  c #2C240D",
"3  c #22200B",
"4  c #37270A",
"5  c #292618",
"6  c #362B15",
"7  c #37341A",
"8  c #2B351A",
"9  c #161C27",
"0  c #0C1B26",
"q  c #082426",
"w  c #1B2B23",
"e  c #1A2726",
"r  c #1B352A",
"t  c #082C36",
"y  c #1A2837",
"u  c #093537",
"i  c #193635",
"p  c #0F3029",
"a  c #262926",
"s  c #23332B",
"d  c #273828",
"f  c #373A25",
"g  c #242B3D",
"h  c #253C32",
"j  c #293836",
"k  c #373935",
"l  c #3C2B24",
"z  c #472B09",
"x  c #4E300B",
"c  c #58350C",
"v  c #4A2B1C",
"b  c #493A1A",
"n  c #593818",
"m  c #552E11",
"M  c #4A3729",
"N  c #533628",
"B  c #4F3630",
"V  c #693A2B",
"C  c #6D3D30",
"Z  c #603810",
"A  c #0F463D",
"S  c #36442A",
"D  c #244234",
"F  c #2B4738",
"G  c #334A3D",
"H  c #374B37",
"J  c #3D553C",
"K  c #56491D",
"L  c #514714",
"P  c #484527",
"I  c #5B4A28",
"U  c #59532B",
"Y  c #434A34",
"T  c #565837",
"R  c #4A5231",
"E  c #685827",
"W  c #775739",
"Q  c #6B4B2F",
"!  c #586530",
"~  c #716A33",
"^  c #68501C",
"/  c #073A43",
"(  c #173C46",
")  c #162D45",
"_  c #2B3647",
"`  c #33384C",
"'  c #333B52",
"]  c #4B3F41",
"[  c #1A4449",
"{  c #1A4B57",
"}  c #18555B",
"|  c #094C54",
" . c #284649",
".. c #344B44",
"X. c #375648",
"o. c #264B58",
"O. c #29575A",
"+. c #375957",
"@. c #354A51",
"#. c #3C6254",
"$. c #396656",
"%. c #195565",
"&. c #2A5464",
"*. c #285868",
"=. c #345665",
"-. c #2E536C",
";. c #1D666C",
":. c #28676C",
">. c #296A75",
",. c #366A76",
"<. c #346772",
"1. c #18635F",
"2. c #455B49",
"3. c #575442",
"4. c #425E52",
"5. c #4C4D4A",
"6. c #6E5642",
"7. c #436354",
"8. c #436B5B",
"9. c #4B6D5B",
"0. c #496657",
"q. c #546A58",
"w. c #506B4B",
"e. c #7A6753",
"r. c #726B47",
"t. c #495468",
"y. c #4D5874",
"u. c #4A526A",
"i. c #567866",
"p. c #4C6E6D",
"a. c #647D6A",
"s. c #666564",
"d. c #895032",
"f. c #8D7235",
"g. c #8D5D41",
"h. c #986B4B",
"j. c #92764C",
"k. c #AA7550",
"l. c #C17D55",
"z. c #6D8359",
"x. c #5A826C",
"c. c #5C8373",
"v. c #66836C",
"b. c #678975",
"n. c #72977A",
"m. c #5C8059",
"M. c #978339",
"N. c #89873D",
"B. c #AB9638",
"V. c #BEA63D",
"C. c #C8A737",
"Z. c #998745",
"A. c #928C44",
"S. c #B6825E",
"D. c #A98A51",
"F. c #BCA845",
"G. c #BCB45D",
"H. c #91906E",
"J. c #BB8D69",
"K. c #88A578",
"L. c #ADB772",
"P. c #C38359",
"I. c #C6B551",
"U. c #D39869",
"Y. c #CD8D60",
"T. c #D5A479",
"R. c #DEA36E",
"E. c #E6A878",
"W. c #E1B07F",
"Q. c #B7C26B",
"!. c #D2C856",
"~. c #117F88",
"^. c #297986",
"/. c #397B87",
"(. c #376D84",
"). c #46798B",
"_. c #5F698B",
"`. c #6C7691",
"'. c #35858E",
"]. c #2C8995",
"[. c #3B8693",
"{. c #358B95",
"}. c #3B8A95",
"|. c #388897",
" X c #3D949D",
".X c #389499",
"XX c #2B8589",
"oX c #3D9BA2",
"OX c #3BA7AB",
"+X c #448997",
"@X c #45959C",
"#X c #58989A",
"$X c #4D8A94",
"%X c #7B9D86",
"&X c #758791",
"*X c #7BA388",
"=X c #4799A5",
"-X c #539BA6",
";X c #529AB0",
":X c #748DA2",
">X c #4AA6AA",
",X c #59A7AB",
"<X c #57A9B4",
"1X c #5CB4BA",
"2X c #57B6B8",
"3X c #50AFB1",
"4X c #65A8AB",
"5X c #66B4BA",
"6X c #70AFB1",
"7X c #70C5BD",
"8X c #5EC8BD",
"9X c #68BBC2",
"0X c #67C8C7",
"qX c #68D8CC",
"wX c #70D3CE",
"eX c #54C6C6",
"rX c #86AC92",
"tX c #81A88C",
"yX c #AFB08F",
"uX c #8990A9",
"iX c #98AFB4",
"pX c #AFB2AC",
"aX c #929793",
"sX c #CEAD8F",
"dX c #ECB98A",
"fX c #F2B98A",
"gX c #ECBA94",
"hX c #C2BDA9",
"jX c #B5C6B5",
"kX c #81C3BA",
"lX c #F2C99B",
"zX c #D1C4AF",
"xX c #FCD3A5",
"cX c #FBDAAB",
"vX c #FDD7AC",
"bX c #FFE1B3",
"nX c #A8B0C5",
"mX c #8BDACA",
"MX c #95DDCA",
"NX c #92D9D1",
"BX c #ABD2CA",
"VX c #BAE7CB",
"CX c #BCE6D5",
"ZX c #8BE1D4",
"AX c #CFD9C5",
"SX c #CAE6CD",
"DX c #C9D1E8",
/* pixels */
"                                              *.*.&.&.&.&.&.&.-.-.-.*.                                                          ",
"                                          o.,./.@X,X4X,X-X$X$X$X$X-X,X<X#X,.o.                                                  ",
"                                  =.<.,.,.,.@X2X0XwXwX0X1X<X1X<X1X1X0XqX0X,X+X,.O.                                              ",
"                               .(.).+X<X1X1X0XqXwX0X3X=XoX X=X=X@X.X>X3X0XqXwX8X$X<.O.                                          ",
"                               .*.,.[.=X1X5X0XwX0X9X<X=X|./.}.}.|.|.'. X>X2X8X0X1X+X:.o.                                        ",
"                                i [ *./.-X5X5X9X9X1X1X<XoX|.|.}.|.|.|.{.].{.=X5X5X3X+X>.                                        ",
"                                  i [ %.^.=X1X9X1X=X X=X|.{.{.{.{.|.{.{.{.|.+X@X X2X0X.X*.                                      ",
"                                    { ;..X2X0X5X=X|.^. X;X=X{.{.{.{.[.+X}.{.].].].3X0X2X[.                                      ",
"                                  O.,.[.5XZXwX8X X]..X@X<X=X].{.{.}.{.+X+X{.{.].].OX0XmX,X1.                                    ",
"                                  *.|.4XBXSXMX8X>X X;X4X-X}.{.].{.{.{.].{.}.+X{.XX>XmXCXiX1.                                    ",
"                                  ;.oX9XNXVXVXNX9X[.@X7XiX6XXX~..X=X XoX=X/.+X6XjXjXVXBX4X1./                                   ",
"                                ( >.>XqXqXMXCXCX9X^.XXkXSXjX#X#X5X9X=X;X,X<./.6XVXAXVXwXOX1.p                                   ",
"                                o.$X5XqX0X0XNXmX,X>.$X5XmXVXAXAXMXwX5X<X[.} >.-X-X6X9X0X3XO.o                                   ",
"                                =.$X9X0X1X>X9X2X+Xo.).3XeXmXVXSXMX0X3X.X;./ | ^.XX}.>X1X-XO.=                                   ",
"                                O.$X5X9X>XoX<X+X ._ +.{.<X0XqXqX7X-X+X>.[ _  .:.XX+X=X=X{.o.=                                   ",
"                                  ,.#X6X;X|.@X:.j B M O.+X<X0XqX3X,.-.o.F B B { XX[./.|.:.( =                                   ",
"                                  o.).6X-X^.|.>.k V V B =.).3X2X}.{ ( B V Q B } XX(.(.^.O.r                                     ",
"                                  t >.,X$X*./.*.a N V N j =./.].^.{ _ B B V l O.'.-.&.:.[ e                                     ",
"                                    } {.,.| ;.' $ # : > n B O.].(.g N v : : : t.).{ | | ) &                                     ",
"                                    | >.O./ } y.5.: o > d.d.s { [ M h.Q + + s.`.-.[ [ { y                                       ",
"                                    / o. .i [ &XaX] + N P.l.W 3.3.h.Y.h.- 3.aX&X[ k ..( t                                       ",
"                                      _ ] B a aXhXe.> g.T.W.T.T.T.E.E.S.v r.zXiXT C B e %                                       ",
"                                      * v Q g.pXzXe.; W T.fXdXdXdXW.dXS.N e.zXsXk.d.v * e a                                     ",
"                                      # ; d.k.gXzXH.W k.W.fXgXgXdXlXdXT.U.sXzXfXY.C - 9 d k j                                   ",
"                                  F F h * N k.E.gXlXlXlXxXxXxXxXxXxXxXcXcXxXgXU.k.b @ F ....H k                                 ",
"                                X.X.X.X.r : d.P.dXlXcXcXbXcXvXcXcXcXcXbXxXfXR.h.b d F $.#.$.#.F                                 ",
"                              2.0.8.8.8.X.% + W S.U.dXxXxXxXxXxXxXxXlXgXT.h.h.m o F p.b.x.i.i.#...                              ",
"                            0.a.b.i.8.8.X.h - 5 7 N k.R.dXdXlXlXdXT.T.S.g.- X @ w $.b.rX%Xv.v.i.7.                              ",
"                            v.%Xb.i.i.i.#.D , @ . X v d.k.j.j.k.6.M M v 5 # $ e D #.b.rXrXn.b.b.i.                              ",
"                          F i.*X%Xb.n.b.0.D , < , , * # + $ + O X . . @ , d w r D J 9.n.rXrX*Xc.4.                              ",
"                          F G 9.%XrXtXi.X.D D s a d i p 0 = o @ @ , s F F D , d D D H $.n.*X*X9.G                               ",
"                          d w F x.c.a.2.F d d s h X.X.X...h p i i ..#.#.+.D r , a a , D G #.2...h                               ",
"                          , s S D 8 d S d , < h X.$.9.9.$.$.A A A $.i.x.$.X.i w , # o @ % 1 < s s                               ",
"                          5 2 6 2 2 2 2 5 , i X.0.8.i.v.m.m.w.w.w.m.v.b.x.w.J d & # X X < < , , ,                               ",
"                          6 z z z z ; - @ < D 4.9.i.b.n.K.Q.!.!.!.L.K.*XtXv.9.F @ # 2 ; 2 2 5 @ @                               ",
"                          2 z m c x ; X . @ h ..7.i.n.L.Q.!.C.C.I.G.Q.L.H.9.$.i o - 4 x z z 2 X o                               ",
"                          3 7 n n x 2 O . $ h H F H z.I.I.f.L ^ L B.!.V.~ S H 8 X ; z n n x 4 O                                 ",
"                        e a Y 3.f 6 5 & @ @ f R U U ! ~ ~ R 7 S S ! ~ E E E U 7 O 6 c c Z x 4 O                                 ",
"                        e ..4.4.s < , a 9 + 5 P E ! 8 p  .0.q.9.w.X.A p f U U 7 X 4 c c c z - #                                 ",
"                        s 4.8.8.F < * a : . + 2 7 8 r  .8.i.x.x.x.p.+.D a : 5 2 - 4 x n K b 7 5                                 ",
"                        5 3.6.5.H w o a & # b 4 X . e h X.9.x.c.x.$.F r $ . X x E 7 S a.a.i.2.H                                 ",
"                        : V Q C H w $ a * : U K 7 5 1 < e  .O.$.O.D , 1 5 5 7 L L d Y i.a.p.0...                                ",
"                        : V C C l a a $ # # 3 P ~ E E n P T ! ! ! U L I ^ ~ W L 1 i X.w.5.q.q.j                                 ",
"                          v N v     a % , d d R P E f.M.D.F.F.V.V.B.M.j.f.K H J F j k Q Q 6.3.:                                 ",
"                                    w w h X.0.2.S I f.M.M.B.V.B.V.M.f.M.f.P H 8.i.j 6.k.J.h.V >                                 ",
"                                    % i X.8.i.9.! ~ I f 7 b b S P f 7 b ^ W q.i.i.h 6.E.dXl.C -                                 ",
"                                    s X.9.c.c.9.A.M.S % q % ) { [ u q + ^ Z.r.z.x.D W U.U.k.C :                                 ",
"                                    H 7.i.v.i.w.D.F.T t [  .-.-.>.{ u 9 ~ V.N.i.i.h N f.h.d.m                                   ",
"                                    G 0.x.p.2.~ C.G.! / *.&.-.-.-.{ u s A.C.B.r.X.h w & O X                                     ",
"                                    j X.9.#.T M.M.r.O.%.*.{ [ [ [ / u p H N.N.f.R X.@.e # #                                     ",
"                                    d < s w.Z.j.T 0 %.-.*.{ [ ) t t u u q i r.f.N...i d P                                       ",
"                                    P 8 b f.Z.T r / %.*.-.*.=.-.t q i u t ) k r.Z.! 8 7                                         ",
"                                    K f.B.f.P p t i ( { -.=.=.-.y 0 y y y ) ' ] U Z.M.E                                         ",
"                                      E f.Q @ 0 t y ) o.&.=.-.( 0 e ` ` ` ' @.y : W f.E                                         ",
"                                      + X o . . 0 ' y._.y.y.=.y = _ u.u.u.' _ % . O O                                           ",
"                                      . . . . . e u.:XuXuX`.y.' g g _ _ ` _ 9 o . . .                                           ",
"                                      . . . . . 9 u.`.uX`._.y.' g e y ` ' _ y = . . . .                                         ",
"                                    . . . . . . $ ` y.`.`._.u._ y y g ' u.' _ % . . . .                                         ",
"                                      . . . . . o ` uXnXDXnX`.' g g g _ ` _ g 9 . . . .                                         ",
"                                        . . . . g y.`.uXnXuX`.y.' 9 9 0 & 9 9 $ . . .                                           ",
"                                              = u.`.y.u.u.y.`.`.u.= = . . . . .                                                 ",
"                                                  `.pXnXiXuX    ` = .                                                           ",
"                                                                                                                                ",
"                                                                                                                                "
};
