/* XPM */
static char *down_move_021676416190[] = {
/* columns rows colors chars-per-pixel */
"64 64 243 2 ",
"   c None",
".  c #010001",
"X  c #0B0904",
"o  c #090A0C",
"O  c #070708",
"+  c #140D06",
"@  c #0D120E",
"#  c #191409",
"$  c #080C13",
"%  c #0D1818",
"&  c #121413",
"*  c #1A1C1A",
"=  c #151A17",
"-  c #231709",
";  c #351D16",
":  c #2C1913",
">  c #1B221C",
",  c #17271F",
"<  c #2C210B",
"1  c #26220E",
"2  c #3A260A",
"3  c #292619",
"4  c #372A16",
"5  c #3C3316",
"6  c #081B28",
"7  c #171C25",
"8  c #1E2522",
"9  c #1C2A23",
"0  c #1A2629",
"q  c #092834",
"w  c #1B2A34",
"e  c #1B3334",
"r  c #1B363A",
"t  c #142F2D",
"y  c #222B25",
"u  c #272B28",
"i  c #25332A",
"p  c #2B3B2E",
"a  c #283529",
"s  c #363829",
"d  c #222935",
"f  c #232938",
"g  c #2C3C31",
"h  c #273837",
"j  c #353939",
"k  c #352D2A",
"l  c #431C15",
"z  c #462C17",
"x  c #4A3416",
"c  c #553718",
"v  c #53310B",
"b  c #482F24",
"n  c #473826",
"m  c #593628",
"M  c #473B35",
"N  c #5A3E32",
"B  c #653B2C",
"V  c #2D4134",
"C  c #28433A",
"Z  c #32463A",
"A  c #364A3D",
"S  c #374538",
"D  c #3A442E",
"F  c #524318",
"G  c #4F421A",
"H  c #4A4427",
"J  c #574A28",
"K  c #494635",
"L  c #48523B",
"P  c #585636",
"I  c #574C33",
"U  c #6B5B2B",
"Y  c #635527",
"T  c #654736",
"R  c #744732",
"E  c #795735",
"W  c #714B2C",
"Q  c #776736",
"!  c #746732",
"~  c #182C44",
"^  c #1C3C44",
"/  c #173C54",
"(  c #283946",
")  c #303B4E",
"_  c #1C4A51",
"`  c #274649",
"'  c #344C42",
"]  c #384A46",
"[  c #3C5245",
"{  c #3E554B",
"}  c #35544A",
"|  c #2C4B55",
" . c #2A4857",
".. c #314D5C",
"X. c #3A4458",
"o. c #375759",
"O. c #2E514F",
"+. c #2C5664",
"@. c #345464",
"#. c #375968",
"$. c #3E5369",
"%. c #37626B",
"&. c #3C6674",
"*. c #35707D",
"=. c #195061",
"-. c #435A4D",
";. c #435748",
":. c #41485B",
">. c #435D52",
",. c #4C5E54",
"<. c #555849",
"1. c #62584B",
"2. c #4A6255",
"3. c #4C655A",
"4. c #4A665B",
"5. c #526B5C",
"6. c #556757",
"7. c #5F705F",
"8. c #706E4D",
"9. c #485567",
"0. c #4C546D",
"q. c #526D61",
"w. c #5B7465",
"e. c #5A7667",
"r. c #446A7A",
"t. c #446975",
"y. c #5A6278",
"u. c #47727E",
"i. c #476769",
"p. c #627C6B",
"a. c #627966",
"s. c #6C6E75",
"d. c #835A38",
"f. c #965F31",
"g. c #846B35",
"h. c #8A7837",
"j. c #8B7330",
"k. c #907548",
"l. c #A7774F",
"z. c #967E64",
"x. c #976B51",
"c. c #6C8572",
"v. c #6C8874",
"b. c #738D78",
"n. c #6F856E",
"m. c #9A843C",
"M. c #8C833F",
"N. c #A28937",
"B. c #958742",
"V. c #938E4F",
"C. c #A58C43",
"Z. c #AA9544",
"A. c #BB8657",
"S. c #B39C47",
"D. c #B8A546",
"F. c #B1A859",
"G. c #A98564",
"H. c #BB9472",
"J. c #B5AF79",
"K. c #939F72",
"L. c #CBB54B",
"P. c #C9986E",
"I. c #CDA37D",
"U. c #D6A67A",
"Y. c #C6BE69",
"T. c #E0AC7C",
"R. c #E1C952",
"E. c #D2C565",
"W. c #357E8F",
"Q. c #447482",
"!. c #4A7B87",
"~. c #517C88",
"^. c #5E6782",
"/. c #636B88",
"(. c #6B728A",
"). c #727A8F",
"_. c #3E8392",
"`. c #4D828E",
"'. c #4E8692",
"]. c #4A8B98",
"[. c #518793",
"{. c #528995",
"}. c #568E9A",
"|. c #5B8B98",
" X c #5B929C",
".X c #539099",
"XX c #52838C",
"oX c #719195",
"OX c #5C98A2",
"+X c #639BA4",
"@X c #689DA7",
"#X c #7E86A3",
"$X c #6AA3AD",
"%X c #67A4AB",
"&X c #6DAAB1",
"*X c #6DA6B1",
"=X c #73ABB4",
"-X c #74AAB2",
";X c #77B7BA",
":X c #76B3B3",
">X c #5DA0A2",
",X c #78C1BE",
"<X c #7EBDC2",
"1X c #7CC3C4",
"2X c #7DD2CB",
"3X c #819D85",
"4X c #8B8E94",
"5X c #85A38A",
"6X c #88A78D",
"7X c #90AE91",
"8X c #A7A29B",
"9X c #8E95AD",
"0X c #92A9B4",
"qX c #AFB0B0",
"wX c #D0AE88",
"eX c #E2B68C",
"rX c #E7B98E",
"tX c #E1BD99",
"yX c #D5BBA4",
"uX c #B5C4B5",
"iX c #EBC49A",
"pX c #F3CA9F",
"aX c #CBCEBB",
"sX c #EBC8A1",
"dX c #F2CCA3",
"fX c #F8DBB3",
"gX c #EBD8B4",
"hX c #A8AFC4",
"jX c #81BEC4",
"kX c #83C5C5",
"lX c #84CDCA",
"zX c #81CAC3",
"xX c #88D5CD",
"cX c #9CD8CC",
"vX c #8DD1CB",
"bX c #AAD9CC",
"nX c #BCCDCC",
"mX c #ACE4D1",
"MX c #CCCEC7",
"NX c #C8E3CB",
"BX c #D5E3C8",
"VX c #E6E5C5",
"CX c #CBD3EA",
/* pixels */
"                                                              )  .) |                                                           ",
"                                              ..t.t.u.!.~.!.r.r.r.r.t.u.~.~.t.                                                  ",
"                                      @.@.$.@.t.[.@X;XzXzX;X*X-X-X*X*X;XzXzX%Xu.#.|                                             ",
"                                  o.i.Q.~. X|.@X;XlXvXlX;X&X$X$X$X$X$X-X,XxX1X:X%XXX#...                                        ",
"                                  %.!.XX+X;X<XzXxXxXkX=X+X}.[.[.{.{.{.'.}.&XjXxXxX;X}.&...                                      ",
"                                  ` | #.!.+X=X1X0XkX<X;X=X+X'.[.'.[.'.'.[.}..X%X;X;X-X{.&.o.                                    ",
"                                    w ( @.Q. X&X<X<X&X@X$XOX'.[.{.{.{.{.{.'.XX[.+X%X&X:XOX&.                                    ",
"                                      h  .r..X&X<X:XOX].'.}.}.{.{.{.{.{.{.[.[.[.{.'.OXzX;X'.o.                                  ",
"                                    j | &.|.,XxX1X%X[.[.'.+X*X X'.{.{.[.{.[.{.{.'.'..X;XxX,Xu.                                  ",
"                                    ( t.[.:XMXmX2X&X}..X+X%XOX.X{.[.'.[.{.[.{.{.'._.].;XmXuX|._                                 ",
"                                    ` Q.%XvXBXNXcXkX+X|.=X:XoX{._.'..X.X{..X{.'..X X:XcXNXaX@X+.                                ",
"                                    ` !.=XxXbXNXBXcX>XQ.$XnXaXoXW.}.&X+X X*X|.u.%XuXgXVXNXcX>X%.                                ",
"                                    #. XkXxX2XbXNXcX X&.$XbXNXuXqXuXvX:X$X$Xu.#.OX0XuXaXbX2XOX#.                                ",
"                                    u.-XlXlX;X<XlX:X~.&.%X1XcXBXVXNXcX1X-X{.+.` u.'.].*X2X1XOX+.                                ",
"                                    r.-XjX;X+X*X;X~. .| XX&XkXcXmXcXzX&X{.*. .( +.Q.]..X$X*X{.@.                                ",
"                                    #.OX=X-X}.OX X@.k M #.`.&X1XxX2X+X~.&.| j M ` r.{.'.}.}.r.|                                 ",
"                                    ` Q.@X=X}.'.!.` n B n $.'.*XkX;XQ.) ..( N B g %.{.!.`.`.#.                                  ",
"                                    t @.+X-X!.Q.!.` n B B M +.'.OX}.&._ j B B B p &.'.%.&.u.|                                   ",
"                                      ( ~. X$.#.&.q - z z z b #.!.`.@.j b b z l & #.!.| ..#.^                                   ",
"                                      r %.Q. .` $.j * . X m R b +.W.C N R : . X u i.&._ ` ..w                                   ",
"                                        ..#.( _ 0.oX<.X X d.l.R h ` M f.l.z . u s.oX` h X.| w                                   ",
"                                        ^ ` M w #.qX4X2 4 l.P.H.z.z.G.P.P.T - 1.qX9Xd m K r                                     ",
"                                        6 k B c s.MX8Xx x G.eXeXeXeXrXrXI.Q l s.MX8Xd.W b %                                     ",
"                                        % # m f.P.MX8Xc c G.eXeXeXeXrXrXI.E v z.yXtXA.R ; % u                                   ",
"                                      g i , ; f.U.sXyXJ.H.tXsXsXsXsXsXsXtXwXwXsXtXwXA.c % p g Z S                               ",
"                                  A A A A h % E A.U.tXgXfXfXfXfXfXfXfXfXfXfXfXsXU.A.R : e -.-.;.[ V                             ",
"                                  { ,.2.2.{ C 3 T A.eXrXfXfXfXfXfXfXfXfXfXfXtXP.A.E X = [ 4.5.q.3.;.A                           ",
"                                [ 3.p.e.c.v.2.t - W x.G.eXiXdXdXdXdXdXdXiXU.x.n 4 1 , i -.4.4.e.c.p.6.                          ",
"                              [ 3.p.c.b.5X6Xe.] = X O 4 l.A.wXI.I.I.wXP.x.g.x . . @ 8 V -.n.7.n.b.3Xa.                          ",
"                              ;.a.c.b.5X7X6Xe.{ p % @ # 4 x n n s n n 3 X o % 3 > , i V 2.n.b.b.b.5Xa.S                         ",
"                              A 5.b.5X7X6Xc.2.' V y i i % O . . . . . O = t h p , a V V ;.c.oX7X5Xw.A                           ",
"                              p ;.v.5X5Xc.-.Z g p 8 i Z ' g 9 % @ @ > p [ { -.[ V a a a C -.n.b.w.A 9 a                         ",
"                                Z { ,.-.A y 3 y y > i A >.3.-.D a C C >.q.4.4.4.[ p , > a V p a D V a 3                         ",
"                                a y , , & O o = > i Z -.w.e.w.{ _ _ =.q.c.c.e.4.2.[ p 8 3 4 3 < 1 3 4 3                         ",
"                                > > 3 > & X X + 8 S >.e.v.b.n.n.V.F.F.K.oXb.v.c.q.{ p > # - < 2 z x 2 4                         ",
"                                X # < < < : < + * -.e.b.5X6X7XY.R.R.R.J.7X6Xb.c.5.{ p @ . X < x v c x 3                         ",
"                                . - 2 x x x 2 + % } { a.K.Y.Y.V.j.j.M.D.E.F.V.A A A V @ . X : x F c z >                         ",
"                                  # 2 x c c 5 # @ D S P m.L.D.U 5 H H M.L.N.! D L K p @ X = 1 4 x I S 9 8                       ",
"                                  # 2 c c c c - # Y U U J L [ [ [ [ A A C a G U Y H 3 o * u 8 * g 2.>.Z i                       ",
"                                  # 2 v v v v - @ G Y H i r o.w.w.n.n.4.} e p H n 4 O O * u @ , Z 4.4.{ p                       ",
"                                  a n J I J 4 : 1 = & * i A ,.e.c.c.e.4.[ g % o o 5 x # * u o 8 S 1.1.<.k                       ",
"                                  [ 3.p.p.7.s c Y 1 . o > 9 Z >.e.c.4.} h 9 & X X G Y 1 = u & 8 K T B m :                       ",
"                                  ;.q.p.c.e.A 5 F F c J k 8 9 C A } C C y 3 H Y Y F 1 > & & y 9 u B R B                         ",
"                                  S 6.,.>.-.Z t 3 Y U U Q Q Q M.M.V.m.Q ! Q U Y Y K t 9 * & u y : b m m                         ",
"                                  b B 1.T N k ' >.;.s J C.N.N.L.L.L.L.D.N.N.Q D Z 2.>.A V , u                                   ",
"                                  l d.l.H.x.n O.e.,.;.Y U ! U g.j.j.j.! U ! U I -.q.c.2.A i =                                   ",
"                                  l d.wXrXI.L } p.e.8.h.5 $ 6 ~ ^ r 6 @ % t ! k.7.c.c.e.5.[ p                                   ",
"                                  l d.A.U.A.K } p.w.V.Z.5 $ ^ ..+.+.^ e r q k.S.8.e.c.c.e.2.A                                   ",
"                                    m E g.d.4 O.5.1.D.L.L 6 ^ @.#.@.@.@./ ~ V.L.h.2.w.v.p.2.A                                   ",
"                                    . X & 8 i ' <.h.D.Z.L q r  .......@.+._ V.D.N.! o.e.w.;.V                                   ",
"                                      = 7 h } ;.8.N.Q r r r r w ^ ( ( ..$.#./ K B.k.<.-.` g s                                   ",
"                                      J D i r 8.N.8.S q t h t 6 r ..@.@.#.#._ e P B.B.K 6 a Y J                                 ",
"                                      U J J Q M.8.:.~ f w f 7 O ( #.#.#.@. .( q r P h.h.U J J                                   ",
"                                          j.N.g.u ) ) f f ~ d o ~ #.#.#...( r r e 6 H C.m.Y                                     ",
"                                          5 5 < $ f ) :.:.9.) & 6 ) 9.0.9.X.) d % O & 5 5                                       ",
"                                          . . . X & ) :.:.:.) d 7 ) y./.).).y.~ $ . . . .                                       ",
"                                        . . . . . o 7 ) ) ~ d d ) :./.#X9X9X).) $ . . . . .                                     ",
"                                        . . . . O : ) :.:.( d d ( ) 0././.^.0.( $ . . . . . .                                   ",
"                                        . . . . o d ) X.) ) d d f X.).9XhX#X0.& . . . . . . .                                   ",
"                                          . . . $ 7 d d d d w w ) y.9XCXCXhX(.7 . . . . . .                                     ",
"                                            . . O $ $ o $ o $ 7 0.(././.y.:.y.y.7 . . .                                         ",
"                                                . . . . . O . 7 y.(.(.).).4X#X/.d .                                             ",
"                                                                    9XhXnXMX9X                                                  ",
"                                                                                                                                "
};
