/* XPM */
static char *right_move_011676416043[] = {
/* columns rows colors chars-per-pixel */
"64 64 247 2 ",
"   c None",
".  c #020202",
"X  c #0B0B0C",
"o  c #06090A",
"O  c #130C09",
"+  c #0A120E",
"@  c #18130C",
"#  c #0B0C11",
"$  c #000C16",
"%  c #0D1312",
"&  c #0B1919",
"*  c #131414",
"=  c #151919",
"-  c #1A1C1B",
";  c #141718",
":  c #291D0A",
">  c #261C14",
",  c #210F0B",
"<  c #0B251D",
"1  c #17241D",
"2  c #2B220B",
"3  c #38260A",
"4  c #282517",
"5  c #352A16",
"6  c #131A24",
"7  c #151922",
"8  c #070F2E",
"9  c #092828",
"0  c #1D2421",
"q  c #1C2B22",
"w  c #172929",
"e  c #1C322C",
"r  c #18362C",
"t  c #072835",
"y  c #1C2332",
"u  c #182A36",
"i  c #0D3533",
"p  c #063537",
"a  c #1D3232",
"s  c #13393C",
"d  c #163737",
"f  c #0C302C",
"g  c #222524",
"h  c #252A27",
"j  c #24342C",
"k  c #23372A",
"l  c #363826",
"z  c #212937",
"x  c #222B3A",
"c  c #232336",
"v  c #243E32",
"b  c #273634",
"n  c #382F2C",
"m  c #472D0A",
"M  c #4D350D",
"N  c #463918",
"B  c #593811",
"V  c #4D2F10",
"C  c #483826",
"Z  c #4C362E",
"A  c #683927",
"S  c #14443B",
"D  c #254333",
"F  c #2A4535",
"G  c #2C4B3B",
"H  c #294738",
"J  c #374936",
"K  c #31452F",
"L  c #53471A",
"P  c #6A5619",
"I  c #715219",
"U  c #79641B",
"Y  c #464529",
"T  c #5C5529",
"R  c #484934",
"E  c #534E32",
"W  c #675926",
"Q  c #685832",
"!  c #734A30",
"~  c #726531",
"^  c #586238",
"/  c #111648",
"(  c #053A4A",
")  c #153D42",
"_  c #1A3D48",
"`  c #112E49",
"'  c #2A3647",
"]  c #343A47",
"[  c #313C53",
"{  c #23374E",
"}  c #1B434C",
"|  c #174346",
" . c #084456",
".. c #1C4A55",
"X. c #19575B",
"o. c #0F4E4C",
"O. c #2C5349",
"+. c #3B5B4C",
"@. c #365447",
"#. c #234C5B",
"$. c #2B4B5A",
"%. c #374458",
"&. c #375954",
"*. c #2A4B4F",
"=. c #3E6256",
"-. c #396558",
";. c #3F614C",
":. c #195868",
">. c #064E68",
",. c #264F61",
"<. c #255263",
"1. c #245A6B",
"2. c #295A6C",
"3. c #28566A",
"4. c #2A5E71",
"5. c #3A4D66",
"6. c #2D6C7C",
"7. c #2B6575",
"8. c #326C7C",
"9. c #366877",
"0. c #2C6C74",
"q. c #106668",
"w. c #425D4A",
"e. c #495656",
"r. c #6C5243",
"t. c #466859",
"y. c #536C56",
"u. c #736F4B",
"i. c #46536A",
"p. c #4C5777",
"a. c #4B556A",
"s. c #476F62",
"d. c #4E7565",
"f. c #567866",
"g. c #586C7A",
"h. c #767472",
"j. c #836817",
"k. c #8A562F",
"l. c #876F23",
"z. c #917331",
"x. c #A36638",
"c. c #927150",
"v. c #AE754B",
"b. c #997E63",
"n. c #C27C42",
"m. c #78865D",
"M. c #5B816E",
"N. c #63846C",
"B. c #668A74",
"V. c #6E947B",
"C. c #788E63",
"Z. c #A98A1C",
"A. c #BCA319",
"S. c #9E882C",
"D. c #AD9527",
"F. c #A88B36",
"G. c #B59837",
"H. c #AE962C",
"J. c #BEA62D",
"K. c #C3AC3A",
"L. c #CDB330",
"P. c #E0C73D",
"I. c #988F47",
"U. c #AD9A4C",
"Y. c #8D986B",
"T. c #A58667",
"R. c #9EA163",
"E. c #C6824C",
"W. c #CE8C55",
"Q. c #D19A6B",
"!. c #DAA479",
"~. c #E8A975",
"^. c #C7B751",
"/. c #DEC948",
"(. c #0C7586",
"). c #2D7483",
"_. c #2E7A88",
"`. c #317383",
"'. c #337B8A",
"]. c #377A88",
"[. c #465E87",
"{. c #5C6787",
"}. c #447E88",
"|. c #6D7693",
" X c #288493",
".X c #348693",
"XX c #358A96",
"oX c #398A96",
"OX c #398C98",
"+X c #3E939E",
"@X c #34909D",
"#X c #33818F",
"$X c #3798A3",
"%X c #2694A4",
"&X c #299BA3",
"*X c #4A8C99",
"=X c #45959E",
"-X c #46888F",
";X c #709C8B",
":X c #7CA88C",
">X c #4A9BA5",
",X c #479BA6",
"<X c #519EA9",
"1X c #7B86A3",
"2X c #4CA4AA",
"3X c #53A5AD",
"4X c #5AACB5",
"5X c #54AAB3",
"6X c #5EB2BB",
"7X c #58BABA",
"8X c #48B0B3",
"9X c #62B9BD",
"0X c #71AFB0",
"qX c #71C3BB",
"wX c #56BEC0",
"eX c #62BBC0",
"rX c #58C6C4",
"tX c #63C2C3",
"yX c #64CBC5",
"uX c #66D4CB",
"iX c #7DCBC4",
"pX c #86AD8C",
"aX c #AFA79C",
"sX c #8994B4",
"dX c #8991AA",
"fX c #96B1B7",
"gX c #A2A09A",
"hX c #DEAB81",
"jX c #EEB688",
"kX c #F1BB8C",
"lX c #F2BD90",
"zX c #AEC8B9",
"xX c #F3C79A",
"cX c #D0DABC",
"vX c #F7CDA1",
"bX c #FBDAAD",
"nX c #F8D3A7",
"mX c #FCDDB0",
"MX c #AAB4D1",
"NX c #97A3C2",
"BX c #83D6C9",
"VX c #82DFD1",
"CX c #B3D5C3",
"ZX c #A0D4C8",
"AX c #A8DBD5",
"SX c #D4D2C3",
"DX c #D2E0DC",
/* pixels */
"                                              e w w } { $.0.8.6.0.8.0.} { ' r < w                                               ",
"                                        b   ' d s ..9.8.8.oX=X=X+X,X=X].8.0...S | b                                             ",
"                                      j a } $.,.7..X3X4X4X6X7XuXuXuXuXrX7X3X#X_.6.1.[ $.d w r                                   ",
"                                    j a _ 1.].*X<X5X5X3X3X3X4X7X7X7X7X7XeXeX7X7X7X2X>X*X-X8.7.$.b -                             ",
"                                  b a } 1.'.,X4X9X3X+XXXXXXXXXXXXXXX.X.X>X7XuXuXuXuXuX6X4X>X_.3.` *                             ",
"                                  a } 3._.<X4X>X+X=XOXXXXXXXXXXXXXXX.X.XoX>X9XyXeXtX6X=X`.2.| 9 6                               ",
"                                h i ..'.>XeXrX$X#X XXXOXXXOXOXOXXXXX.X.X.XoX4XtXrX2X.X7.} 9 o %                                 ",
"                              b a } 6.,X9XuXuX$X_.@XXXXXXXXXXXXXXX+X+X,XXX$X9XBXBX3X_.1._ 9 % 4                                 ",
"                              a ) ,.*X6XeXyXuX&X XXXOXXX@X XXXXXXX<X6X6X6X7X6XCXcXVX8X_.3.) w z                                 ",
"                              e s ,.*XeX3XwXiXzXfX2X@X,X,X X$X>X'.oX5XtXZXzX0XfXCXuXrX>X].3...a b                               ",
"                              j s ,.*X9X=X%XfXcXzX8X@X2X9X0X0X4X`.7.$XyXCXcX<X%X7XuXuX9X+X).,.) e                               ",
"                              a ) ,.*X5X+X'.8XiXqXOX X8XBXcXzX4X6.7.$XwXBXBX>X_.2XuXuX4X,X`.<.) e                               ",
"                              a s <.].+XOX X$XrX8X'.).8XVXCXfX$X:.:.].<XwXwXoX).$XtX7X<XOX6.} b b                               ",
"                              a ) <.]..X'._.+X5X2X_.1.2XuXwX2X#X} ' :.'.2X3X8.6.+X4X2XXX.X1.i h                                 ",
"                              a ) <.`.'.7.8.OX+X+X'.7.*X7X,X X}.! Z _ :.'..X4.8.OX+X+X.X6.#.a                                   ",
"                              e ) <.4.4.3.`.OXXXOX#X0.*X6X,X(.g.c.k.Z { 7.).4.`.XXXX#X6.X.d j                                   ",
"                              0 f } <.3.3.`.OXOXXX`.2.-X4X$X(.s.v.x.A h ( <.2.'.XXXX8.#.s j                                     ",
"                              * # f ..3.3.8.XXOX'.3.} 0.,XOX).5.C 3 O X 9 ( 3.'.XX8.#.d b                                       ",
"                              * o f ..3.3.3.6..X`.#.s X.).XX6.#.e.x o . > n ( :.6.X.p <                                         ",
"                              g = 9 s #.3.3.7..X].<.) | 2.'.q.*.gXh.@ O A k.E @.( _ = X                                         ",
"                                0 o & | 3.<.2.'.8.,.) i } 2.( a.zXgXV V x.n.v.r.' Z V O                                         ",
"                                  + & ) 3.$...2.<.s s f p ( Q b.SXgXV m v.~.~.Q.b.x.A O                                         ",
"                                  - & f } | s <...i i i p t x.!.SXaXk.k.Q.kXlXlXjXQ.k.,                                         ",
"                                    = % 9 f | ,...s i d p t b.jXbXnXxXvXvXnXnXnXvXjXc.;                                         ",
"                                      - % 9 s ) s p i Z n 8 T.lXnXmXmXmXmXbXbXmXbXxXv.O                                         ",
"                                        - & 9 f p p p Z A E T.jXnXbXbXbXbXbXbXbXvXhXc.*                                         ",
"                                          = ; f s | | l k.v.W.Q.hXxXbXbXbXbXbXvX!.r.n h                                         ",
"                                        4 k v D @.=.&.+.Z ! x.v.Q.jXkXxXvXxXlXQ.c.> ;                                           ",
"                                    h g k H w.t.d.f.f.t.| < 5 ! v.n.E.Q.!.Q.E.I + = h h                                         ",
"                                    h h H +.s.M.B.V.V.M.=.D k K Z V 5 C Z C V : = r k h                                         ",
"                                  g k H +.=.s.N.V.pXpXV.t.=.@.S f + . . . . $ % 4 H D k                                         ",
"                                  0 k G t.t.d.N.B.N.N.y.+.t.+.D F S q % o = H b j v F F                                         ",
"                                  0 k G t.t.d.f.w.D D D G +.+.+.t.=.+.D r G ;.t.+.j k F                                         ",
"                                  4 j G =.y.t.w.G r D D K D w.f.V.V.B.s.o.X.M.B.d.j q F                                         ",
"                                  g q v @.+.@.v q q q k 1 = y.:XpX:XpXV.C.C.pXY.t.b 1 D                                         ",
"                                  0 1 q H H D 1 + o o % = = f.:XpX;XY./.P.P./.R.H k h h                                         ",
"                                  * * 1 h 1 + . : 2 2 2 1 r -.N.U.U.U.H.D.D.A.L.S.~ l h                                         ",
"                                  X % 0 1 @ O O 2 2 3 2 l Y E u.S.Z.z.R f k L D.L.j.C                                           ",
"                                  * % 1 1 2 3 3 3 3 3 4 l P P P Y G ;.=.&.O.H Y L 2 4                                           ",
"                                  g % @ 4 3 3 M B M 3 4 l 5 N Y +.-.f.M.f.d.-.p $ . =                                           ",
"                                    g > 2 m M B B B 3 : 2 e f v O.t.f.d.-.d.d.^ D # & b                                         ",
"                                      h 5 m B B B B m 3 5 v D v F +.t.d.t.R Q ~ P l h v n                                       ",
"                                    h h D 5 m B L K ;.J K l 1 4 T W ~ F.K.K.Z.j.I l.u.O.H b                                     ",
"                                  h h k D k 2 V J ;.d.;.i q L j.z.Z.Z.Z.G.^.U.Q N S.I.+.H b                                     ",
"                                  1 r F F 1 + D O.-.M.y.R g ~ F.H.K.K.E ` :.:.o.l ~ l.Q J D                                     ",
"                                h < r G F 1 + D S o.q.m.x.N Y Q ~ c.m.<.>.>.( ( r 5 j.z.y.S                                     ",
"                              g 4 L J K F r < < Q c.T.Q.Q.E `  . .>.>... .......) & l.U.u.@.                                    ",
"                              * 2 P T F F G r + k.W.jXjX!.e.( :.1.1.<.| i _ ,.3. .p z.G.l.R                                     ",
"                              * : P T G &.-.+.v 4 ! !.~.W.R  .1.2...) i } <.3.$.` u ~ S.j.T                                     ",
"                              ; : P T G =.d.d.t.f l b.v.k.n  .4.<.) 9 f _ ,.5.5.i.x Y W I L                                     ",
"                              * : P W J t.f.N.B.w.Y P Y s _ ,...s & # i u { i.{.{.] q K 4 4                                     ",
"                              * : P U ^ t.f.B.B.y.U A.Y.[.[.5.p < . o y y ' 5.{.p.] 6 9 ; g                                     ",
"                                4 N j.z.w.X.s.y.F.J.G.gXsXMXsXi.w O # y z ' ' [ [ y ; -                                         ",
"                                - @ j.G.^ X.y.z.A.L.E {.MXDXMX{.] ; X y x z z u 6 # ;                                           ",
"                              - o . : W S.J.^.L.H.E c p.sXMXdX] h - # y x z z 6 X o -                                           ",
"                            g X . . . 2 l.G.K.K.u.8 y 5.{.|.a.* - * # y z z u z c 7 z ]                                         ",
"                            X . . . . . * 7 c x i.{.|.g.[ y % . . . # y x z z [ %.' [ [                                         ",
"                            . . . . . . 8 8 8 / {.sXDXNXp.6 . . . . # y z z z ' ' x ' '                                         ",
"                            . . . . . o y ' [ [.dXMXNX1Xp.y . . . . o & 6 6 6 & 6 6 6 7                                         ",
"                            X . . . . o 6 [ p.|.sXdXi.[ i.' ; . . . . . . . . o . o . O                                         ",
"                              * . . . . o 7 [ |.{.a.{.1XdXp.y o . . . . . X -         0                                         ",
"                              > X X X . . . x p.[ 7 p.|.|.i.y + X O X X # *                                                     ",
"                                    * X . X * * # O # 7 - * 7                                                                   ",
"                                                                                                                                "
};
