/* XPM */
static char *result[] = {
/* columns rows colors chars-per-pixel */
"64 64 114 2 ",
"   c #4C2611",
".  c #4E2A12",
"X  c #4F2D18",
"o  c #512E14",
"O  c #512E18",
"+  c #533214",
"@  c #573E13",
"#  c #51321D",
"$  c #563C1A",
"%  c #583B1C",
"&  c #543622",
"*  c #5E3720",
"=  c #563926",
"-  c #5A3A25",
";  c #563C2B",
":  c #5A3D2B",
">  c #594015",
",  c #5D4916",
"<  c #5C451E",
"1  c #5D481E",
"2  c #604C17",
"3  c #635617",
"4  c #64551A",
"5  c #656C17",
"6  c #6B6519",
"7  c #6D691C",
"8  c #706E1F",
"9  c #72751B",
"0  c #5E4125",
"q  c #57402F",
"w  c #5B402D",
"e  c #564130",
"r  c #5B4433",
"t  c #5F4837",
"y  c #5C4638",
"u  c #5D4C3C",
"i  c #614427",
"p  c #614E27",
"a  c #62452A",
"s  c #644A2E",
"d  c #665723",
"f  c #685723",
"g  c #695A27",
"h  c #665228",
"j  c #6B5C29",
"k  c #624632",
"l  c #634A36",
"z  c #644C3B",
"x  c #694E3C",
"c  c #685334",
"v  c #65513F",
"b  c #69523E",
"n  c #6C6123",
"m  c #6F6B20",
"M  c #756F22",
"N  c #787B21",
"B  c #797528",
"V  c #5D4E41",
"C  c #5E5143",
"Z  c #5E5348",
"A  c #634F40",
"S  c #635444",
"D  c #6A5543",
"F  c #665844",
"G  c #6D5846",
"H  c #635649",
"J  c #695749",
"K  c #655A4C",
"L  c #6B5C4C",
"P  c #715A46",
"I  c #725E4D",
"U  c #655D53",
"Y  c #6B5E51",
"T  c #6E614F",
"R  c #75604D",
"E  c #676056",
"W  c #6C6255",
"Q  c #6C655A",
"!  c #6F685C",
"~  c #736455",
"^  c #756857",
"/  c #7A6957",
"(  c #726759",
")  c #736A5C",
"_  c #7A6C5D",
"`  c #6F6A60",
"'  c #746E62",
"]  c #7A6F62",
"[  c #767165",
"{  c #7A7365",
"}  c #777468",
"|  c #7A7669",
" . c #7D796D",
".. c #7F7C71",
"X. c #817566",
"o. c #81776A",
"O. c #827A6D",
"+. c #887C6E",
"@. c #827E72",
"#. c #897E70",
"$. c #7F8226",
"%. c #A2814F",
"&. c #858275",
"*. c #888376",
"=. c #878479",
"-. c #89867A",
";. c #8C897C",
":. c #908C7F",
">. c #8E8C81",
",. c #918E83",
"<. c #939186",
"1. c #959388",
"2. c #98958B",
"3. c #B3B0A9",
/* pixels */
"9 9 9 9 9 9 9 9 9 9 9 9 9 9 9 9 9 9 9 9 9 9 9 9 m G D G D G P G P P P b b c n N 9 9 9 9 9 9 9 9 9 9 9 9 9 9 9 9 9 9 9 9 9 9 9 9 ",
"9 9 9 9 9 9 9 9 9 9 9 9 9 9 9 9 9 9 9 9 9 9 9 9 g { O.&.@.*.*.-.-.*.-.-.-.O.D m 9 9 9 9 9 9 9 9 9 9 9 9 9 9 9 9 9 9 9 9 9 9 9 9 ",
"9 9 9 9 9 9 9 9 9 9 9 9 9 9 9 9 9 9 9 9 9 9 9 9 g X.&.*.=.-.&. . . .*.*.-.@.) j 9 9 9 9 9 9 9 9 9 9 9 9 9 9 9 9 9 9 9 9 9 9 9 9 ",
"9 9 9 9 9 9 9 9 9 9 9 9 9 9 9 9 9 9 9 9 9 9 9 9 g | =.*.*.*.+.{ ] W -.-.*.-._ j 9 9 9 9 9 9 9 9 9 9 9 9 9 9 9 9 9 9 9 9 9 9 9 9 ",
"9 9 9 9 9 9 9 9 9 9 9 9 9 9 9 9 9 9 9 9 9 - i i s X.=.-.=.-.&._ ] ~ -.-.-.*.o.% + 0 0 9 9 9 9 9 9 9 9 9 9 9 9 9 9 9 9 9 9 9 9 9 ",
"9 9 9 9 9 9 9 9 9 9 9 9 9 9 9 9 9 9 9 s l ~ ^ / I X.-.*.-.-.o.| &.*.-.;.-.;.o.z z ( ( 0 i 9 9 9 9 9 9 9 9 9 9 9 9 9 9 9 9 9 9 9 ",
"9 9 9 9 9 9 9 9 9 9 9 9 9 9 9 9 9 s s _ _ O.@.@._ X.-.-.*.-. .O.^ _ ;.-.-.*.o.I ~ O. .( / i a 9 9 9 9 9 9 9 9 9 9 9 9 9 9 9 9 9 ",
"9 9 9 9 9 9 9 9 9 9 9 9 9 9 9 9 c &.=.*.&.- - 2 i X.-.-.;.;.;.;.1.<.*.;.;.;.o.i : i : &.&.*.*.i 9 9 9 9 9 9 9 9 9 9 9 9 9 9 9 9 ",
"9 9 9 9 9 9 9 9 9 9 9 9 9 9 c l _ *.&._ - -.*.*.X._ &.;.;.*.-.-.;.;.*.;.;.-.o.] -.=.-.- _ &.&.i 9 9 9 9 9 9 9 9 9 9 9 9 9 9 9 9 ",
"9 9 9 9 9 9 9 9 9 9 $.m g I | -. ._ G T &.&.&.*._ X.*.*.;.;.-.;.;.;.-.;.-.;.o.X.-.*.=.-.^ R { I b x c f n 9 9 9 9 9 9 9 9 9 9 9 ",
"9 9 9 N $.$.9 9 9 $.9 c I -.-.O.{ b ^ | &.&.&.&.&./ ;.;.*.;.;.;.;.;.;.;.-.;.] | =.&.=.=.=. .L { _ | I D c 9 9 9 9 9 9 9 9 9 9 9 ",
"9 9 9 9 $.N N 9 $.B d ^ -.=.&.~ c &.| | &.&.&.&.*.R :.*.;.;.:.;.:.:.:.;.-.,.G @.&.&.*.-.*.;.;.F G  .| @.~ 4 7 9 9 9 9 9 9 9 9 9 ",
"9 9 9 9 5 9 N 9 3.G ] >.=.| D X.&.&.&.&.*.*.*.*.&.r 1.<.=.[  .| | | | >.1.2.D @.@.@.&.=.=.=.=.-.{ k ^ @.@.) l 9 9 9 9 9 9 9 9 9 ",
"9 9 9 9 9 9 N 3.+.A >.-.-.L ) #.&.&.&.&.*.*.*.o.j 0 { { ) T ! ! ! ! !  .....G ,.>.@.&.=.=.=...=.*.^ x &.=.@.l 9 9 9 9 9 9 9 9 9 ",
"9 9 9 9 9 9 6 i c X.Y >.^ ] @.#.&.&.*.=.*.-.;.Q u & T E T T T T T T T ) ' ' J @.@.>.-.@.&. . .&.&.=.] L @.~ ) % 2 9 9 9 9 9 9 9 ",
"9 9 9 9 9 9 4 X.:.+.,.k ) =.@.=.&.&.=.-.;. .U U U w K K u .   + & = - v W ' A } } } ;.>...&...@.&.&.@.~ : ,.-.>.] 2 9 9 9 9 9 9 ",
"9 9 9 9 9 9 I *.@.@.@.A @.@.@.=.=.-.-.:.( H U U U e     > v b T G G L l ; = z } } | ' ..2...@.....@.@.&.k @.=.=.=.x 9 9 9 9 9 9 ",
"9 9 9 9 9 s -.@.@.O.Y -.@.-.=.-.=.-.@.Z Z V y & e j T T Q ! ) ' _ ' ' } Y H v z J Y ` ' ` =.=.@.@.........x  .=.@.-.% 9 9 9 9 9 ",
"9 9 9 9 7 b &.@.@.Y O.@.-.=.-.=.-.-.U Z u ; & U F ! ! ) ) ) ) ) ' [ { [ } L S K } A K Y ' [ =.@.@.....@.#.' Y #.@.-.l 6 9 9 9 9 ",
"9 9 9 9 4 _  .O.O.A >.>.-.>.-.-.-.) V V ; r L ( ^ ) ^ ) ) ) ' ' [ [ [ { [ Q E [ } ..Y S Q `  .>.=.@.....@.@.l @.@.@.^ 2 9 9 9 9 ",
"9 9 9 9 k | O...Y o.-.@.-.>.,.,.} u q q K Q ( ( ) ' ! ) ) ' [ [ [ { } { Q } | [ ' [ { ' S S Q ..>.=.@.@.=.=.] ~ @.@.X.a 9 9 9 9 ",
"9 h s k k D D D k J Y ] >.,.<.@.Z e 0 v Q ( ( ) ! ' ) [ ' ' [ [ } [ } W [ } [ [ ' ' ' { ) L U Y =.=.=.=.) Y Y l G G P k s s s j ",
"n ^ ] ] _ ) ) ^ ( ( ` ( ~ ` ( ..u = u Q ( ( ( ' } } }  .} }  . . . .[ H .. . . . .[ [ [ | [ x K &.Y Y Y ) { { ] _ _ _ _ _ / X.P ",
"I >.>.@.#.@.@.....| O...@.#.S V # Z Q ) ) ( ) ) C u u u u F C F H H H F H H H H H  .[ [ } }  .- K ,.>.;.-.#.@.@.@.*.&.*.*.*.;.I ",
"I =.@.&.@.@.@.@.@.@.@.@...=.<.y r T ! ! ) ) ) F F K F K j E T K K L T E K T T E Y W [ ' [ } | Y y >.,.@.@.@.@.@.*.*.*.&.*.@.;.I ",
"I -.&.@.@.@.@.@.@.@...=.@.@.@.: u ` ' Q ` ` ' u K ! ' [ ^ [ } ' } } [ [ [ { | ( W Q [ [ [ } } ~ y >.#.@.#.@.-.-.@.&.*.*.&.*.:.I ",
"I -.&.@.@.| O.@...@.@.=.@.=.' & v ! ' W Q ' [ Z U [ ' ' [ [ [ [ [ [ [ [ [ | | [ Q L ( ' } } | | k ' -.@.@.=.@.#.*.O.o.@.*.*.;.I ",
"I =.=.=.} ] ] @.>...=...@.=.Q : K ' ' } ! Q [ K T ' [ [ [ [ [ { [ { } { { [ [ [ ( U ( } } } } } A ( -.@.@.=.-.-.*./ ] O.o.*.:.I ",
"~ -.=.@.) ] | | ..=...@.>.>.z S ! ' ' ` [ ! K K T } [ [ [ [ [ } } [ { | [ { { [ ( Y ` { } ' ' } } z -.#.@.-.-.#.-./ @._ / ;.:.I ",
"I -.=.=.~ @.{ { >.@.>.@.=.>.z S ! [ ' ' [ [ F F E } [ } [ { { } } { | { | } } [ ( Y ` ] ] } } ' } z =.#.@.-.-.-.-.~ *.O.^ ;.,.I ",
"R ;.=.-.] Y ( @.@.=.@.=.=.>.z A ! [ [ [ [  .W T W [ } }  . .{ } } | | | { | { [ Q Q [ [ } [ ' } } l >.@.=.-.#.-.-.R I o.+.;.:.I ",
"R >.-.-.>.>.>.>.>.=.>.@.=.>.z V ! [ [ [ [ } ` T ! } }  . . . .[ | | | | { | [ | ` ! } [ [ [ } ' } z >.=.=.-.-.-.-.>.,.:.;.;.:.I ",
"I ,.-.-.-.-.-.-.-.-.-.-.-.;.l S ! [ [ } [ }  .E ! } }  . . .| | {  .}  .X.{ { [ ! ) | } } [ } [ } z ;.*.#.>.@.@.>.>.;.;.;.;.,.I ",
"~ ,.>.-.-.-.>.-.-.-.-.-.=.;.z S ! [ }  .} | } E ! }  .}  .|  .|  . . . .}  . . .) ' | } [ [ } ) ! u ;.*.>.@.>.>.;.-.:.;.-.;.,.I ",
"I ,.>.-.-.-.=.-.-.-.-.-. .] k k ! } }  . . .} ^ ) }  . .}  . .|  . . . . . . . .) ! | } ' ' ' ` L z {  .>.-.>.>.>.-.;.*.o.-.,.I ",
"I 1.,.,.>.,.>.>.,.] | | ~ D S = `  . . . . .} W )  .} }  . .| | }  . . . . . . .[ ) | } } ' ! ' : Y Y ( { ] o.o.#.>.;.@.#.;.,.I ",
"l @.@...} } | | ) +.o.O.=.&.=.F ^  . . ...}  .^ ) }  . . .|  . . . . . . . . . .) ) } | } } ' Y L @.@.O.| ( J L ` [ } } | { | l ",
": ] ` Y E W Q E A ] >.=.=.@... .T  ... . .} } ! '  . .} | |  . . . . .}  . . .&.[ '  .} | | } J { @...O.@.#.J ` Y U U Y U Q ` : ",
": ` U U G L D A l Y -.@.&.@...&. .T  . ... .} ! !  . .......@.@.&.&.&.&.&.&. .{ ) ) | | | | Y ~ O... ...@.#.Y J J J J S Y U Q : ",
": Q z ` @.@.| ' ] : @.=.&.=.&.=.-.| ) .. . .} W ! W T T T T T T T T K K F U j ^ ! ` | | } ~ G ' ..@.O.....@.; } @.@.-.-.] V ` : ",
": Q u _ @.@. .{ ] : @.=.&.=.&.&.*.;.T  . ... .&.| ! ( ! ( ! ( ) ) ) ) ) ( ) ( ( ( ..| | | A ( >.=.@.@.@...@.= { @.@.>.@.] V Y : ",
"4 O o y ;..... .| W t @.=.=.=.&.=.-.:.T ^  . .|  .....@.@.@.@.&..... .[ ( | @.....| | T J } @.@.=.=.&.=...: L ..@.=.=.>.V o O 4 ",
"9 9 4 e @.&.@. . .) l W -.=.=.=.=.=.;.=.^ ^ |  . . .|  . . . .|  . . .&.[ }  . . .[ ( W @.@.>.@.=.=.=.@.Y : W @.@.@.=.@.y 4 9 9 ",
"9 9 9 + Q @.@.@.@. .L S | >.>.&.=.-.=.=.&.T T ) '  .|  .|  . . . . . . ... . .) Q T G -.>.@.@.@.=.=.=.' y S { @.@.>.@.U + 9 9 9 ",
"9 9 9 4 r @.@.@.O. .( y Q } ) :.-.;.-.-.&.&.{ ^ R c  . .| | | |  .} | | | | ) R /  .-.-.-.=.=.>.=.-.{ V = A ] ..=.=. .; 4 9 9 9 ",
"9 9 9 9 ; ` =.@.&.W G r T ! T | ;.-.-.*.&.&.&.&.{ R G G R P R R E B T G T  .G } &.-.=.>.@.>.>.@.>.@.H V z D J &.=.-.U & 9 9 9 9 ",
"9 9 9 9 - S  .] ~ O. .u w ! ! { ;.;.*.-.&.&.&.&.&.| b X.] X.X.X.' ] ] ] ^ b ] O.&.-.-.-.>.@.>.>...Y Z y I ] ) I ' | r $ 9 9 9 9 ",
"9 9 9 9 9 o U @.<.&.&.:.:.r ' ' -.:.;.*.*.&.&.&.*./ :.;.*.:.;.*.*.&.*.&.*.;.T *.*.-.-.-.-.>.>.@.H S ; ) | | | @.{ A + 9 9 9 9 9 ",
"9 9 9 9 9 + U W &.=.@.=...^ * ' ) | 1.-.*.*.*.*.*./ -.*.:.*.*.*.*.&.&.&.&.;.L *.&.=.-.-.;.1.' F Z & ~ @.@. .| ] y V + 9 9 9 9 9 ",
"9 9 9 9 9 9 # W ` =.=.=.@.@.-.A L ) Q -.&.;.;.*.{ O.*.*.*.*.*.*.*.*.&.&.&.*.o.] &.;.;.&.&.K H u V | ..O. .@.| V r O 9 9 9 9 9 9 ",
"9 9 9 9 9 9 4 A Q ' =.=.@.-.-.{ b D W Q Q &.*.;.X.O.*.-.*.;.&.*.*.@.*.*.&.&.O.X.;.*.&.K H C u z ^ | O. .@. .H u ; 4 9 9 9 9 9 9 ",
"9 9 9 9 9 9 9 1 u Q  .=.-.-.-.;.:.k D L ~ T J *.X.+.-.*.*.*.*.o.O.o.&.-.&.*.+._ &.G F K C v r  .| | @...| Q V ; < 9 9 9 9 9 9 9 ",
"9 9 9 9 9 9 9 9 4 z ` ' @.>.-.>.| O.{ D 0 r T J c o.;.-.-.:.+.+.;.o.-.;.-.*.&.l D G r = T {  .{ O.O.@.| S V ; 3 9 9 9 9 9 9 9 9 ",
"9 9 9 9 9 9 9 9 9 - ; Q } ..,.@.{ =.&.| ~ b = - i O.:.;.;.-.*.X./ o.*.;.;.*.+.% & - b T  .=.;.| | -.' U C & $ 9 9 9 9 9 9 9 9 9 ",
"9 9 9 9 9 9 9 9 9 M 2 A ` ` | ' &.@.&.@.@._ I I G +.:.:.:.;.+.X.+._ ;.;.-.-.O.v v T | ..&.=.=.=.-.( U Z ; , 6 9 N $.$.9 9 9 9 9 ",
"9 9 9 N 9 9 9 N N $.9 <   Q Q J ;.<.=.&.@. .| | ^ O.;.:.;.:.:.:.:.:.;.-.-.*.&.K T &.&.*.=.;.,...: U Z   < 9 9 N N $.9 9 9 9 9 9 ",
"9 9 9 9 $.$.9 N N 5 9 9 9   S J ` E =.1.1...| | ~ #.>.;.;.;.;.;.;.;.;.-.-.-.+.J T &...:.,. .C u e u   9 9 9 9 N N 5 9 9 9 9 9 9 ",
"9 9 9 9 $.N N 5 5 9 9 9 9 9 @ ; S W U U U ..@. .^ ] >.>.;.=.=.=.*.&.=.=.;.;.] D G &.O.F v S u e # @ 9 9 9 9 9 5 5 9 9 9 9 9 9 9 ",
"9 9 9 9 5 N N 9 9 9 9 9 9 9 9 4 o V U E U U U H y L ' ! ! ! Q Q Q Q U Q ' ' J ; r F F S C u e + 3 9 9 9 9 9 9 9 9 9 9 9 9 9 9 9 ",
"9 9 9 9 9 5 9 9 9 9 9 9 9 9 9 9 9 + r u u U H Z r J ` Q Q Q Q E W E W U U Q S - r F S e r 0 + 9 9 9 9 9 9 9 9 9 9 9 9 9 9 9 9 9 ",
"9 9 9 9 9 9 9 9 9 9 9 9 9 9 9 9 9 9 3 2 , = = & # L Q Q Q E E U E U E U U U S X # & & , , 3 9 9 9 9 9 9 9 9 9 9 9 9 9 9 9 9 9 9 ",
"9 9 9 9 9 9 9 9 9 9 9 9 9 9 9 9 9 9 9 9 9 , 2 , + J Q U Z U U U U E U U U U S + , , , 9 9 9 9 9 9 9 9 9 9 9 9 9 9 9 9 9 9 9 9 9 ",
"9 9 9 9 9 9 9 9 9 9 9 9 9 9 9 9 9 9 9 9 9 9 9 9 , S H H Z Z U U U U U U U Z J , 9 9 9 9 9 9 9 9 9 9 9 9 9 9 9 9 9 9 9 9 9 9 9 9 ",
"9 9 9 9 9 9 9 9 9 9 9 9 9 9 9 9 9 9 9 9 9 9 9 9 7 & # X # X # # # # # # # # & 6 9 9 9 9 9 9 9 9 9 9 9 9 9 9 9 9 9 9 9 9 9 9 9 9 "
};
