/* XPM */
static char *_6daea06649f41ccde551c8434222e48Rr3GLYlXxY2U4I8N[] = {
/* columns rows colors chars-per-pixel */
"64 63 166 2 ",
"   c None",
".  c #563E15",
"X  c #583D16",
"o  c #4F4D13",
"O  c #544515",
"+  c #594316",
"@  c #544C15",
"#  c #5A4C16",
"$  c #5D4618",
"%  c #5E4B18",
"&  c #4E5212",
"*  c #535513",
"=  c #5C5615",
"-  c #555914",
";  c #5B5C16",
":  c #5F5218",
">  c #5A5E18",
",  c #604A17",
"<  c #614D19",
"1  c #615B15",
"2  c #64521A",
"3  c #69561E",
"4  c #655C19",
"5  c #6A5C1C",
"6  c #5E6117",
"7  c #5D6118",
"8  c #626317",
"9  c #656917",
"0  c #636518",
"q  c #6B641B",
"w  c #666919",
"e  c #6B6C1A",
"r  c #70671C",
"t  c #736C1C",
"y  c #796F1D",
"u  c #6E711B",
"i  c #73741D",
"p  c #7A741E",
"a  c #77781F",
"s  c #78791F",
"d  c #6D5D20",
"f  c #6F6420",
"g  c #716322",
"h  c #756A24",
"j  c #786F25",
"k  c #767621",
"l  c #7A7524",
"z  c #7D7C24",
"x  c #7F7D24",
"c  c #7E7D25",
"v  c #7E7D26",
"b  c #7F7D26",
"n  c #7E7D27",
"m  c #7F7E26",
"M  c #7F7E27",
"N  c #7F7F27",
"B  c #7C7B22",
"V  c #7B7129",
"C  c #7B7229",
"Z  c #7C7329",
"A  c #7D7728",
"S  c #7E7728",
"D  c #7D742A",
"F  c #7E762B",
"G  c #7D7629",
"H  c #7D7B28",
"J  c #7D7A29",
"K  c #7E7C28",
"L  c #7F7D28",
"P  c #7F7D29",
"I  c #7D7B28",
"U  c #817724",
"Y  c #817C24",
"T  c #807E24",
"R  c #807F25",
"E  c #817F25",
"W  c #807E26",
"Q  c #817F26",
"!  c #807E27",
"~  c #817F27",
"^  c #827F27",
"/  c #807E24",
"(  c #827A28",
")  c #807A2A",
"_  c #807D28",
"`  c #817F28",
"'  c #807E29",
"]  c #817F29",
"[  c #827F28",
"{  c #827F29",
"}  c #837D2A",
"|  c #807E2A",
" . c #817F2A",
".. c #827E2A",
"X. c #847E29",
"o. c #857E2B",
"O. c #817B2C",
"+. c #827B2D",
"@. c #827C2D",
"#. c #837C2D",
"$. c #837F2C",
"%. c #837E2D",
"&. c #837E2E",
"*. c #837E2F",
"=. c #857F2D",
"-. c #847D2E",
";. c #847E2E",
":. c #827E2A",
">. c #818026",
",. c #828026",
"<. c #828028",
"1. c #838028",
"2. c #838029",
"3. c #82802A",
"4. c #83802A",
"5. c #82802B",
"6. c #83802B",
"7. c #84812B",
"8. c #85812B",
"9. c #84822A",
"0. c #84822B",
"q. c #84832B",
"w. c #85832B",
"e. c #84802C",
"r. c #84812D",
"t. c #84822C",
"y. c #85822C",
"u. c #86822C",
"i. c #86822D",
"p. c #86832D",
"a. c #85812E",
"s. c #84802F",
"d. c #85802F",
"f. c #85812F",
"g. c #85822E",
"h. c #86822F",
"j. c #87832F",
"k. c #87822F",
"l. c #86852C",
"z. c #87842F",
"x. c #86842F",
"c. c #85812C",
"v. c #88832F",
"b. c #88842F",
"n. c #89842F",
"m. c #88832F",
"M. c #858130",
"N. c #868130",
"B. c #868230",
"V. c #878330",
"C. c #878331",
"Z. c #878231",
"A. c #878430",
"S. c #878330",
"D. c #888330",
"F. c #888331",
"G. c #888430",
"H. c #888431",
"J. c #898431",
"K. c #898531",
"L. c #898531",
"P. c #8A8531",
"I. c #898532",
"U. c #8A8532",
"Y. c #898632",
"T. c #898431",
/* pixels */
"                                                                                                                                ",
"                                                                                                                                ",
"                                                                                                                                ",
"                                                                                                                                ",
"                                                                                                                                ",
"                                                                                                                                ",
"                                                                                                                                ",
"                                                                                                                                ",
"                                                            < < <                                                               ",
"                                                          d g g g d                                                             ",
"                                                        < d O.J.*.g 3                                                           ",
"                                                  d < d d h C.C.J.*.g                                                           ",
"                                                d D -.-.O.O.C.C.C.C.g 2   2 2 <                                                 ",
"                                      < 2 <     d F F.C.J...z y.y.C...g g Z F V d                                               ",
"                                    3 g j h f d Z ;.C.C.J.P a B z ^ ^ A D *.J.C.d                                               ",
"                                    3 A z.y.S j C.J.C.C.8.k a a B z z ^ J.J.J.;.d                                               ",
"                                    3 S y.y.y...P r.C.y.P a a s >.s B ..C.J.C.P q 2 d d d d d 2                                 ",
"                                    3 j ..y.5.k k z C.C...B z ^ s >.s ,.8.;.z e w 5 g O.J.C.*.h d                               ",
"                                      5 l X.z i e i ..n.z.z.C.y.,.>.B ,.^ B k w w t z y.C.C.C.C.g <                             ",
"                                2 < 5 t k z p t p i k X.n.J.J.J.9.>.8.y.y.y.P e 9 i B I y.y.y.z.h 2                             ",
"                              5 t q t a s p y U ,.E z s w.n.n.P.l.,.8.v.J.J...t 9 e u i z ^ z z C f 2 < < <                     ",
"                            < q k a k a p z ( X.P.n.E s >.l.n.l.n.E l ( J.X.l e w w u B 5...B z B k g f g q 3                   ",
"                            , q s a s p p X.J.J.n.l.>.U Y T ,.,.,.E t t A j q q t k z C.J.y.z B s k z ^ 5.5.q ,                 ",
"                            4 q a a k z ^ v.P.P.n.,.U U y p >.>.E z t r t q q q C C.C.C.C.y.z B i i z ..z z f %                 ",
"                          2 0 e u s z y.P.P.n.l.n.n.Y p y p s s s i u i i p r r S I.J.C.r.z B B k u l z P l 5                   ",
"                    2 2 2 q u u u k y.J.P.n.w.w.n.P.o.U y i i p i i i i a a i q l y.J.y.z z B B i e u B H d 2                   ",
"                  5 t t i a u u k r.J.J.l.,.>.>.P.P.P.v.s u u u i i i s s s i i i I z.z.y.r.k u u e e i u 4 %                   ",
"                5 p B z B B i e k J.C.J.,.>.s s u.n.P.n.>.a u i a s s s s s a i u H y.J.J.C.P i u e e e e 8 2 %                 ",
"              < t B B B B i u w e P q.9.>.B a a E 9.,.,.,.s i i s s s s >.>.s a i i z C.C.C.B.B u w u e w u e 8 5               ",
"              < r z B B i w w w w e k B >.>.a i s / >.>.,.s u i a s >.B >.>.,.,.s i B 5.5.5.5.R k w w w u u k i q <             ",
"              , q p i k w w u u u u i B B B a u p s >.T >.p 9 9 i a B B ,.n.l.n.,.B B B B B B B i u w 6 u k i i t %             ",
"                2 4 0 w w e H P r.P B B B s i u i a a s s u 9 9 9 u i s z y.n.n.n.,.>.B B s B a u w 6 6 u u k i q 2             ",
"                  % 4 w e H r.C.,.,.T T >.s a u u a a a a u w 8 9 e u i i B 8.n.J.y.y.5.B i u e w 6 6 6 e p a t 1               ",
"                  4 q i J r.z.l.,.T T T >.>.s a e e i a u e e 9 e e i a a s ,.z.C.J.J.C.P u e w w 6 ; ; 4 e i e 5 ,             ",
"                5 q u k r.y.l.5.Y p p T >.>.>.a e 9 e i e 9 e e e e a T ,.5.8.z.C.v.y.J.r.k e e e e 9 ; = 1 9 8 q q , +         ",
"              , q i i i P ..N N y t t p >.s s a u e w w w e e e u i s >.,.y.n.z.C.....5...B a e e e 9 ; ; 1 1 8 q i q 5 4       ",
"              % 4 t i i k k N N Y U y t p p p i u e e 9 w e u a a s s p z y.J.J.5.k k B B B B u e e w 7 7 6 9 e a a p a 5 +     ",
"                < 5 e u 7 e s q.Y ,.U t t t t u u e e w w u k z R >.R p l ( ;.O.k u e k B B B a u w 7 7 7 0 w u a B k B 5 +     ",
"                  2 4 e f w l C.u.u.Y y t e e e e w 9 w e k 8.n.q.q.^ p r t t i u e q q a k k e w 9 6 6 w w w e e k k p 5 +     ",
"                  d V J k u l y.n.u.9.U i u e e e w w e e B v.J.J.n.k t q e q > w u e 8 q q q 1 ; 6 - 6 w w w e e u a q <       ",
"                d V C.;.O.I P C.u.u.y.5.B e e 9 9 9 q u u z v.J.n.H e e u 9 6 * - 9 e w w 8 ; * - - - 6 9 w e w w e 4 <         ",
"              5 l ..r.C.C.y.J J E ,.^ ,.z u 9 8 e 9 u u u i Y s B i i a a e - & * 6 e u w 0 ; * & > w e u u w e 0 1 %           ",
"            , t B z P ....l e e k s B B a e 9 9 9 8 9 e u u e t e u a s >.i 8 * * ; 9 9 0 - - - > w a a a u e e q %             ",
"            $ r a B z B k w 0 0 q e a a e 0 9 8 1 1 1 9 e e 9 8 e u i z s s i ; = 1 1 ; > > > - 7 k k a B u e i e <             ",
"              < t a a i w w 7 w 7 0 w w w w 8 ; 1 1 6 8 8 1 1 1 9 e i s T s p 6 = = ; ; ; > - - w B B a p e e i a q %           ",
"                < 4 w w w e w w 0 9 0 0 9 7 1 1 1 6 6 6 8 1 1 1 8 q e p s T a e 6 ; ; 6 > > > > w k B a 9 1 e i i q %           ",
"                + : 9 9 w u w 7 - - 0 w 0 9 8 1 ; 6 6 6 8 ; 8 9 e e q e t t t u e 8 ; - ; ; > - ; 8 8 5 : = 1 q i e %           ",
"                  : 8 e e w 7 - & - ; 7 9 8 1 = - 6 6 8 ; 6 9 i p u i u e e t u i 9 6 6 7 0 6 & @ = ; : = * * * 4 3 $           ",
"                    % 1 0 7 - & & * = 1 1 1 ; - - ; 1 - - 9 u i i i i e w e u k i 6 - 7 w w 7 7 * * = * & & o o X X             ",
"                      # & & & & * = 1 1 1 * * * - - - - * 6 e i k k u 7 7 u u u i 7 & 7 w e w 7 6 ; - * & & o .                 ",
"                      + o & & & = = = = 1 - - - - - - - - - 8 9 e e 7 & > e u u u 6 & - w e e w 7 ; ; > > & O X                 ",
"                        O o & * # , = = * * 1 1 8 8 8 - - * - 1 ; - & & & > e e 7 & & - w w e e 0 > > - > - # X                 ",
"                          + O O $ + % = - ; 6 9 8 9 8 - & & * * - * * & o & - > & & o @ % f w 7 > > - $ + + $                   ",
"                                    + # # ; 6 0 8 6 1 & & & & * * - - * * & - - - & O   $ : 7 7 > - # .                         ",
"                                      X + = 0 0 8 6 & o & & & * - * - - > > > ; > # .     + # # # @ .                           ",
"                                        + % ; 7 - & & o O o o * @ + @ ; > > > = - +         . X . .                             ",
"                                          + O & & o +     . . . X   X # = > * + X                                               ",
"                                            + . . .                   + + . X                                                   ",
"                                                                                                                                ",
"                                                                                                                                ",
"                                                                                                                                ",
"                                                                                                                                ",
"                                                                                                                                "
};
